<?xml version="1.0" standalone="no"?>
<!DOCTYPE svg PUBLIC "-//W3C//DTD SVG 1.1//EN" "http://www.w3.org/Graphics/SVG/1.1/DTD/svg11.dtd" >
<svg xmlns="http://www.w3.org/2000/svg">
<metadata>
This is a custom SVG webfont generated by Font Squirrel.
Copyright   : Generated by RoboFog
Foundry     : Generated by RoboFog
</metadata>
<defs>
<font id="Omnes_ATTRegularItalic" horiz-adv-x="1234" >
<font-face units-per-em="2048" ascent="1434" descent="-614" />
<missing-glyph horiz-adv-x="348" />
<glyph unicode=" "  horiz-adv-x="348" />
<glyph unicode="&#x09;" horiz-adv-x="348" />
<glyph unicode="&#xa0;" horiz-adv-x="348" />
<glyph unicode="!" horiz-adv-x="575" d="M100 57q0 74 33 107q27 27 76 26q98 0 98 -69q0 -74 -33 -107q-27 -27 -75 -26q-99 -1 -99 69zM233 420l144 905h182l-248 -922q-10 -41 -35 -41q-31 0 -38 13q-5 8 -6 25q0 9 1 20z" />
<glyph unicode="&#x22;" horiz-adv-x="800" d="M283 858l49 467h192l-151 -475q-14 -51 -43 -51q-31 0 -41 11q-7 8 -8 29q1 8 2 19zM588 858l49 467h192l-151 -475q-14 -51 -43 -51q-31 0 -41 11q-7 8 -7 29q0 8 1 19z" />
<glyph unicode="#" horiz-adv-x="1349" d="M49 358q2 10 8 33l15 72l4 14h280l115 371h-270q2 10 8 33l14 71l4 15h279l110 360q0 7 18 7q7 0 17 -1q35 -4 52 -37q7 -14 8 -38q0 -35 -15 -93l-61 -198h338l110 360q0 7 18 7q7 0 17 -1q35 -4 52 -37q7 -14 8 -38q0 -35 -15 -93l-61 -198h270q-2 -10 -8 -33l-14 -72 l-4 -14h-281l-113 -371h271q-2 -10 -9 -33l-14 -71l-4 -15h-281l-108 -360q0 -7 -18 -7q-7 0 -17 1q-35 4 -52 37q-7 14 -7 38q0 35 14 93l61 198h-337l-111 -360q0 -7 -18 -7q-7 0 -17 1q-35 4 -52 37q-7 14 -7 38q0 35 14 93l62 198h-273zM481 473h346l115 379h-346z" />
<glyph unicode="$" horiz-adv-x="1161" d="M57 272q0 31 21.5 51.5t42 25.5t22.5 -1q78 -190 289 -239l111 514q-145 63 -225 141t-80 219q0 158 121.5 262.5t322.5 104.5h12l37 170h123l-39 -181q160 -29 252 -120q66 -66 66 -136q0 -31 -20.5 -50t-41 -24t-22.5 1q-74 172 -267 209l-106 -502q82 -35 128 -58.5 t102.5 -66.5t82 -101.5t25.5 -134.5q0 -174 -122 -277.5t-341 -103.5h-29l-39 -176h-123l41 191q-168 35 -268 135q-76 75 -76 147zM379 997q0 -86 50 -138t149 -99l100 469h-4q-129 0 -212 -67t-83 -165zM539 96h20q156 0 234.5 64.5t78.5 183.5q0 84 -57 135t-174 103z " />
<glyph unicode="%" horiz-adv-x="1568" d="M86 37q0 43 74 110l1343 1209q2 2 6 2q5 0 12 -3q13 -5 25.5 -19.5t12.5 -35.5q0 -43 -74 -110l-1344 -1208q-2 -2 -5 -2q-5 0 -12 3q-13 5 -25.5 19.5t-12.5 34.5zM197 991q0 143 97 249t243 106q119 0 198.5 -77t79.5 -204q0 -143 -97 -248.5t-243 -105.5 q-119 0 -198.5 76.5t-79.5 203.5zM309 997q0 -78 50.5 -130t123.5 -52q92 0 155.5 73t63.5 171q0 78 -50 130t-124 52q-92 0 -155.5 -73t-63.5 -171zM829 272q0 143 97.5 249t242.5 106q119 0 199 -77t80 -204q0 -143 -97.5 -248.5t-242.5 -105.5q-119 0 -199 76.5 t-80 203.5zM942 279q0 -78 50 -130.5t124 -52.5q92 0 155.5 73t63.5 171q0 78 -50 130t-124 52q-92 0 -155.5 -72.5t-63.5 -170.5z" />
<glyph unicode="&#x26;" horiz-adv-x="1402" d="M72 342q0 172 109.5 275.5t316.5 154.5q-66 106 -66 221q0 150 103.5 253.5t261.5 103.5q131 0 214 -78t83 -205q0 -281 -394 -358l293 -379q156 188 191 471h125q-35 -330 -244 -561l8 -13q59 -76 105.5 -107.5t113.5 -31.5q2 0 3 -10t-2 -23.5t-10 -28t-26.5 -24.5 t-48.5 -10q-70 0 -114.5 32.5t-106.5 112.5l-12 15q-203 -176 -471 -177q-201 0 -316.5 101.5t-115.5 265.5zM205 346q0 -109 80 -180.5t233 -71.5q225 0 389 146l-346 442q-356 -78 -356 -336zM565 1004q0 -109 68 -205q178 35 256 90t78 176q0 78 -51.5 124t-131.5 46 q-98 0 -158.5 -69.5t-60.5 -161.5z" />
<glyph unicode="'" horiz-adv-x="497" d="M283 858l49 467h194l-153 -475q-14 -51 -43 -51q-31 0 -41 11q-7 8 -8 29q1 8 2 19z" />
<glyph unicode="(" horiz-adv-x="788" d="M115 246q0 246 94 484.5t262 406.5q195 195 377 194q43 0 59 -25q11 -17 11 -35q0 -9 -3 -18q-8 -27 -24 -34q-174 -10 -332 -168q-147 -147 -226 -365.5t-79 -439.5q0 -303 162 -465q63 -63 147 -88q8 -2 12.5 -27.5t-11 -50.5t-56.5 -25q-96 0 -199 103 q-194 195 -194 553z" />
<glyph unicode=")" horiz-adv-x="788" d="M-133 -330q8 27 24 35q174 10 332 168q147 147 226 365.5t79 439.5q0 303 -161 465q-63 63 -148 88q-8 2 -12 27.5t11 50t56 24.5q96 0 199 -102q195 -195 195 -553q0 -246 -94.5 -484.5t-262.5 -406.5q-195 -195 -377 -195q-43 0 -59 26q-11 17 -11 35q0 8 3 17z" />
<glyph unicode="*" horiz-adv-x="841" d="M199 1083q0 57 42 57q11 0 25 -3l217 -60l9 221q2 31 12 41.5t34.5 10.5t35 -10.5t12.5 -41.5l8 -221l217 60q14 4 25 3q43 0 43 -57q0 -23 -37 -36l-209 -80l125 -187q13 -21 13 -37q0 -13 -9 -22q-22 -21 -41 -21q-22 0 -41 25l-141 176l-142 -176q-19 -25 -40 -25 q-20 0 -42 21q-9 9 -9 22q0 16 13 37l125 187l-208 80q-37 13 -37 36z" />
<glyph unicode="+" horiz-adv-x="1173" d="M141 522q0 47 25 72q14 14 49 14h336l72 334q14 63 59 64h16q51 0 52 -45q0 -9 -2 -19l-72 -334h325q59 0 60 -33q0 -47 -25 -71q-14 -14 -49 -15h-336l-76 -356q-14 -63 -59 -63h-16q-51 0 -51 44q0 9 2 19l75 356h-325q-60 0 -60 33z" />
<glyph unicode="," horiz-adv-x="497" d="M-84 -229l225 430q4 1 19 1h16q29 -1 60.5 -19.5t31.5 -49.5q0 -43 -39 -92l-252 -311q-4 -5 -11 -5q-11 0 -28 11q-23 14 -24 27q0 4 2 8z" />
<glyph unicode="-" horiz-adv-x="819" d="M135 434v123h555v-123h-555z" />
<glyph unicode="." horiz-adv-x="497" d="M61 57q0 74 33 107q27 27 76 26q98 0 98 -69q0 -74 -32 -107q-27 -27 -76 -26q-99 -1 -99 69z" />
<glyph unicode="/" horiz-adv-x="731" d="M-170 -395l895 1720h152l-895 -1720h-152z" />
<glyph unicode="0" horiz-adv-x="1357" d="M166 457q0 137 51 346q29 119 70 209t106.5 170t163.5 123t225 43q231 0 358.5 -133.5t127.5 -348.5q0 -137 -51 -346q-29 -119 -70 -209t-106.5 -170t-164 -123t-225.5 -43q-231 0 -358 133.5t-127 348.5zM305 457q0 -162 94.5 -262.5t251.5 -100.5q100 0 177 36 t125 103.5t78 137t52 166.5q45 186 45 329q0 162 -94 262.5t-252 100.5q-100 0 -177 -36t-125 -103.5t-77.5 -137t-52.5 -166.5q-45 -186 -45 -329z" />
<glyph unicode="1" horiz-adv-x="780" d="M217 1130q0 27 15.5 50.5t29.5 35t17 9.5q35 -51 116 -51q63 0 113.5 46t69.5 113h57q52 0 52 -46q0 -11 -3 -25l-268 -1262h-137l229 1094q-61 -61 -150 -62q-82 0 -116 35q-25 24 -25 63z" />
<glyph unicode="2" horiz-adv-x="1134" d="M49 94q0 203 133 336q70 70 164 117t236 98q225 82 311 148.5t86 199.5q0 100 -80 165t-217 65q-238 0 -350 -240q-2 -6 -22.5 -1t-40 25.5t-19.5 55.5q0 70 78 147q139 139 362 140q199 0 315.5 -96.5t116.5 -260.5q0 -100 -32.5 -175t-106.5 -130t-149.5 -91 t-206.5 -83q-139 -49 -216 -88t-132 -94q-78 -78 -91 -205h770l-10 -51l-16 -76h-809q-29 0 -51.5 29.5t-22.5 64.5z" />
<glyph unicode="3" horiz-adv-x="1159" d="M31 270q0 43 23.5 69t46 31t24.5 -1q25 -131 122 -202t257 -71q172 0 262 87t90 216q0 111 -81 176.5t-230 65.5h-168q2 10 8 33l14 71l4 15h168q381 0 381 260q0 94 -80.5 152.5t-201.5 58.5q-229 0 -359 -193q-2 -4 -19.5 3.5t-33.5 25.5t-16 39q0 49 55 104 q135 139 379 140q184 0 304 -84t120 -242q0 -127 -78 -222t-229 -118q104 -35 157.5 -109.5t53.5 -173.5q0 -76 -28 -148.5t-85 -136t-159.5 -102.5t-235.5 -39q-252 0 -381 129q-84 84 -84 166z" />
<glyph unicode="4" horiz-adv-x="1239" d="M88 475q0 59 70 129l669 649q82 80 150 80q99 0 99 -72q0 -13 -3 -28l-155 -729h245q-2 -10 -8 -35l-16 -78l-2 -14h-246l-80 -377h-133l78 377h-621q-4 0 -15 14.5t-21.5 39t-10.5 44.5zM225 502h561l148 696z" />
<glyph unicode="5" horiz-adv-x="1150" d="M57 254q0 31 21.5 51.5t43 27.5t23.5 1q33 -109 128.5 -172.5t244.5 -63.5q166 0 267.5 94.5t101.5 247.5q0 254 -314 254q-170 0 -299 -71q-69 17 -69 74q0 14 4 30l106 514q16 84 97 84h741q-4 -20 -10 -45l-17 -82h-686l-90 -424q111 43 234 43q205 0 326.5 -101.5 t121.5 -266.5q0 -211 -140 -342.5t-378 -131.5q-262 0 -391 138q-66 67 -66 141z" />
<glyph unicode="6" horiz-adv-x="1247" d="M166 449q0 172 67.5 399t194.5 354q76 76 161 112t222 36q203 0 317 -115q59 -61 60 -119q0 -31 -19.5 -52.5t-39 -28.5t-21.5 -1q-90 197 -311 197q-350 0 -465 -524q152 121 358 120q193 0 310.5 -97t117.5 -271q0 -193 -139 -338.5t-352 -145.5q-209 0 -335 123.5 t-126 350.5zM297 444q0 -166 86 -256t246 -90q164 0 261 100.5t97 252.5q0 121 -81 191.5t-232 70.5q-205 0 -367 -144q-10 -57 -10 -125z" />
<glyph unicode="7" horiz-adv-x="1130" d="M206 49q-2 6 -2 13q0 38 52 110l782 1026h-802q2 12 10 45l16 82h844q6 0 20.5 -13.5t29.5 -41t15 -56.5q0 -47 -47 -108l-833 -1114q-2 -2 -7 -2q-10 0 -33 9q-34 13 -45 50z" />
<glyph unicode="8" d="M96 330q0 131 95.5 231.5t257.5 136.5q-178 74 -179 256q0 164 134.5 280t343.5 116q188 0 312 -90.5t124 -237.5q0 -123 -82 -221.5t-232 -132.5q215 -88 215 -287q0 -172 -137 -289t-360 -117q-221 0 -356.5 96.5t-135.5 258.5zM236 338q0 -111 97 -178.5t259 -67.5 q164 0 259 81t95 208q0 106 -98 173t-266 67q-147 0 -246.5 -79t-99.5 -204zM410 961q0 -102 84 -161t227 -59q154 0 238.5 73t84.5 196q0 102 -87 162.5t-228 60.5q-147 0 -233 -75.5t-86 -196.5z" />
<glyph unicode="9" horiz-adv-x="1247" d="M135 209q0 31 19.5 52.5t39 28.5t21.5 1q90 -197 311 -197q344 0 461 504q-156 -121 -356.5 -121t-314 98.5t-113.5 280.5q0 201 139 347.5t354 146.5q209 0 335 -123t126 -350q0 -172 -67.5 -399.5t-194.5 -354.5q-76 -76 -161 -112t-222 -36q-203 0 -317 115 q-60 60 -60 119zM334 864q0 -129 77.5 -200.5t235.5 -71.5q203 0 365 143q14 78 14 146q0 166 -86 256t-246 90q-166 0 -263 -102.5t-97 -260.5z" />
<glyph unicode=":" horiz-adv-x="559" d="M92 57q0 74 33 107q27 27 76 26q98 0 98 -69q0 -74 -33 -107q-27 -27 -76 -26q-98 -1 -98 69zM240 754q0 74 32 106q27 27 76 27q98 0 98 -70q0 -74 -32 -106q-27 -27 -76 -27q-98 0 -98 70z" />
<glyph unicode=";" horiz-adv-x="559" d="M-53 -229l225 430q6 2 35 1t60.5 -19.5t31.5 -49.5q0 -43 -39 -92l-252 -311q-4 -5 -11 -5q-11 0 -29 11q-23 14 -23 27q0 4 2 8zM240 754q0 74 32 106q27 27 76 27q98 0 98 -70q0 -74 -32 -106q-27 -27 -76 -27q-98 0 -98 70z" />
<glyph unicode="&#x3c;" horiz-adv-x="1028" d="M141 537q0 74 86 114l715 344q1 0 2 1q4 0 11 -7q9 -8 19.5 -24.5t10.5 -39.5q0 -49 -88 -91l-618 -291l473 -275q81 -45 80 -95q0 -26 -14 -45q-11 -15 -21 -23q-7 -5 -11 -4q-2 0 -4 1l-592 353q-49 31 -49 82z" />
<glyph unicode="=" horiz-adv-x="1173" d="M109 276q0 51 26 78q14 14 51 15h738q63 0 63 -33q0 -51 -26 -78q-14 -14 -52 -14h-737q-63 -1 -63 32zM209 741q0 51 27 78q14 14 51 15h737q63 0 63 -33q0 -51 -26 -78q-14 -14 -51 -14h-738q-63 -1 -63 32z" />
<glyph unicode="&#x3e;" horiz-adv-x="1028" d="M69 172q0 49 89 92l618 291l-473 274q-81 45 -80 96v9q2 20 13.5 35.5t21.5 22.5q7 5 11 5q2 0 3 -2l592 -352q49 -31 49 -82q0 -74 -86 -115l-714 -344h-2q-4 0 -12 7q-9 8 -19.5 24.5t-10.5 38.5z" />
<glyph unicode="?" horiz-adv-x="1017" d="M219 1051q0 82 86 168q131 131 326 131q182 0 292.5 -102.5t110.5 -258.5q0 -260 -323 -364q-117 -39 -162 -78t-62 -117l-16 -68h-131l18 87q23 109 80.5 167t184.5 103q143 49 208.5 106.5t65.5 163.5q0 100 -73.5 169t-200.5 69q-113 0 -193 -68.5t-123 -181.5 q-2 -6 -23.5 0t-43 25.5t-21.5 48.5zM274 57q0 74 33 107q27 27 76 26q98 0 98 -69q0 -74 -32 -107q-27 -27 -76 -26q-99 -1 -99 69z" />
<glyph unicode="@" horiz-adv-x="1597" d="M170 575q0 324 216 549.5t527 225.5q279 0 447 -150.5t168 -400.5q0 -217 -94.5 -341t-251.5 -124q-186 0 -213 137q-78 -125 -236 -125q-102 0 -168.5 65.5t-66.5 180.5q0 145 95 261t234 116q70 0 123.5 -32t75.5 -85l23 102h129l-78 -368q-7 -30 -7 -55q0 -97 105 -97 q104 0 165.5 96.5t61.5 264.5q0 201 -146 329.5t-376 128.5q-260 0 -444.5 -195.5t-184.5 -473.5q0 -225 153 -367.5t392 -142.5q180 0 316 88q39 25 69 24q16 0 31.5 -15t23 -31.5t1.5 -20.5q-74 -59 -195 -101.5t-256 -42.5q-289 0 -464 164t-175 436zM627 606 q0 -70 41 -111.5t100 -41.5q76 0 137.5 56t77.5 136l18 88q-37 129 -163 129q-94 0 -152.5 -79t-58.5 -177z" />
<glyph unicode="A" horiz-adv-x="1316" d="M-51 0l768 1292q29 47 88 47q84 0 96 -61l256 -1278h-145l-80 432h-574l-247 -432h-162zM430 555h477l-116 625z" />
<glyph unicode="B" horiz-adv-x="1304" d="M88 0l264 1241q12 84 97 84h376q195 0 296.5 -77t101.5 -222q0 -266 -281 -350q115 -31 173.5 -102.5t58.5 -165.5q0 -182 -123 -295t-396 -113h-567zM254 125h412q193 0 278.5 69.5t85.5 213.5q0 96 -73.5 149t-215.5 53h-383zM383 733h369q150 0 238.5 77t88.5 198 q-6 193 -268 192h-328z" />
<glyph unicode="C" horiz-adv-x="1400" d="M160 547q0 330 213 566.5t524 236.5q250 0 395 -146q86 -86 86 -164q0 -33 -20.5 -54t-42 -26.5t-29.5 1.5q-98 268 -395 268q-248 0 -416 -194.5t-168 -467.5q0 -215 124 -342t325 -127q283 0 424 215q2 4 19.5 -3t33.5 -25.5t16 -44.5q0 -49 -59 -109 q-66 -66 -182.5 -111t-249.5 -45q-272 0 -435 155t-163 417z" />
<glyph unicode="D" horiz-adv-x="1421" d="M88 0l264 1241q12 84 97 84h225q309 0 482 -144.5t173 -406.5q0 -338 -214 -556t-611 -218h-416zM254 123h270q324 0 491 179t167 452q0 211 -136.5 329.5t-381.5 118.5h-181z" />
<glyph unicode="E" horiz-adv-x="1249" d="M88 0l264 1241q16 84 97 84h849q-2 -10 -6 -35q-12 -45 -16 -78l-4 -14h-789l-98 -457h641q-2 -10 -8 -32l-17 -76l-2 -15h-641l-104 -491h799q-2 -10 -9 -35l-16 -78l-2 -14h-938z" />
<glyph unicode="F" horiz-adv-x="1161" d="M88 0l264 1241q12 84 97 84h794q-2 -10 -6 -35l-8 -40q-6 -30 -8 -38l-4 -14h-734l-106 -500h567l-6 -32l-8 -39t-8 -37l-4 -15h-568l-125 -575h-137z" />
<glyph unicode="G" horiz-adv-x="1515" d="M160 541q0 211 94 396t267 299t386 114q268 0 422 -154q74 -74 74 -141q0 -39 -23.5 -61.5t-46 -25.5t-24.5 1q-39 113 -148.5 185.5t-255.5 72.5q-258 0 -428 -198t-170 -474q0 -219 122 -339t327 -120q203 0 327 125q61 61 96 129t62 201h-438q2 10 8 33q4 12 9 41.5 t7 36.5l2 14h467q45 0 66 -25q14 -16 14 -41q0 -12 -4 -26l-125 -586q0 -6 -28 -6q-73 0 -73 81q0 26 7 60l4 19q-53 -76 -158.5 -126.5t-244.5 -50.5q-268 0 -431 151t-163 415z" />
<glyph unicode="H" horiz-adv-x="1435" d="M90 0l268 1270q14 63 70 63h18q66 0 50 -71l-113 -535h772l115 543q14 63 69 63h19q66 0 49 -71l-268 -1262h-138l127 600h-772l-129 -600h-137z" />
<glyph unicode="I" horiz-adv-x="565" d="M113 0l282 1325h137l-282 -1325h-137z" />
<glyph unicode="J" horiz-adv-x="964" d="M47 164q0 31 19.5 52.5t39 29.5t21.5 2q31 -68 94.5 -110t138.5 -42q113 0 176.5 70t98.5 231l199 928h137l-201 -946q-45 -207 -144.5 -305.5t-267.5 -98.5q-164 0 -262 99q-49 49 -49 90z" />
<glyph unicode="K" horiz-adv-x="1187" d="M88 0l270 1270q14 63 70 63h18q52 0 53 -46q0 -11 -3 -25l-117 -553l788 641q1 1 2 0q4 0 15 -4q14 -6 27.5 -19.5t19.5 -32.5q2 -5 1 -10q0 -16 -12 -40q-17 -32 -63 -66l-633 -506l330 -434q70 -94 108.5 -124t92.5 -34q2 0 3 -9.5t-3 -22.5t-13.5 -26.5t-32 -22.5 t-53.5 -9q-51 0 -98 42t-133 158l-354 482l-146 -672h-137z" />
<glyph unicode="L" horiz-adv-x="1093" d="M88 0l270 1270q14 63 70 63h18q66 0 50 -71l-242 -1135h631q63 0 63 -35q0 -47 -26 -78q-12 -14 -54 -14h-780z" />
<glyph unicode="M" horiz-adv-x="1587" d="M88 0l264 1239q20 94 113 94h33q49 0 67.5 -22.5t32.5 -81.5l182 -772l516 772q43 63 70 83.5t72 20.5h37q45 0 65.5 -28.5t11.5 -69.5l-264 -1235h-131l250 1174l-514 -762q-57 -82 -129 -82q-53 0 -75.5 23.5t-35.5 72.5l-182 748l-252 -1174h-131z" />
<glyph unicode="N" horiz-adv-x="1452" d="M88 0l264 1239q20 94 99 94h34q31 0 49.5 -16.5t38.5 -56.5l496 -1053l240 1118h129l-267 -1249q-18 -84 -90 -84h-14q-49 0 -86 74l-516 1093l-248 -1159h-129z" />
<glyph unicode="O" horiz-adv-x="1568" d="M160 551q0 340 223 569.5t510 229.5q268 0 429 -162t161 -412q0 -340 -223.5 -569.5t-509.5 -229.5q-268 0 -429 162t-161 412zM307 561q0 -199 122 -331t335 -132q221 0 396 191.5t175 476.5q0 199 -121.5 331t-334.5 132q-221 0 -396.5 -191.5t-175.5 -476.5z" />
<glyph unicode="P" horiz-adv-x="1202" d="M88 0l264 1241q12 84 97 84h303q211 0 325.5 -89t114.5 -253q0 -223 -137 -345t-391 -122h-326l-113 -516h-137zM365 639h325q168 0 263.5 86t95.5 240q0 236 -306 235h-260z" />
<glyph unicode="Q" horiz-adv-x="1593" d="M160 551q0 227 106.5 412.5t276.5 286t358 100.5q270 0 426 -160t156 -414q0 -354 -246 -590l12 -14q74 -92 135 -104q0 -4 2.5 -24.5t-16 -44.5t-53.5 -24q-47 0 -79 24t-85 93l-10 14q-186 -129 -402 -129q-270 0 -425.5 160t-155.5 414zM307 561q0 -199 120 -331 t329 -132q164 0 307 105l-232 301l99 80l225 -297q180 195 180 479q0 199 -119.5 331t-328.5 132q-225 0 -402.5 -190.5t-177.5 -477.5z" />
<glyph unicode="R" horiz-adv-x="1230" d="M88 0l264 1241q12 84 97 84h323q215 0 327.5 -83t112.5 -243q0 -207 -134 -324.5t-365 -117.5h-23l182 -315q51 -88 89 -121t106 -33q2 0 3 -10t-3 -24.5t-13.5 -29t-32 -24.5t-52.5 -10q-57 0 -105.5 40t-115.5 158l-207 369h-195l-121 -557h-137zM371 676h346 q166 0 258 82t92 227q0 106 -78 161.5t-225 55.5h-281z" />
<glyph unicode="S" horiz-adv-x="1161" d="M57 272q0 31 21.5 51.5t42 25.5t22.5 -1q47 -119 152.5 -185.5t263.5 -66.5q156 0 234.5 64.5t78.5 183.5q0 49 -19 88t-67.5 72t-87.5 51l-116 51q-80 33 -127 58.5t-104.5 69.5t-85 105.5t-27.5 143.5q0 158 121.5 262.5t322.5 104.5q254 0 385 -131q66 -66 66 -136 q0 -31 -20.5 -50t-41 -24t-22.5 1q-92 219 -373 219q-131 0 -214 -65.5t-83 -166.5q0 -55 19.5 -96t67.5 -74.5t88 -54t124 -55.5l100 -44q35 -15 87.5 -49t79 -67t48 -85t21.5 -116q0 -174 -122 -277.5t-341 -103.5q-268 0 -418 150q-76 75 -76 147z" />
<glyph unicode="T" horiz-adv-x="1265" d="M246 1233q0 47 26 78q12 14 54 14h960q63 0 64 -35q0 -47 -27 -78q-12 -14 -53 -14h-414l-256 -1198h-137l254 1198h-408q-63 0 -63 35z" />
<glyph unicode="U" horiz-adv-x="1378" d="M195 584l145 686q14 63 70 63h18q52 0 52 -46q0 -11 -3 -25l-145 -689q-18 -86 -18 -155q0 -123 55 -199q86 -119 297 -119q324 0 409 406l162 764q14 63 70 63h16q52 0 52 -46q0 -11 -3 -25l-166 -785q-106 -502 -549 -502q-274 0 -400 157q-84 104 -84 270q1 83 22 182 z" />
<glyph unicode="V" horiz-adv-x="1298" d="M242 1292q-2 12 30 30q20 11 42 11q14 0 30 -5q39 -11 49 -71l197 -1110l672 1186q3 3 10 3q10 0 30 -5q34 -8 51 -43q4 -9 4 -21q0 -37 -38 -108l-676 -1159h-154z" />
<glyph unicode="W" horiz-adv-x="1921" d="M322 1305q0 14 35 26q14 5 29 5l43 -11q36 -18 36 -78l16 -1122l498 958q18 39 41.5 53.5t69.5 14.5q96 0 104 -90l84 -932l534 1200q0 4 14 4q9 0 25 -2q39 -4 56 -37q5 -10 5 -25q0 -37 -28 -108l-532 -1161h-185l-90 1014l-536 -1014h-179z" />
<glyph unicode="X" horiz-adv-x="1241" d="M-7 37q-1 4 -1 9q0 33 53 93l524 533l-280 653h147l238 -575l567 600q1 1 3 0q8 0 34 -13q33 -16 42 -49q1 -4 1 -9q0 -33 -53 -93l-533 -541l180 -387q49 -104 84 -136t101 -32q2 0 3 -12t-3 -28.5t-12.5 -33t-30 -29t-51.5 -12.5q-66 0 -111 51.5t-98 170.5l-166 370 l-559 -592q-1 -1 -3 0q-8 0 -34 13q-33 16 -42 49z" />
<glyph unicode="Y" horiz-adv-x="1193" d="M225 1325h146l260 -647l559 659q2 2 6 2q10 0 34 -11q34 -15 43 -52q1 -4 1 -10q0 -37 -60 -111l-536 -612l-115 -543h-139l119 557z" />
<glyph unicode="Z" horiz-adv-x="1224" d="M4 0l23 98l4 27l1036 1073h-719q-78 0 -78 51q0 14 7.5 32.5t14.5 31t9 12.5h973l-21 -98l-6 -27l-1036 -1073h762q78 0 78 -51q0 -14 -7.5 -32.5t-14.5 -31t-9 -12.5h-1016z" />
<glyph unicode="[" horiz-adv-x="731" d="M8 -403l369 1728h387q59 0 59 -33q0 -49 -24 -73q-14 -14 -49 -15h-273l-315 -1487h262q59 0 59 -32q0 -49 -24 -74q-14 -14 -49 -14h-402z" />
<glyph unicode="\" horiz-adv-x="731" d="M219 1325h135l162 -1720h-135z" />
<glyph unicode="]" horiz-adv-x="731" d="M-104 -371q0 49 24 74q14 14 49 14h273l315 1487h-262q-59 0 -59 33q0 49 24 74q14 14 49 14h402l-369 -1728h-387q-59 -1 -59 32z" />
<glyph unicode="^" horiz-adv-x="1093" d="M383 948q0 61 137 176q41 35 87 69t73 51.5t31 17.5t23.5 -18.5t49 -50.5t54.5 -63q80 -104 80 -157q0 -59 -50 -60q-25 0 -49 28t-65 97l-60 105l-104 -109q-117 -121 -168 -121q-39 0 -39 35z" />
<glyph unicode="_" horiz-adv-x="1021" d="M-53 -92q0 51 24 76q16 16 54 16h755q63 0 64 -35q0 -51 -25 -76q-16 -16 -53 -16h-756q-63 0 -63 35z" />
<glyph unicode="`" horiz-adv-x="1093" d="M455 1382q0 25 20.5 42.5t44.5 17.5q41 0 92 -43q55 -45 109.5 -109.5t84.5 -109.5q25 -37 24 -48q0 -2 -1 -4q-2 -2 -6 -1q-13 0 -51 13q-51 17 -125 56t-131 86q-61 51 -61 100z" />
<glyph unicode="a" d="M100 389q0 236 160 423t393 187q119 0 211 -54t137 -140l37 170h131l-163 -768q-8 -35 -8 -59q0 -28 10 -43q18 -28 86 -29q4 0 1 -23.5t-25.5 -46t-68.5 -22.5q-80 0 -114 50q-25 36 -25 92q0 23 4 50q-66 -98 -165 -149.5t-209 -51.5q-166 0 -279 109.5t-113 304.5z M236 391q0 -137 78.5 -218t193.5 -81q150 0 270.5 110.5t151.5 264.5l35 162q-82 254 -320 254q-182 0 -295.5 -152t-113.5 -340z" />
<glyph unicode="b" horiz-adv-x="1228" d="M70 8l292 1378h134l-123 -569q143 182 356 182q166 0 283.5 -114.5t117.5 -317.5q0 -233 -151.5 -412.5t-380.5 -179.5q-123 0 -215 58.5t-143 150.5l-13 -57q-14 -74 -38.5 -104.5t-67.5 -30.5q-12 0 -24.5 4t-19.5 7t-7 5zM297 453q-6 -34 -6 -66q0 -104 66 -186 q87 -109 249 -109q178 0 283.5 143.5t105.5 331.5q0 145 -83 230.5t-199.5 85.5t-218 -67.5t-158.5 -178.5z" />
<glyph unicode="c" horiz-adv-x="1130" d="M98 428q0 227 162 398t391 171q215 0 338 -123q82 -82 82 -167q0 -39 -24.5 -60.5t-47 -19.5t-26.5 4q-20 111 -103.5 179.5t-214.5 68.5q-180 0 -299.5 -134.5t-119.5 -308.5q0 -152 92 -246t245 -94q201 0 318 185q2 4 20.5 -1.5t37 -21.5t18.5 -41q0 -47 -64 -111 q-55 -55 -146 -93t-196 -38q-199 0 -331 123t-132 330z" />
<glyph unicode="d" d="M106 408q0 233 152 412t381 179q244 0 360 -198l125 585h133l-251 -1179q-8 -34 -8 -58q0 -27 10 -43q18 -29 86 -30q4 0 1 -23.5t-25.5 -46t-68.5 -22.5q-139 0 -139 140q0 17 2 36q-139 -184 -356 -185q-166 0 -284 115t-118 318zM242 408q0 -145 83 -230.5t199 -85.5 q143 0 256 101.5t144 252.5l39 179q-90 258 -332 258q-178 0 -283.5 -143.5t-105.5 -331.5z" />
<glyph unicode="e" horiz-adv-x="1103" d="M92 373q0 264 177 445t438 181q162 0 255 -70.5t93 -187.5q0 -156 -127 -233.5t-441 -77.5q-106 0 -258 12q-2 -20 -2 -61q0 -133 76 -212t217 -79q209 0 330 162q2 4 19.5 -2t34 -22.5t16.5 -39.5q0 -41 -46 -86q-127 -127 -358 -127q-203 0 -313.5 110t-110.5 288z M258 555q98 -12 217 -12q444 0 445 196q0 59 -57.5 101.5t-162.5 42.5q-150 0 -270.5 -92.5t-171.5 -235.5z" />
<glyph unicode="f" horiz-adv-x="745" d="M143 856l7 33l16 72l2 14h197l26 119q68 317 318 317q115 0 172 -57q29 -29 28 -66q0 -20 -12 -38.5t-24.5 -27t-14.5 -3.5q-51 74 -156 73q-141 0 -186 -217l-22 -100h254l-7 -33l-16 -72l-2 -14h-252l-180 -856h-133l182 856h-197z" />
<glyph unicode="g" d="M35 -152q0 41 23.5 66t47 31t25.5 0q63 -233 350 -234q285 0 353 318l32 151q-139 -178 -356 -178q-166 0 -286 114.5t-120 317.5q0 217 162 391t387 174q119 0 211 -54t137 -140l37 170h131l-204 -959q-43 -205 -169 -315.5t-327 -110.5q-238 0 -365 127q-69 70 -69 131 zM240 434q0 -143 85 -229t201 -86q139 0 253 93t145 237l41 182q-35 117 -119 184.5t-201 67.5q-172 0 -288.5 -138.5t-116.5 -310.5z" />
<glyph unicode="h" horiz-adv-x="1169" d="M68 0l282 1331q14 63 62 64h16q57 0 57 -46q0 -8 -2 -18l-110 -518q53 88 139 137t184 49q158 0 250 -92t92 -237q0 -82 -59 -299q-49 -171 -49 -221q0 -39 20.5 -55.5t65.5 -20.5q4 0 1 -22.5t-24.5 -45t-64.5 -22.5q-61 0 -96 38.5t-35 106.5q0 66 53 260 q51 182 51 256q0 106 -58.5 167.5t-164.5 61.5q-111 0 -190.5 -57t-151.5 -178l-135 -639h-133z" />
<glyph unicode="i" horiz-adv-x="497" d="M123 205l164 770h133l-164 -768q-7 -33 -7 -57q0 -30 11 -46q20 -29 94 -28q4 0 1 -23.5t-26.5 -46t-70.5 -22.5q-145 0 -145 139q0 37 10 82zM334 1288q0 43 24.5 74t69.5 31q90 0 90 -68q0 -43 -24.5 -73.5t-69.5 -30.5q-90 -1 -90 67z" />
<glyph unicode="j" horiz-adv-x="497" d="M-303 -303q0 23 13.5 44t26.5 31.5t15 8.5q51 -78 148 -78q61 0 98 38t55 132l234 1102h133l-240 -1127q-55 -264 -284 -264q-115 0 -170 56q-29 28 -29 57zM334 1288q0 43 24.5 74t69.5 31q90 0 90 -68q0 -43 -24.5 -73.5t-69.5 -30.5q-90 -1 -90 67z" />
<glyph unicode="k" horiz-adv-x="972" d="M68 0l294 1386h134l-183 -854l580 467q2 2 16.5 -3t26.5 -18t17 -33l2 -10q0 -17 -13 -39q-16 -30 -59 -65l-424 -335l174 -256q66 -96 101.5 -120t109.5 -28q2 0 2 -11t-4 -27.5t-13.5 -32t-31 -26.5t-52.5 -11q-61 0 -104 39.5t-137 181.5l-197 297l-106 -502h-133z " />
<glyph unicode="l" horiz-adv-x="497" d="M123 205l252 1181h133l-252 -1179q-7 -33 -7 -57q0 -30 11 -46q20 -29 94 -28q4 0 1 -23.5t-26.5 -46t-70.5 -22.5q-145 0 -145 139q0 37 10 82z" />
<glyph unicode="m" horiz-adv-x="1820" d="M68 0l208 977q0 6 29 6q79 0 79 -88q0 -23 -5 -53l-2 -6q117 164 309 163q113 0 194 -57t109 -156q135 213 373 213q145 0 236.5 -93t91.5 -236q0 -82 -60 -299q-49 -171 -49 -221q0 -39 20.5 -55.5t65.5 -20.5q4 0 1 -22.5t-24.5 -45t-64.5 -22.5q-61 0 -96 38.5 t-35 106.5q0 66 53 260q51 182 51 256q0 104 -57 166.5t-152 62.5q-104 0 -178.5 -50t-148.5 -165l-139 -659h-134l119 561q10 47 10 88q0 79 -36 137q-55 88 -168 88q-104 0 -179 -50t-149 -165l-139 -659h-133z" />
<glyph unicode="n" horiz-adv-x="1169" d="M68 0l208 977q0 6 29 6q79 0 79 -88q0 -23 -5 -53l-6 -27q117 184 323 184q158 0 250 -92t92 -237q0 -82 -59 -299q-49 -171 -49 -221q0 -39 20.5 -55.5t65.5 -20.5q4 0 1 -22.5t-24.5 -45t-64.5 -22.5q-61 0 -96 38.5t-35 106.5q0 66 53 260q51 182 51 256 q0 106 -58.5 167.5t-164.5 61.5q-111 0 -190.5 -57t-151.5 -178l-135 -639h-133z" />
<glyph unicode="o" horiz-adv-x="1196" d="M100 428q0 231 158 401t391 170q188 0 318.5 -127t130.5 -325q0 -231 -158 -401.5t-391 -170.5q-188 0 -318.5 127t-130.5 326zM236 432q0 -145 93 -242.5t228 -97.5q168 0 287 134t119 317q0 145 -93.5 242.5t-228.5 97.5q-168 0 -286.5 -134.5t-118.5 -316.5z" />
<glyph unicode="p" horiz-adv-x="1228" d="M-16 -395l292 1372q0 6 29 6q79 0 79 -88q0 -23 -5 -53l-4 -25q143 182 354 182q166 0 283.5 -114.5t117.5 -317.5q0 -233 -151.5 -412.5t-380.5 -179.5q-125 0 -219 61.5t-139 147.5l-123 -579h-133zM297 453q-6 -34 -6 -66q0 -104 66 -186q87 -109 249 -109 q178 0 283.5 143.5t105.5 331.5q0 145 -83 230.5t-199.5 85.5t-218 -67.5t-158.5 -178.5z" />
<glyph unicode="q" d="M106 408q0 233 152 412t381 179q119 0 213 -51t149 -137l9 35q14 74 39.5 105.5t66.5 31.5q12 0 24.5 -4t19.5 -7t7 -5l-290 -1362h-134l119 553q-143 -182 -354 -183q-166 0 -284 115t-118 318zM242 408q0 -145 83 -230.5t199 -85.5q143 0 256 101.5t144 252.5l39 179 q-45 129 -121 193.5t-211 64.5q-178 0 -283.5 -143.5t-105.5 -331.5z" />
<glyph unicode="r" horiz-adv-x="761" d="M68 0l208 977q0 6 29 6q100 0 74 -141l-8 -39q102 197 274 196q59 0 100 -25.5t41 -66.5q0 -29 -12 -51t-25.5 -30.5t-15.5 -6.5q-49 53 -127 53q-113 0 -194.5 -129t-126.5 -346l-84 -397h-133z" />
<glyph unicode="s" horiz-adv-x="985" d="M43 195q0 27 17.5 47t36 27t20.5 3q111 -184 346 -184q113 0 175 45t62 121q0 61 -53 96t-180 78q-70 25 -109 42t-89 50t-73.5 80t-23.5 111q0 127 102.5 207.5t262.5 80.5q209 0 323 -114q49 -49 49 -99q0 -27 -18.5 -46t-36.5 -24t-23 1q-39 76 -121.5 123t-183.5 47 q-106 0 -165.5 -47t-59.5 -113t56.5 -103.5t185.5 -82.5q66 -23 105.5 -41.5t87.5 -50t70.5 -75.5t22.5 -104q0 -135 -100 -215t-274 -80q-236 0 -363 127q-49 50 -49 93z" />
<glyph unicode="t" horiz-adv-x="768" d="M162 856l6 33l16 72l2 14h140l20 96q14 74 40 105.5t69 31.5q12 0 24.5 -4t19.5 -7t7 -5l-47 -217h303l-6 -33l-17 -72l-2 -14h-303l-112 -526q-12 -54 -12 -96q0 -144 136 -144q84 0 136 59q2 2 9 -5t14 -23.5t7 -32.5q0 -35 -28 -63q-49 -49 -158 -50q-141 0 -207 92 q-42 58 -42 149q0 51 13 114l111 526h-139z" />
<glyph unicode="u" horiz-adv-x="1169" d="M147 424l117 551h133l-118 -561q-11 -50 -11 -93q0 -79 36 -135q56 -86 185 -86q111 0 191 57.5t151 178.5l136 639h133l-164 -768q-8 -35 -8 -59q0 -28 10 -43q18 -28 86 -29q4 0 1 -23.5t-25.5 -46t-67.5 -22.5q-139 0 -139 142q0 17 2 36q-53 -88 -139.5 -137.5 t-184.5 -49.5q-193 0 -280 125q-58 84 -58 201q0 57 14 123z" />
<glyph unicode="v" horiz-adv-x="1017" d="M80 888q0 11 3 26.5t11 31t28.5 26.5t51.5 11q66 0 109 -43q63 -63 88 -276l61 -529l500 846q2 4 11 4q10 0 28 -5q35 -9 48 -41q3 -7 3 -17q0 -34 -37 -101l-500 -821h-157l-88 676q-14 115 -50 158t-108 43q-2 0 -2 11z" />
<glyph unicode="w" horiz-adv-x="1492" d="M116 896q0 9 4 23q5 15 15 29.5t32.5 24.5t55.5 10q59 0 99 -39q68 -68 67 -258v-22l-8 -523l309 619q23 45 50.5 60.5t70.5 15.5q94 0 102 -99l54 -598l393 842q0 3 6 3q9 0 30 -5q36 -8 51 -39q5 -9 5 -24q0 -33 -25 -95l-399 -821h-166l-76 674l-348 -674h-180l2 676 q0 119 -32.5 161t-108.5 46q-3 -1 -3 13z" />
<glyph unicode="x" horiz-adv-x="1021" d="M13 48q0 35 61 102l340 333l-234 449q-8 14 25 37q25 17 48 17q40 0 75 -50q12 -16 22 -39l160 -340l428 436q2 2 5 2q10 0 33 -12q32 -16 37 -50v-5q0 -34 -63 -103l-372 -366l100 -191q55 -104 95 -134t120 -34q2 0 3 -11t-2 -27.5t-11.5 -32t-28.5 -26.5t-51 -11 q-78 0 -132.5 52t-129.5 214l-60 125l-395 -401q-2 -2 -5 -2q-9 0 -32 12q-36 19 -36 56z" />
<glyph unicode="y" horiz-adv-x="1019" d="M-158 -313q0 20 12.5 37.5t26 26.5t17.5 5q18 -23 53 -38t59 -15q63 0 133 62.5t189 236.5l33 47q-61 8 -72 88l-57 539q-10 106 -47 153.5t-107 47.5q-2 0 -2 11t3 26.5t12 31t32 26.5t57 11q53 0 90 -37q74 -74 93 -282l49 -543l520 854h145l-620 -1000 q-145 -231 -238.5 -312t-204.5 -81q-104 0 -151 47q-25 25 -25 58z" />
<glyph unicode="z" horiz-adv-x="1038" d="M20 0v100l811 760h-548q-70 0 -70 47q0 12 6 28.5t12.5 28t8.5 11.5h764v-101l-811 -759h567q70 0 69 -47q0 -12 -6 -28.5t-12 -28t-8 -11.5h-783z" />
<glyph unicode="{" horiz-adv-x="909" d="M84 446q0 76 39 115q18 18 82 43l147 58q74 328 254 507q162 162 330 162q27 0 46 -15.5t19 -43.5q0 -12 -6 -25.5t-12 -20.5t-8 -7q-70 -4 -151 -43t-138 -97q-78 -78 -126 -193.5t-91 -305.5l-266 -105l213 -153q-19 -116 -19 -211q0 -230 109 -340q53 -53 141 -78 q12 -6 12 -37q0 -66 -67 -66q-90 0 -178 88q-153 153 -154 435q0 72 10 151l-118 86q-43 31 -55.5 49t-12.5 47z" />
<glyph unicode="|" horiz-adv-x="567" d="M43 -332l340 1602q14 63 74 63h12q29 0 41 -19q7 -12 7 -28q0 -11 -3 -24l-340 -1602q-14 -63 -74 -63h-12q-49 0 -48 44q0 12 3 27z" />
<glyph unicode="}" horiz-adv-x="909" d="M-104 -350q0 12 6 25.5t12 20.5t8 7q70 4 151 43t138 96q78 78 126 194t91 306l266 104l-213 154q19 116 19 211q0 230 -109 340q-53 53 -141 78q-12 6 -12 37q0 66 67 65q90 0 178 -88q153 -153 154 -434q0 -72 -10 -152l118 -86q43 -31 55.5 -49t12.5 -47 q0 -76 -39 -115q-18 -18 -82 -43l-147 -57q-74 -328 -254 -508q-162 -162 -330 -162q-27 0 -46 15.5t-19 44.5z" />
<glyph unicode="~" horiz-adv-x="1093" d="M240 385q0 70 51 133.5t112 63.5q51 0 129 -44t156 -120q63 150 110.5 149.5t47.5 -41.5q0 -70 -51.5 -133t-112.5 -63q-51 0 -129 44t-156 120q-63 -150 -110 -150t-47 41z" />
<glyph unicode="&#xa1;" horiz-adv-x="575" d="M94 0l248 922q10 41 35 41q31 0 39 -12.5t4 -45.5l-144 -905h-182zM346 1204q0 74 33 107q27 27 76 26q98 0 98 -69q0 -74 -33 -107q-27 -27 -76 -26q-98 -1 -98 69z" />
<glyph unicode="&#xa2;" horiz-adv-x="1173" d="M154 518q0 225 160.5 396t387.5 173l41 195q14 63 58 64h12q53 0 53 -45q0 -9 -2 -19l-43 -205q135 -27 223 -112q82 -82 82 -168q0 -39 -24.5 -60.5t-47 -19.5t-26.5 4q-16 92 -77.5 156.5t-157.5 85.5l-166 -779h2q199 0 317 187q2 4 20.5 -1t37 -21.5t18.5 -41.5 q0 -47 -64 -110q-55 -55 -146 -93t-196 -38h-10l-43 -203q-14 -63 -57 -64h-12q-53 0 -54 45q0 9 2 19l45 217q-150 37 -241.5 151.5t-91.5 286.5zM291 526q0 -123 61.5 -210t167.5 -117l162 770q-170 -10 -280.5 -143.5t-110.5 -299.5z" />
<glyph unicode="&#xa3;" horiz-adv-x="1183" d="M20 35q0 47 27 78q12 14 53 14h109l119 412h-162q-61 0 -62 34q0 47 25 72q16 16 51 17h182l66 231q70 248 171 352.5t265 104.5t258 -95q66 -66 66 -135q0 -41 -23.5 -64.5t-45.5 -23.5h-25q-45 199 -238 199q-102 0 -170 -80t-125 -277l-61 -212h338q61 0 61 -35 q0 -47 -25 -72q-16 -16 -51 -16h-358l-119 -412h635q78 0 78 -51q0 -14 -7.5 -32.5t-14.5 -31t-9 -12.5h-944q-64 0 -64 35z" />
<glyph unicode="&#xa4;" horiz-adv-x="1351" d="M109 479q0 47 24 72q14 14 49 14h133q14 111 41 205h-118q-59 0 -60 33q0 47 25 71q14 14 49 15h145q74 190 181 297q164 164 395 164q190 0 307 -117q72 -72 72 -164q0 -37 -23.5 -61.5t-45 -25.5t-26.5 1q-59 250 -301 250q-164 0 -284 -121q-80 -80 -140 -223h443 q59 0 59 -33q0 -47 -24 -72q-14 -14 -49 -14h-469q-27 -106 -37 -205h450q59 0 60 -33q0 -47 -25 -71q-14 -14 -49 -15h-440q10 -156 98 -254t231 -98q199 0 336 201q2 4 18.5 -2t32 -24.5t15.5 -41.5q0 -51 -66 -116q-57 -57 -148 -96.5t-184 -39.5q-223 0 -344 126 t-129 345h-143q-59 0 -59 33z" />
<glyph unicode="&#xa5;" d="M119 272q0 47 24 72q14 14 50 14h331l35 164h-321q-59 0 -60 33q0 47 25 72q14 14 49 14h293l-266 647q-2 6 9 16.5t30.5 19.5t39.5 9q55 0 76 -57l221 -588l508 649q1 1 4 1q5 0 19 -3q20 -4 40.5 -22.5t20.5 -48.5q0 -37 -59 -109l-428 -514h278q59 0 60 -33 q0 -47 -25 -71q-14 -14 -49 -15h-336l-35 -164h326q59 0 59 -32q0 -47 -24 -72q-14 -14 -49 -14h-336l-39 -185q-14 -63 -76 -63h-6q-48 0 -48 41q0 10 3 22l37 185h-322q-59 -1 -59 32z" />
<glyph unicode="&#xa7;" horiz-adv-x="1134" d="M-16 -72q0 31 20.5 54.5t41 32t22.5 3.5q98 -227 395 -227q139 0 213 53.5t74 145.5q0 47 -41 86t-78 56.5t-135 53.5l-31 13q-82 29 -126 48t-101.5 56t-84 86t-26.5 115q0 119 78 194.5t196 102.5q-131 86 -131 225q0 143 116 233.5t308 90.5q238 0 363 -125 q57 -57 57 -111q0 -31 -20.5 -52.5t-42 -29.5t-23.5 -2q-96 201 -344 201q-129 0 -204 -52.5t-75 -134.5q0 -29 8.5 -52t34 -45.5t41 -35t62.5 -34t64.5 -27.5t78.5 -31l99.5 -39t84 -41.5t78 -55.5t45 -68t21.5 -91q0 -125 -77 -201.5t-197 -99.5q137 -78 137 -217 q0 -152 -116 -243t-316 -91q-272 0 -406 133q-63 64 -63 123zM260 532q0 -37 17.5 -66.5t37 -49t66.5 -42t75 -32.5l95 -35l72 -26q109 4 187.5 65.5t78.5 151.5q0 39 -19.5 70.5t-56.5 54t-80 40t-100 37.5q-16 6 -25 9q-31 10 -92 34q-111 -14 -183.5 -69.5t-72.5 -141.5z " />
<glyph unicode="&#xa8;" horiz-adv-x="1093" d="M428 1200q0 49 27.5 84t76.5 35q100 0 101 -78q0 -49 -27.5 -84t-77.5 -35q-100 0 -100 78zM772 1200q0 49 27.5 84t77.5 35q100 0 100 -78q0 -49 -27.5 -84t-77.5 -35q-100 0 -100 78z" />
<glyph unicode="&#xa9;" horiz-adv-x="1619" d="M174 659q0 297 192.5 494t481.5 197q295 0 483.5 -192.5t188.5 -491.5q0 -297 -192.5 -494t-481.5 -197q-295 0 -483.5 192.5t-188.5 491.5zM285 664q0 -254 160.5 -422t404.5 -168q248 0 403.5 163.5t155.5 424.5q0 254 -161 421.5t-404 167.5q-248 0 -403.5 -163.5 t-155.5 -423.5zM502 659q0 156 104.5 261.5t255.5 105.5q147 0 234 -86q39 -39 39 -78q0 -20 -16.5 -37.5t-34 -23.5t-19.5 -2q-61 113 -205 112q-94 0 -163.5 -72.5t-69.5 -176.5q0 -109 69.5 -180.5t171.5 -71.5q150 0 205 122q2 4 19.5 -1t35 -22t17.5 -40q0 -39 -49 -90 q-80 -84 -232 -84q-160 0 -261 102t-101 262z" />
<glyph unicode="&#xaa;" horiz-adv-x="1067" d="M170 860q0 188 128 340t314 152q94 0 166 -43t105 -117l6 22q14 68 37.5 95.5t64.5 27.5q12 0 23.5 -3t17.5 -7t6 -6l-129 -602q-6 -27 -5 -48q0 -23 7 -36q14 -25 66 -27q4 0 1 -18.5t-23.5 -36.5t-59.5 -18q-118 0 -118 119q0 20 3 42q-106 -168 -299 -168 q-133 0 -222 88t-89 244zM295 866q0 -106 60.5 -167.5t150.5 -61.5q115 0 206 84t115 203l27 127q-57 195 -244 194q-139 0 -227 -117t-88 -262zM319 51q0 61 29 94q23 25 70 25q88 0 88 -63.5t-31 -94.5q-25 -25 -67 -24q-89 0 -89 63z" />
<glyph unicode="&#xab;" horiz-adv-x="1107" d="M139 524q0 6 23.5 32t68.5 67t97 79q156 119 225 119q47 0 47 -49q0 -63 -186 -178q-139 -88 -154 -96q63 -49 131 -111q78 -72 106.5 -105.5t30.5 -62.5q2 -18 -14 -32.5t-39 -14.5q-80 0 -196 143q-53 66 -96.5 131.5t-43.5 77.5zM545 502q0 10 67.5 72.5t147.5 121.5 q168 129 239 129q47 0 48 -49q0 -31 -62.5 -88t-153.5 -113q-6 -4 -68.5 -42.5t-96.5 -57.5q61 -49 112 -96q66 -61 90.5 -92t24.5 -60q0 -18 -16.5 -32.5t-38.5 -14.5q-74 0 -174 127q-45 57 -82 119t-37 76z" />
<glyph unicode="&#xad;" horiz-adv-x="819" d="M135 434v123h555v-123h-555z" />
<glyph unicode="&#xae;" horiz-adv-x="1619" d="M174 659q0 297 192.5 494t481.5 197q295 0 483.5 -192.5t188.5 -491.5q0 -297 -192.5 -494t-481.5 -197q-295 0 -483.5 192.5t-188.5 491.5zM285 664q0 -254 160.5 -422t404.5 -168q248 0 403.5 163.5t155.5 424.5q0 254 -161 421.5t-404 167.5q-248 0 -403.5 -163.5 t-155.5 -423.5zM590 375v575q0 33 18.5 51.5t46.5 18.5h217q274 0 275 -219q0 -102 -62.5 -153.5t-150.5 -57.5l199 -230q4 -4 -4.5 -16t-26 -23.5t-37.5 -11.5q-49 0 -84 45l-178 226h-90v-213q0 -57 -54 -58h-16q-53 0 -53 66zM711 682h164q72 0 110.5 30.5t38.5 86.5 q0 117 -156 116h-157v-233z" />
<glyph unicode="&#xaf;" horiz-adv-x="1093" d="M410 1200q0 45 24 74q14 16 53 16h451q63 0 63 -37q0 -45 -24 -73q-14 -16 -53 -17h-451q-63 0 -63 37z" />
<glyph unicode="&#xb0;" horiz-adv-x="864" d="M211 991q0 152 105.5 258.5t250.5 106.5q121 0 200 -77t79 -202q0 -152 -105.5 -258t-251.5 -106q-121 0 -199.5 76.5t-78.5 201.5zM326 999q0 -76 52 -128t132 -52q90 0 155.5 73t65.5 177q0 76 -52 128t-132 52q-90 0 -155.5 -73t-65.5 -177z" />
<glyph unicode="&#xb1;" horiz-adv-x="1298" d="M168 276q0 51 27 78q14 14 51 15h737q63 0 64 -33q0 -51 -27 -78q-14 -14 -51 -14h-738q-63 -1 -63 32zM315 874q0 47 25 72q14 14 49 15h297l62 292q14 63 59 64h16q51 0 51 -44q0 -9 -2 -20l-61 -292h283q59 0 59 -33q0 -47 -25 -72q-14 -14 -49 -14h-295l-61 -295 q-14 -63 -59 -64h-17q-51 0 -51 44q0 9 2 20l61 295h-284q-60 -1 -60 32z" />
<glyph unicode="&#xb2;" horiz-adv-x="757" d="M154 848q61 63 213 115q82 29 117.5 45t64.5 45.5t29 72.5q0 47 -41 76t-107 29q-121 0 -178 -125q-2 -4 -20.5 -1t-37 19.5t-18.5 44.5q0 47 47 95q82 78 221 77q119 0 188.5 -56t69.5 -152q0 -104 -66.5 -157.5t-203.5 -98.5q-156 -53 -196 -97q-35 -35 -43 -88h358 q70 0 70 -45q0 -12 -6.5 -28.5t-12.5 -25.5t-8 -9h-469q-23 0 -37 23q-13 21 -12 49q0 109 78 192z" />
<glyph unicode="&#xb3;" horiz-adv-x="757" d="M59 735q0 35 20.5 55.5t41 23.5t22.5 -1q23 -139 191 -139q82 0 126 40t44 101q0 49 -36 78t-103 29h-43q-49 0 -49.5 34.5t18.5 51.5q12 14 53 14h51q164 0 164 115q0 45 -40 72.5t-99 27.5q-123 0 -182 -104q-2 -2 -19.5 1t-34 17t-16.5 39q0 39 35 70q78 82 225 81 q106 0 183 -53t77 -135q0 -154 -170 -190q115 -41 115 -154q0 -98 -74 -169t-227.5 -71t-227.5 74q-45 43 -45 92z" />
<glyph unicode="&#xb4;" horiz-adv-x="1093" d="M539 1128.5q-4 6.5 40 51.5t117.5 107.5t137.5 98.5q49 31 94 31q27 0 43 -16.5t16 -40.5q0 -49 -84 -98q-70 -41 -158 -76t-145 -49.5t-61 -8z" />
<glyph unicode="&#xb6;" horiz-adv-x="1273" d="M170 901q0 190 123 307t391 117h244q45 0 65 -25q14 -16 14 -40q0 -12 -3 -27l-250 -1178q-14 -63 -70 -63h-18q-52 0 -53 46q0 11 3 25l113 531h-113q-217 0 -331.5 77.5t-114.5 229.5zM874 63l256 1207q14 63 70 63h19q52 0 52 -46q0 -11 -3 -25l-256 -1207 q-14 -63 -70 -63h-18q-52 0 -53 46q0 11 3 25z" />
<glyph unicode="&#xb7;" horiz-adv-x="522" d="M162 467q0 74 33 106q27 27 75 27q98 0 99 -70q0 -74 -33 -106q-27 -27 -76 -27q-98 0 -98 70z" />
<glyph unicode="&#xb8;" horiz-adv-x="1093" d="M199 -438l219 342q1 2 7 2q8 0 25 -3q30 -5 58.5 -24.5t28.5 -48.5q0 -45 -45 -92l-232 -217q-5 -5 -11 -5q-12 0 -30 13q-22 16 -22 27q0 3 2 6z" />
<glyph unicode="&#xb9;" horiz-adv-x="757" d="M100 664q14 31 62 30h141l105 471q-45 -45 -109 -45q-45 0 -71.5 22.5t-26.5 59.5q0 25 12 45.5t23.5 28.5t13.5 6q31 -47 86 -47q37 0 72.5 27.5t50.5 70.5h51q47 0 47 -43q0 -9 -2 -20l-129 -576h129q27 0 40 -12q12 -11 11 -27v-6q0 -23 -12 -35q-10 -31 -59 -30h-394 q-52 0 -51 36q-1 29 10 44z" />
<glyph unicode="&#xba;" horiz-adv-x="976" d="M180 891q0 186 126 322.5t315 136.5q158 0 261 -100.5t103 -262.5q0 -186 -126 -323.5t-316 -137.5q-156 0 -259.5 100.5t-103.5 264.5zM305 51q0 61 29 94q23 25 69 25q88 0 88.5 -63.5t-30.5 -94.5q-25 -25 -68 -24q-88 0 -88 63zM305 893q0 -111 70.5 -184.5 t173.5 -73.5q131 0 221 103.5t90 244.5q0 111 -70.5 184.5t-175.5 73.5q-131 0 -220 -103.5t-89 -244.5z" />
<glyph unicode="&#xbb;" horiz-adv-x="1107" d="M66 219q0 31 62 88.5t153 112.5q6 4 68.5 43t96.5 57q-61 49 -112 96q-66 61 -90.5 92t-24.5 60q0 18 16.5 32.5t38.5 14.5q74 0 175 -127q45 -57 81.5 -118.5t36.5 -75.5q0 -10 -67.5 -73t-147.5 -122q-168 -129 -239 -129q-47 0 -47 49zM512 223q0 63 186 178l154 97 q-63 49 -131 110q-78 72 -106.5 106t-30.5 62q-2 18 14 32.5t39 14.5q80 0 197 -143q53 -66 96 -131.5t43 -77.5q0 -6 -23.5 -31.5t-68.5 -66.5t-97 -80q-156 -119 -225 -119q-47 0 -47 49z" />
<glyph unicode="&#xbc;" horiz-adv-x="1691" d="M100 664q14 31 62 30h141l105 471q-45 -45 -109 -45q-45 0 -71.5 22.5t-26.5 59.5q0 25 12 45.5t23.5 28.5t13.5 6q31 -47 86 -47q37 0 72.5 27.5t50.5 70.5h51q47 0 47 -43q0 -9 -2 -20l-129 -576h129q27 0 40 -12t11 -33q0 -23 -12 -35q-10 -31 -59 -30h-394 q-52 0 -51 36q-1 29 10 44zM226 58q13 19 55 61q23 25 105 104l219 211l212 205l682 655q6 -2 16.5 -6t23.5 -20.5t9 -38.5q-8 -41 -73 -109l-539 -522l-676 -653q-1 -1 -4 -2q-5 0 -14 5q-14 7 -27 24q-9 13 -9 28q0 28 20 58zM1012 272q0 39 51 99l313 321 q31 35 53.5 46.5t65.5 11.5q89 0 89 -65q0 -12 -3 -28l-76 -356h72q51 0 51 -35t-20 -59q-14 -12 -45 -12h-80l-31 -140q-10 -61 -57 -61h-17q-49 0 -48 39q0 11 3 24l27 138h-309q-4 0 -13.5 10t-17.5 28.5t-8 38.5zM1126 299h263l73 348z" />
<glyph unicode="&#xbd;" horiz-adv-x="1691" d="M100 664q14 31 62 30h141l105 471q-45 -45 -109 -45q-45 0 -71.5 22.5t-26.5 59.5q0 25 12 45.5t23.5 28.5t13.5 6q31 -47 86 -47q37 0 72.5 27.5t50.5 70.5h51q47 0 47 -43q0 -9 -2 -20l-129 -576h129q27 0 40 -12t11 -33q0 -23 -12 -35q-10 -31 -59 -30h-394 q-52 0 -51 36q-1 29 10 44zM165 58q13 19 54 61q23 25 106 104l219 211l212 205l682 655q6 -2 16 -6t23.5 -20.5t9.5 -38.5q-8 -41 -74 -109l-539 -522l-675 -653q-1 -1 -5 -2q-5 0 -14 5q-14 7 -26 24q-9 13 -10 28q1 28 21 58zM1087 264q61 63 213 115q82 29 118 45 t64.5 46t28.5 73q0 47 -40.5 75.5t-106.5 28.5q-121 0 -178 -125q-2 -4 -20.5 -1t-37 19.5t-18.5 45.5q0 47 47 94q82 78 221 78q119 0 188.5 -56.5t69.5 -152.5q0 -104 -66.5 -157.5t-203.5 -98.5q-156 -53 -197 -96q-35 -35 -43 -88h359q70 0 69 -46q0 -12 -6 -28.5 t-12 -25.5t-8 -9h-469q-23 0 -37 24q-13 21 -13 48q0 109 78 192z" />
<glyph unicode="&#xbe;" horiz-adv-x="1691" d="M59 735q0 35 20.5 55.5t41 23.5t22.5 -1q23 -139 191 -139q82 0 126 40t44 101q0 49 -36 78t-103 29h-43q-49 0 -49.5 34.5t18.5 51.5q12 14 53 14h51q164 0 164 115q0 45 -40 72.5t-99 27.5q-123 0 -182 -104q-2 -2 -19.5 1t-34 17t-16.5 39q0 39 35 70q78 82 225 81 q106 0 183 -53t77 -135q0 -154 -170 -190q115 -41 115 -154q0 -98 -74 -169t-227.5 -71t-227.5 74q-45 43 -45 92zM226 58q13 19 55 61q23 25 105 104l219 211l212 205l682 655q6 -2 16.5 -6t23.5 -20.5t9 -38.5q-8 -41 -73 -109l-539 -522l-676 -653q-1 -1 -4 -2 q-5 0 -14 5q-14 7 -27 24q-9 13 -9 28q0 28 20 58zM1012 272q0 39 51 99l313 321q31 35 53.5 46.5t65.5 11.5q89 0 89 -65q0 -12 -3 -28l-76 -356h72q51 0 51 -35t-20 -59q-14 -12 -45 -12h-80l-31 -140q-10 -61 -57 -61h-17q-49 0 -48 39q0 11 3 24l27 138h-309 q-4 0 -13.5 10t-17.5 28.5t-8 38.5zM1126 299h263l73 348z" />
<glyph unicode="&#xbf;" horiz-adv-x="1017" d="M53 332q0 258 324 364q117 37 161 77t62 118l16 67h132l-19 -86q-23 -109 -80 -167t-184 -103q-143 -49 -209 -106.5t-66 -163.5q0 -100 74 -169t201 -69q113 0 192.5 68.5t122.5 181.5q2 6 23.5 0t43 -25.5t21.5 -48.5q0 -82 -86 -168q-131 -131 -325 -131 q-182 0 -293 102.5t-111 258.5zM606 1200q0 74 33 107q27 27 76 26q98 0 98 -69q0 -74 -33 -107q-27 -27 -75 -27q-99 0 -99 70z" />
<glyph unicode="&#xc0;" horiz-adv-x="1316" d="M-51 0l768 1292q29 47 88 47q84 0 96 -61l256 -1278h-145l-80 432h-574l-247 -432h-162zM430 555h477l-116 625zM545 1731q0 25 20.5 42t44.5 17q41 0 92 -43q55 -45 109.5 -109.5t84.5 -109.5q25 -37 25 -48q0 -2 -1 -3q-2 -2 -7 -2q-13 0 -51 13q-51 17 -124.5 56 t-131.5 86q-61 52 -61 101z" />
<glyph unicode="&#xc1;" horiz-adv-x="1316" d="M-51 0l768 1292q29 47 88 47q84 0 96 -61l256 -1278h-145l-80 432h-574l-247 -432h-162zM430 555h477l-116 625zM731 1478q0 9 40 50q44 45 118 107.5t137 99.5q49 31 94 30q27 0 43.5 -16t16.5 -41q0 -49 -84 -98q-70 -41 -158 -76t-145 -49q-40 -10 -55 -10q-7 0 -7 3z " />
<glyph unicode="&#xc2;" horiz-adv-x="1316" d="M-51 0l768 1292q29 47 88 47q84 0 96 -61l256 -1278h-145l-80 432h-574l-247 -432h-162zM430 555h477l-116 625zM557 1507q0 61 137 176q41 35 87 69t73 51.5t31 17.5t23.5 -18.5t49 -50.5t54.5 -62q80 -104 80 -158q0 -59 -50 -59q-25 0 -49 27.5t-65 96.5l-60 105 l-104 -109q-117 -121 -168 -120q-39 -1 -39 34z" />
<glyph unicode="&#xc3;" horiz-adv-x="1316" d="M-51 0l768 1292q29 47 88 47q84 0 96 -61l256 -1278h-145l-80 432h-574l-247 -432h-162zM430 555h477l-116 625zM537 1526q0 70 51 133t112 63q51 0 129 -44t156 -119q63 150 110.5 149.5t47.5 -41.5q0 -70 -51.5 -133.5t-112.5 -63.5q-51 0 -129 44.5t-156 119.5 q-63 -150 -110 -149.5t-47 41.5z" />
<glyph unicode="&#xc4;" horiz-adv-x="1316" d="M-51 0l768 1292q29 47 88 47q84 0 96 -61l256 -1278h-145l-80 432h-574l-247 -432h-162zM430 555h477l-116 625zM559 1548q0 49 27.5 84t77.5 35q100 0 100 -78q0 -49 -27.5 -84t-77.5 -35q-100 0 -100 78zM903 1548q0 49 27.5 84t77.5 35q100 0 100 -78q0 -49 -27.5 -84 t-76.5 -35q-101 0 -101 78z" />
<glyph unicode="&#xc5;" horiz-adv-x="1316" d="M10 68q0 33 39 100l633 1065l18 27q-104 55 -104 178q0 111 76 192.5t190 81.5q98 0 160.5 -58.5t62.5 -148.5q0 -86 -50 -159.5t-130 -100.5q6 -12 8 -31l238 -1179q2 -6 -8 -15.5t-29.5 -17.5t-40.5 -8q-59 0 -74 76l-67 362h-574l-252 -438q-4 2 -25 -1q-3 0 -6 -1 q-19 0 -40 17q-25 20 -25 59zM430 555h477l-116 625zM700 1446q0 -51 35 -87t88 -36q70 0 114 53.5t44 120.5q0 51 -35 87t-88 36q-70 0 -114 -53t-44 -121z" />
<glyph unicode="&#xc6;" horiz-adv-x="1802" d="M13 39q-4 9 -4 21q0 37 40 108l645 1085q43 72 117 72h995q-2 -10 -6 -35l-8 -40q-6 -30 -8 -38l-4 -14h-862l92 -457h538l-6 -32l-8 -39t-8 -37l-4 -15h-488l99 -491h450q-2 -10 -6 -35l-8 -40q-6 -30 -8 -38l-5 -14h-448q-53 0 -78.5 19.5t-34.5 70.5l-63 342h-574 l-252 -438q-3 -3 -10 -3q-11 0 -30 5q-36 8 -53 43zM430 555h477l-116 625z" />
<glyph unicode="&#xc7;" horiz-adv-x="1400" d="M160 547q0 330 213 566.5t524 236.5q250 0 395 -146q86 -86 86 -164q0 -33 -20.5 -54t-42 -26.5t-29.5 1.5q-98 268 -395 268q-248 0 -416 -194.5t-168 -467.5q0 -215 124 -342t325 -127q283 0 424 215q2 4 19.5 -3t33.5 -25.5t16 -44.5q0 -49 -59 -109 q-66 -66 -182.5 -111t-249.5 -45q-272 0 -435 155t-163 417zM496 -438l219 342q1 2 7 2q8 0 25 -3q30 -5 58.5 -24.5t28.5 -48.5q0 -45 -46 -92l-231 -217q-5 -5 -11 -5q-12 0 -30 13q-22 16 -22 27q0 3 2 6z" />
<glyph unicode="&#xc8;" horiz-adv-x="1249" d="M88 0l264 1241q16 84 97 84h849q-2 -10 -6 -35q-12 -45 -16 -78l-4 -14h-789l-98 -457h641q-2 -10 -8 -32l-17 -76l-2 -15h-641l-104 -491h799q-2 -10 -9 -35l-16 -78l-2 -14h-938zM614 1731q0 25 20.5 42t45.5 17q41 0 92 -43q55 -45 109.5 -109.5t84.5 -109.5 q25 -37 24 -48q0 -2 -1 -3q-2 -2 -6 -2q-13 0 -51 13q-51 17 -125 56t-131 86q-62 52 -62 101z" />
<glyph unicode="&#xc9;" horiz-adv-x="1249" d="M88 0l264 1241q16 84 97 84h849q-2 -10 -6 -35q-12 -45 -16 -78l-4 -14h-789l-98 -457h641q-2 -10 -8 -32l-17 -76l-2 -15h-641l-104 -491h799q-2 -10 -9 -35l-16 -78l-2 -14h-938zM739 1478q0 9 40 50q44 45 118 107.5t137 99.5q49 31 94 30q27 0 43.5 -16t16.5 -41 q0 -49 -84 -98q-70 -41 -158 -76t-145 -49q-40 -10 -54 -10q-8 0 -8 3z" />
<glyph unicode="&#xca;" horiz-adv-x="1249" d="M88 0l264 1241q16 84 97 84h849q-2 -10 -6 -35q-12 -45 -16 -78l-4 -14h-789l-98 -457h641q-2 -10 -8 -32l-17 -76l-2 -15h-641l-104 -491h799q-2 -10 -9 -35l-16 -78l-2 -14h-938zM606 1507q0 61 137 176q41 35 87.5 69t73 51.5t30.5 17.5t23.5 -18.5t49 -50.5t54.5 -62 q80 -104 80 -158q0 -59 -49 -59q-25 0 -49.5 27.5t-65.5 96.5l-59 105l-105 -109q-117 -121 -168 -120q-39 -1 -39 34z" />
<glyph unicode="&#xcb;" horiz-adv-x="1249" d="M88 0l264 1241q16 84 97 84h849q-2 -10 -6 -35q-12 -45 -16 -78l-4 -14h-789l-98 -457h641q-2 -10 -8 -32l-17 -76l-2 -15h-641l-104 -491h799q-2 -10 -9 -35l-16 -78l-2 -14h-938zM588 1548q0 49 27.5 84t76.5 35q100 0 101 -78q0 -49 -28 -84t-77 -35q-100 0 -100 78z M932 1548q0 49 27.5 84t76.5 35q100 0 101 -78q0 -49 -28 -84t-77 -35q-100 0 -100 78z" />
<glyph unicode="&#xcc;" horiz-adv-x="565" d="M113 0l282 1325h137l-282 -1325h-137zM190 1731q0 25 20.5 42t45.5 17q43 0 92 -43q55 -45 109.5 -109.5t84.5 -109.5q25 -37 24 -48q0 -2 -1 -3q-2 -2 -6 -2q-13 0 -51 13q-51 17 -125 56t-131 86q-62 52 -62 101z" />
<glyph unicode="&#xcd;" horiz-adv-x="565" d="M113 0l282 1325h137l-282 -1325h-137zM397 1478q0 9 40 50q44 45 118 107.5t137 99.5q49 31 94 30q25 0 42.5 -16t17.5 -41q0 -49 -84 -98q-70 -41 -158 -76t-145 -49q-40 -10 -54 -10q-8 0 -8 3z" />
<glyph unicode="&#xce;" horiz-adv-x="565" d="M113 0l282 1325h137l-282 -1325h-137zM223 1507q0 61 137 176q41 35 87.5 69t73 51.5t30.5 17.5t23.5 -18.5t49 -50.5t54.5 -62q80 -104 80 -158q0 -59 -49 -59q-25 0 -49.5 27.5t-65.5 96.5l-59 105l-105 -109q-117 -121 -168 -120q-39 -1 -39 34z" />
<glyph unicode="&#xcf;" horiz-adv-x="565" d="M113 0l282 1325h137l-282 -1325h-137zM225 1548q0 49 28 84t77 35q100 0 100 -78q0 -49 -27.5 -84t-76.5 -35q-101 0 -101 78zM569 1548q0 49 28 84t77 35q100 0 100 -78q0 -49 -27.5 -84t-76.5 -35q-101 0 -101 78z" />
<glyph unicode="&#xd0;" horiz-adv-x="1497" d="M102 637q0 47 25 72q14 14 49 14h141l111 518q12 84 96 84h226q309 0 482 -144.5t173 -406.5q0 -338 -214 -556t-611 -218h-320q-45 0 -65 25q-14 16 -14 41q0 12 3 26l109 512h-131q-60 0 -60 33zM330 123h270q324 0 490.5 179t166.5 452q0 211 -136 329.5t-382 118.5 h-180l-102 -479h432q59 0 59 -33q0 -47 -24 -72q-14 -14 -50 -14h-442z" />
<glyph unicode="&#xd1;" horiz-adv-x="1452" d="M88 0l264 1239q20 94 99 94h34q31 0 49.5 -16.5t38.5 -56.5l496 -1053l240 1118h129l-267 -1249q-18 -84 -90 -84h-14q-49 0 -86 74l-516 1093l-248 -1159h-129zM666 1526q0 70 51 133t112 63q51 0 129 -44t156 -119q63 150 110.5 149.5t47.5 -41.5q0 -70 -51.5 -133.5 t-112.5 -63.5q-51 0 -129 44.5t-156 119.5q-63 -150 -110 -149.5t-47 41.5z" />
<glyph unicode="&#xd2;" horiz-adv-x="1568" d="M160 551q0 340 223 569.5t510 229.5q268 0 429 -162t161 -412q0 -340 -223.5 -569.5t-509.5 -229.5q-268 0 -429 162t-161 412zM307 561q0 -199 122 -331t335 -132q221 0 396 191.5t175 476.5q0 199 -121.5 331t-334.5 132q-221 0 -396.5 -191.5t-175.5 -476.5zM692 1731 q0 25 20.5 42t45.5 17q41 0 92 -43q55 -45 109.5 -109.5t83.5 -109.5q25 -37 25 -48q0 -2 -1 -3q-2 -2 -6 -2q-13 0 -51 13q-51 17 -125 56t-131 86q-62 52 -62 101z" />
<glyph unicode="&#xd3;" horiz-adv-x="1568" d="M160 551q0 340 223 569.5t510 229.5q268 0 429 -162t161 -412q0 -340 -223.5 -569.5t-509.5 -229.5q-268 0 -429 162t-161 412zM307 561q0 -199 122 -331t335 -132q221 0 396 191.5t175 476.5q0 199 -121.5 331t-334.5 132q-221 0 -396.5 -191.5t-175.5 -476.5zM776 1478 q0 9 40 50q44 45 118 107.5t137 99.5q49 31 94 30q27 0 43.5 -16t16.5 -41q0 -49 -84 -98q-70 -41 -158 -76t-145 -49q-40 -10 -55 -10q-7 0 -7 3z" />
<glyph unicode="&#xd4;" horiz-adv-x="1568" d="M160 551q0 340 223 569.5t510 229.5q268 0 429 -162t161 -412q0 -340 -223.5 -569.5t-509.5 -229.5q-268 0 -429 162t-161 412zM307 561q0 -199 122 -331t335 -132q221 0 396 191.5t175 476.5q0 199 -121.5 331t-334.5 132q-221 0 -396.5 -191.5t-175.5 -476.5zM684 1507 q0 61 137 176q41 35 87 69t73 51.5t31 17.5t23.5 -18.5t49 -50.5t54.5 -62q80 -104 80 -158q0 -59 -50 -59q-25 0 -49 27.5t-65 96.5l-60 105l-104 -109q-117 -121 -168 -120q-39 -1 -39 34z" />
<glyph unicode="&#xd5;" horiz-adv-x="1568" d="M160 551q0 340 223 569.5t510 229.5q268 0 429 -162t161 -412q0 -340 -223.5 -569.5t-509.5 -229.5q-268 0 -429 162t-161 412zM307 561q0 -199 122 -331t335 -132q221 0 396 191.5t175 476.5q0 199 -121.5 331t-334.5 132q-221 0 -396.5 -191.5t-175.5 -476.5zM643 1526 q0 70 51 133t113 63q51 0 129 -44t156 -119q63 150 110 149.5t47 -41.5q0 -70 -51 -133.5t-113 -63.5q-51 0 -128.5 44.5t-155.5 119.5q-63 -150 -110.5 -149.5t-47.5 41.5z" />
<glyph unicode="&#xd6;" horiz-adv-x="1568" d="M160 551q0 340 223 569.5t510 229.5q268 0 429 -162t161 -412q0 -340 -223.5 -569.5t-509.5 -229.5q-268 0 -429 162t-161 412zM307 561q0 -199 122 -331t335 -132q221 0 396 191.5t175 476.5q0 199 -121.5 331t-334.5 132q-221 0 -396.5 -191.5t-175.5 -476.5zM686 1548 q0 49 27.5 84t77.5 35q100 0 100 -78q0 -49 -27.5 -84t-77.5 -35q-100 0 -100 78zM1030 1548q0 49 27.5 84t77.5 35q100 0 100 -78q0 -49 -27.5 -84t-77.5 -35q-100 0 -100 78z" />
<glyph unicode="&#xd7;" horiz-adv-x="1173" d="M176 233q0 31 29 54l315 268l-196 264q-20 27 -21 45q0 20 20.5 40t43.5 20q31 0 53 -31l194 -260l308 260q25 23 49 22q18 0 39.5 -23.5t21.5 -39.5q0 -31 -28 -53l-314 -267l199 -266q20 -27 20 -45q0 -20 -20.5 -39.5t-42.5 -19.5q-31 0 -53 31l-197 262l-309 -262 q-25 -23 -49 -23q-18 0 -40 23.5t-22 39.5z" />
<glyph unicode="&#xd8;" horiz-adv-x="1568" d="M29 4q0 53 59 107l154 135q-82 139 -82 305q0 340 223 569.5t510 229.5q252 0 418 -160l211 188q1 1 3 2q5 0 15 -7q14 -9 26.5 -27.5t12.5 -36.5q0 -53 -59 -107l-127 -112q90 -145 90 -314q0 -340 -223.5 -569.5t-509.5 -229.5q-260 0 -428 168l-236 -211q-1 -1 -3 -1 q-5 0 -15 7q-14 9 -26.5 27.5t-12.5 36.5zM307 561q0 -121 47 -225l856 766q-121 127 -331 127q-221 0 -396.5 -191.5t-175.5 -476.5zM422 233q125 -135 342 -135q221 0 396 191.5t175 476.5q0 133 -53 235z" />
<glyph unicode="&#xd9;" horiz-adv-x="1378" d="M195 584l145 686q14 63 70 63h18q52 0 52 -46q0 -11 -3 -25l-145 -689q-18 -86 -18 -155q0 -123 55 -199q86 -119 297 -119q324 0 409 406l162 764q14 63 70 63h16q52 0 52 -46q0 -11 -3 -25l-166 -785q-106 -502 -549 -502q-274 0 -400 157q-84 104 -84 270q1 83 22 182 zM637 1710q0 25 20.5 42t44.5 17q43 0 93 -43q55 -45 109 -109.5t84 -109.5q25 -37 25 -48q0 -2 -1 -3q-2 -2 -7 -1q-13 0 -51 12q-51 17 -124.5 56.5t-131.5 86.5q-61 51 -61 100z" />
<glyph unicode="&#xda;" horiz-adv-x="1378" d="M195 584l145 686q14 63 70 63h18q52 0 52 -46q0 -11 -3 -25l-145 -689q-18 -86 -18 -155q0 -123 55 -199q86 -119 297 -119q324 0 409 406l162 764q14 63 70 63h16q52 0 52 -46q0 -11 -3 -25l-166 -785q-106 -502 -549 -502q-274 0 -400 157q-84 104 -84 270q1 83 22 182 zM721 1457q0 9 40 50q44 45 117.5 107.5t137.5 99.5q49 31 94 31q25 0 42 -16.5t17 -40.5q0 -49 -84 -99q-70 -41 -157.5 -75.5t-145.5 -49.5q-40 -10 -54 -10q-7 0 -7 3z" />
<glyph unicode="&#xdb;" horiz-adv-x="1378" d="M195 584l145 686q14 63 70 63h18q52 0 52 -46q0 -11 -3 -25l-145 -689q-18 -86 -18 -155q0 -123 55 -199q86 -119 297 -119q324 0 409 406l162 764q14 63 70 63h16q52 0 52 -46q0 -11 -3 -25l-166 -785q-106 -502 -549 -502q-274 0 -400 157q-84 104 -84 270q1 83 22 182 zM623 1487q0 61 137 176q41 35 87 68.5t72.5 51t30.5 17.5t23.5 -18.5t49.5 -50t54 -62.5q80 -104 80 -158q0 -59 -49 -59q-25 0 -49.5 27.5t-65.5 97.5l-59 104l-105 -108q-117 -121 -167 -121q-39 0 -39 35z" />
<glyph unicode="&#xdc;" horiz-adv-x="1378" d="M195 584l145 686q14 63 70 63h18q52 0 52 -46q0 -11 -3 -25l-145 -689q-18 -86 -18 -155q0 -123 55 -199q86 -119 297 -119q324 0 409 406l162 764q14 63 70 63h16q52 0 52 -46q0 -11 -3 -25l-166 -785q-106 -502 -549 -502q-274 0 -400 157q-84 104 -84 270q1 83 22 182 zM629 1528q0 49 27.5 84t76.5 35q100 0 101 -78q0 -49 -28 -84t-77 -35q-100 0 -100 78zM973 1528q0 49 27.5 84t76.5 35q100 0 101 -78q0 -49 -28 -84t-77 -35q-100 0 -100 78z" />
<glyph unicode="&#xdd;" horiz-adv-x="1193" d="M225 1325h146l260 -647l559 659q6 6 40 -9t43 -52q1 -4 1 -10q0 -37 -60 -111l-536 -612l-115 -543h-139l119 557zM665 1457q0 9 41 50q44 45 117.5 107.5t137.5 99.5q49 31 94 31q27 0 43 -16.5t16 -40.5q0 -49 -84 -99q-70 -41 -158 -75.5t-145 -49.5q-40 -10 -54 -10 q-8 0 -8 3z" />
<glyph unicode="&#xde;" horiz-adv-x="1212" d="M102 63l256 1207q14 63 70 63h18q52 0 53 -46q0 -11 -3 -25l-41 -189h243q211 0 326 -89t115 -253q0 -223 -137.5 -345t-391.5 -122h-327l-43 -209q-8 -35 -23.5 -49t-46.5 -14h-18q-52 0 -53 46q0 11 3 25zM309 387h328q168 0 263 86t95 240q0 236 -305 235h-262z" />
<glyph unicode="&#xdf;" horiz-adv-x="1146" d="M70 0l204 958q47 227 164 340t283 113q176 0 279.5 -83t103.5 -222q0 -154 -101.5 -244t-306.5 -102q143 -33 234.5 -125t91.5 -221q0 -186 -122 -312.5t-294 -126.5q-160 0 -235 76q-39 39 -39 78q0 27 16.5 49.5t33.5 31.5t19 5q72 -123 213 -123q115 0 194 87t79 222 q0 182 -242 263q-92 31 -92 90q0 43 17.5 71.5t33.5 38.5q188 0 277.5 53.5t89.5 180.5q0 88 -70 140t-182 52q-244 0 -318 -344l-198 -946h-133z" />
<glyph unicode="&#xe0;" d="M100 389q0 236 160 423t393 187q119 0 211 -54t137 -140l37 170h131l-163 -768q-8 -35 -8 -59q0 -28 10 -43q18 -28 86 -29q4 0 1 -23.5t-25.5 -46t-68.5 -22.5q-80 0 -114 50q-25 36 -25 92q0 23 4 50q-66 -98 -165 -149.5t-209 -51.5q-166 0 -279 109.5t-113 304.5z M236 391q0 -137 78.5 -218t193.5 -81q150 0 270.5 110.5t151.5 264.5l35 162q-82 254 -320 254q-182 0 -295.5 -152t-113.5 -340zM463 1382q0 25 20.5 42.5t44.5 17.5q41 0 93 -43q55 -45 109 -109.5t84 -109.5q25 -37 25 -48q0 -2 -1 -4q-2 -2 -7 -1q-13 0 -51 13 q-51 17 -124.5 56t-131.5 86q-61 51 -61 100z" />
<glyph unicode="&#xe1;" d="M100 389q0 236 160 423t393 187q119 0 211 -54t137 -140l37 170h131l-163 -768q-8 -35 -8 -59q0 -28 10 -43q18 -28 86 -29q4 0 1 -23.5t-25.5 -46t-68.5 -22.5q-80 0 -114 50q-25 36 -25 92q0 23 4 50q-66 -98 -165 -149.5t-209 -51.5q-166 0 -279 109.5t-113 304.5z M236 391q0 -137 78.5 -218t193.5 -81q150 0 270.5 110.5t151.5 264.5l35 162q-82 254 -320 254q-182 0 -295.5 -152t-113.5 -340zM608 1130q0 9 40 50q44 45 118 107.5t137 98.5q49 31 94 31q27 0 43.5 -16.5t16.5 -40.5q0 -49 -84 -98q-70 -41 -158 -76t-145 -49 q-40 -10 -54 -10q-8 0 -8 3z" />
<glyph unicode="&#xe2;" d="M100 389q0 236 160 423t393 187q119 0 211 -54t137 -140l37 170h131l-163 -768q-8 -35 -8 -59q0 -28 10 -43q18 -28 86 -29q4 0 1 -23.5t-25.5 -46t-68.5 -22.5q-80 0 -114 50q-25 36 -25 92q0 23 4 50q-66 -98 -165 -149.5t-209 -51.5q-166 0 -279 109.5t-113 304.5z M236 391q0 -137 78.5 -218t193.5 -81q150 0 270.5 110.5t151.5 264.5l35 162q-82 254 -320 254q-182 0 -295.5 -152t-113.5 -340zM475 1159q0 61 137 176q41 35 87 69t73 51.5t31 17.5t23.5 -18.5t49 -50.5t54.5 -63q80 -104 80 -157q0 -59 -49 -60q-25 0 -49.5 28t-65.5 97 l-60 105l-104 -109q-117 -121 -168 -121q-39 0 -39 35z" />
<glyph unicode="&#xe3;" d="M100 389q0 236 160 423t393 187q119 0 211 -54t137 -140l37 170h131l-163 -768q-8 -35 -8 -59q0 -28 10 -43q18 -28 86 -29q4 0 1 -23.5t-25.5 -46t-68.5 -22.5q-80 0 -114 50q-25 36 -25 92q0 23 4 50q-66 -98 -165 -149.5t-209 -51.5q-166 0 -279 109.5t-113 304.5z M236 391q0 -137 78.5 -218t193.5 -81q150 0 270.5 110.5t151.5 264.5l35 162q-82 254 -320 254q-182 0 -295.5 -152t-113.5 -340zM455 1178q0 70 51 133t112 63q51 0 129 -44t156 -120q63 150 110.5 150t47.5 -41q0 -70 -51.5 -133.5t-112.5 -63.5q-51 0 -129 44t-156 120 q-63 -150 -110 -149.5t-47 41.5z" />
<glyph unicode="&#xe4;" d="M100 389q0 236 160 423t393 187q119 0 211 -54t137 -140l37 170h131l-163 -768q-8 -35 -8 -59q0 -28 10 -43q18 -28 86 -29q4 0 1 -23.5t-25.5 -46t-68.5 -22.5q-80 0 -114 50q-25 36 -25 92q0 23 4 50q-66 -98 -165 -149.5t-209 -51.5q-166 0 -279 109.5t-113 304.5z M236 391q0 -137 78.5 -218t193.5 -81q150 0 270.5 110.5t151.5 264.5l35 162q-82 254 -320 254q-182 0 -295.5 -152t-113.5 -340zM477 1200q0 49 27.5 84t77.5 35q100 0 100 -78q0 -49 -27.5 -84t-76.5 -35q-101 0 -101 78zM821 1200q0 49 28 84t77 35q100 0 100 -78 q0 -49 -27.5 -84t-76.5 -35q-101 0 -101 78z" />
<glyph unicode="&#xe5;" d="M100 389q0 236 160 423t393 187q119 0 211 -54t137 -140l37 170h131l-163 -768q-8 -35 -8 -59q0 -28 10 -43q18 -28 86 -29q4 0 1 -23.5t-25.5 -46t-68.5 -22.5q-80 0 -114 50q-25 36 -25 92q0 23 4 50q-66 -98 -165 -149.5t-209 -51.5q-166 0 -279 109.5t-113 304.5z M236 391q0 -137 78.5 -218t193.5 -81q150 0 270.5 110.5t151.5 264.5l35 162q-82 254 -320 254q-182 0 -295.5 -152t-113.5 -340zM539 1333q0 111 75.5 193t190.5 82q98 0 160.5 -58.5t62.5 -148.5q0 -111 -75.5 -193t-190.5 -82q-98 0 -160.5 58.5t-62.5 148.5zM643 1341 q0 -51 35 -86.5t88 -35.5q70 0 114 53t44 121q0 51 -35 87t-88 36q-70 0 -114 -53.5t-44 -121.5z" />
<glyph unicode="&#xe6;" horiz-adv-x="1806" d="M61 219q0 186 168 270t580 93h20l2 8q8 40 9 75q0 84 -48 138q-69 76 -223 76q-215 0 -317 -152q-2 -2 -15.5 5t-27.5 25.5t-14 41.5q0 63 103 131.5t286 68.5q150 0 247 -63.5t119 -179.5q162 244 459 243q162 0 255 -70.5t93 -187.5q0 -156 -127 -233.5t-440 -77.5 q-109 0 -258 12q-2 -20 -2 -61q0 -133 75.5 -212t217.5 -79q209 0 329 162q2 4 19.5 -2t34 -22.5t16.5 -39.5q0 -41 -45 -86q-127 -127 -358 -127q-154 0 -250.5 63.5t-132.5 174.5q-63 -113 -174 -175.5t-261 -62.5q-156 0 -248 65.5t-92 178.5zM197 229q0 -61 62.5 -101 t160.5 -40q133 0 234.5 80t129.5 201l25 108l-59 -2q-219 -6 -341 -35.5t-167 -79t-45 -131.5zM961 555q98 -12 217 -12q444 0 444 196q0 59 -57.5 101.5t-161.5 42.5q-150 0 -270.5 -92.5t-171.5 -235.5z" />
<glyph unicode="&#xe7;" horiz-adv-x="1130" d="M98 428q0 227 162 398t391 171q215 0 338 -123q82 -82 82 -167q0 -39 -24.5 -60.5t-47 -19.5t-26.5 4q-20 111 -103.5 179.5t-214.5 68.5q-180 0 -299.5 -134.5t-119.5 -308.5q0 -152 92 -246t245 -94q201 0 318 185q2 4 20.5 -1.5t37 -21.5t18.5 -41q0 -47 -64 -111 q-55 -55 -146 -93t-196 -38q-199 0 -331 123t-132 330zM299 -438l219 342q1 2 7 2q8 0 25 -3q30 -5 58.5 -24.5t28.5 -48.5q0 -45 -45 -92l-232 -217q-5 -5 -11 -5q-12 0 -30 13q-22 16 -22 27q0 3 2 6z" />
<glyph unicode="&#xe8;" horiz-adv-x="1103" d="M92 373q0 264 177 445t438 181q162 0 255 -70.5t93 -187.5q0 -156 -127 -233.5t-441 -77.5q-106 0 -258 12q-2 -20 -2 -61q0 -133 76 -212t217 -79q209 0 330 162q2 4 19.5 -2t34 -22.5t16.5 -39.5q0 -41 -46 -86q-127 -127 -358 -127q-203 0 -313.5 110t-110.5 288z M258 555q98 -12 217 -12q444 0 445 196q0 59 -57.5 101.5t-162.5 42.5q-150 0 -270.5 -92.5t-171.5 -235.5zM444 1382q0 25 20.5 42.5t45.5 17.5q43 0 92 -43q55 -45 109.5 -109.5t84.5 -109.5q25 -37 24 -48q0 -2 -1 -4q-2 -2 -6 -1q-13 0 -51 13q-51 17 -125 56t-131 86 q-62 51 -62 100z" />
<glyph unicode="&#xe9;" horiz-adv-x="1103" d="M92 373q0 264 177 445t438 181q162 0 255 -70.5t93 -187.5q0 -156 -127 -233.5t-441 -77.5q-106 0 -258 12q-2 -20 -2 -61q0 -133 76 -212t217 -79q209 0 330 162q2 4 19.5 -2t34 -22.5t16.5 -39.5q0 -41 -46 -86q-127 -127 -358 -127q-203 0 -313.5 110t-110.5 288z M258 555q98 -12 217 -12q444 0 445 196q0 59 -57.5 101.5t-162.5 42.5q-150 0 -270.5 -92.5t-171.5 -235.5zM589 1130q0 9 41 50q44 45 117.5 107.5t137.5 98.5q49 31 94 31q25 0 42 -16.5t17 -40.5q0 -49 -84 -98q-70 -41 -157.5 -76t-145.5 -49q-40 -10 -54 -10q-8 0 -8 3 z" />
<glyph unicode="&#xea;" horiz-adv-x="1103" d="M92 373q0 264 177 445t438 181q162 0 255 -70.5t93 -187.5q0 -156 -127 -233.5t-441 -77.5q-106 0 -258 12q-2 -20 -2 -61q0 -133 76 -212t217 -79q209 0 330 162q2 4 19.5 -2t34 -22.5t16.5 -39.5q0 -41 -46 -86q-127 -127 -358 -127q-203 0 -313.5 110t-110.5 288z M258 555q98 -12 217 -12q444 0 445 196q0 59 -57.5 101.5t-162.5 42.5q-150 0 -270.5 -92.5t-171.5 -235.5zM477 1159q0 61 137 176q41 35 87.5 69t73 51.5t30.5 17.5t23.5 -18.5t49 -50.5t54.5 -63q80 -104 80 -157q0 -59 -49 -60q-25 0 -49.5 28t-65.5 97l-60 105 l-104 -109q-117 -121 -168 -121q-39 0 -39 35z" />
<glyph unicode="&#xeb;" horiz-adv-x="1103" d="M92 373q0 264 177 445t438 181q162 0 255 -70.5t93 -187.5q0 -156 -127 -233.5t-441 -77.5q-106 0 -258 12q-2 -20 -2 -61q0 -133 76 -212t217 -79q209 0 330 162q2 4 19.5 -2t34 -22.5t16.5 -39.5q0 -41 -46 -86q-127 -127 -358 -127q-203 0 -313.5 110t-110.5 288z M258 555q98 -12 217 -12q444 0 445 196q0 59 -57.5 101.5t-162.5 42.5q-150 0 -270.5 -92.5t-171.5 -235.5zM479 1200q0 49 28 84t77 35q100 0 100 -78q0 -49 -27.5 -84t-76.5 -35q-101 0 -101 78zM823 1200q0 49 28 84t77 35q100 0 100 -78q0 -49 -27.5 -84t-76.5 -35 q-101 0 -101 78z" />
<glyph unicode="&#xec;" horiz-adv-x="497" d="M115 1382q0 25 20.5 42.5t44.5 17.5q41 0 92 -43q55 -45 109.5 -109.5t84.5 -109.5q25 -37 25 -48q0 -2 -2 -4q-6 -6 -57 11.5t-125 56.5t-131 86q-61 51 -61 100zM123 205l164 770h133l-164 -768q-7 -33 -7 -57q0 -30 11 -46q20 -29 94 -28q4 0 1 -23.5t-26.5 -46 t-70.5 -22.5q-145 0 -145 139q0 37 10 82z" />
<glyph unicode="&#xed;" horiz-adv-x="497" d="M123 205l164 770h133l-164 -768q-7 -33 -7 -57q0 -30 11 -46q20 -29 94 -28q4 0 1 -23.5t-26.5 -46t-70.5 -22.5q-145 0 -145 139q0 37 10 82zM239 1130q0 9 41 50q44 45 117.5 107.5t137.5 98.5q49 31 94 31q27 0 43 -16.5t16 -40.5q0 -49 -84 -98q-70 -41 -158 -76 t-145 -49q-40 -10 -54 -10q-8 0 -8 3z" />
<glyph unicode="&#xee;" horiz-adv-x="497" d="M123 205l164 770h133l-164 -768q-7 -33 -7 -57q0 -30 11 -46q20 -29 94 -28q4 0 1 -23.5t-26.5 -46t-70.5 -22.5q-145 0 -145 139q0 37 10 82zM127 1159q0 61 137 176q41 35 87 69t73 51.5t31 17.5t23.5 -18.5t49 -50.5t54.5 -63q80 -104 80 -157q0 -59 -50 -60 q-25 0 -49 28t-65 97l-60 105l-104 -109q-117 -121 -168 -121q-39 0 -39 35z" />
<glyph unicode="&#xef;" horiz-adv-x="497" d="M123 205l164 770h133l-164 -768q-7 -33 -7 -57q0 -30 11 -46q20 -29 94 -28q4 0 1 -23.5t-26.5 -46t-70.5 -22.5q-145 0 -145 139q0 37 10 82zM129 1200q0 49 27.5 84t76.5 35q100 0 101 -78q0 -49 -27.5 -84t-77.5 -35q-100 0 -100 78zM473 1200q0 49 27.5 84t77.5 35 q100 0 100 -78q0 -49 -27.5 -84t-77.5 -35q-100 0 -100 78z" />
<glyph unicode="&#xf0;" horiz-adv-x="1183" d="M86 367q0 211 143.5 358t372.5 147q131 0 233.5 -58t143.5 -138q1 17 1 33q0 276 -196 442l-311 -180q-4 -2 -13 5t-17.5 22.5t-8.5 35.5q0 49 70 86l180 99q-133 72 -287 81q-2 4 -4 29t25.5 53.5t77.5 28.5q152 0 319 -125l236 135q1 0 2 1q4 0 11 -6q9 -7 17.5 -22.5 t8.5 -35.5q0 -49 -70 -86l-117 -64q206 -206 206 -499q0 -91 -19 -191q-51 -248 -209 -405q-137 -137 -346 -138q-201 0 -325 104t-124 288zM219 365q0 -129 87 -202t224 -73q158 0 268.5 110.5t153.5 338.5q-27 82 -127 149.5t-225 67.5q-190 0 -285.5 -108.5t-95.5 -282.5 z" />
<glyph unicode="&#xf1;" horiz-adv-x="1169" d="M68 0l208 977q0 6 29 6q79 0 79 -88q0 -23 -5 -53l-6 -27q117 184 323 184q158 0 250 -92t92 -237q0 -82 -59 -299q-49 -171 -49 -221q0 -39 20.5 -55.5t65.5 -20.5q4 0 1 -22.5t-24.5 -45t-64.5 -22.5q-61 0 -96 38.5t-35 106.5q0 66 53 260q51 182 51 256 q0 106 -58.5 167.5t-164.5 61.5q-111 0 -190.5 -57t-151.5 -178l-135 -639h-133zM442 1178q0 70 51.5 133t112.5 63q51 0 129 -44t156 -120q63 150 110.5 150t47.5 -41q0 -70 -51.5 -133.5t-112.5 -63.5q-51 0 -129 44t-156 120q-63 -150 -110.5 -149.5t-47.5 41.5z" />
<glyph unicode="&#xf2;" horiz-adv-x="1196" d="M100 428q0 231 158 401t391 170q188 0 318.5 -127t130.5 -325q0 -231 -158 -401.5t-391 -170.5q-188 0 -318.5 127t-130.5 326zM236 432q0 -145 93 -242.5t228 -97.5q168 0 287 134t119 317q0 145 -93.5 242.5t-228.5 97.5q-168 0 -286.5 -134.5t-118.5 -316.5zM428 1382 q0 25 20.5 42.5t45.5 17.5q43 0 92 -43q55 -45 109.5 -109.5t83.5 -109.5q25 -37 25 -48q0 -2 -1 -4q-2 -2 -6 -1q-13 0 -52 13q-51 17 -124.5 56t-131.5 86q-61 51 -61 100z" />
<glyph unicode="&#xf3;" horiz-adv-x="1196" d="M100 428q0 231 158 401t391 170q188 0 318.5 -127t130.5 -325q0 -231 -158 -401.5t-391 -170.5q-188 0 -318.5 127t-130.5 326zM236 432q0 -145 93 -242.5t228 -97.5q168 0 287 134t119 317q0 145 -93.5 242.5t-228.5 97.5q-168 0 -286.5 -134.5t-118.5 -316.5zM569 1130 q0 9 40 50q44 45 118 107.5t137 98.5q49 31 94 31q25 0 42.5 -16.5t17.5 -40.5q0 -49 -84 -98q-70 -41 -158 -76t-145 -49q-40 -10 -54 -10q-8 0 -8 3z" />
<glyph unicode="&#xf4;" horiz-adv-x="1196" d="M100 428q0 231 158 401t391 170q188 0 318.5 -127t130.5 -325q0 -231 -158 -401.5t-391 -170.5q-188 0 -318.5 127t-130.5 326zM236 432q0 -145 93 -242.5t228 -97.5q168 0 287 134t119 317q0 145 -93.5 242.5t-228.5 97.5q-168 0 -286.5 -134.5t-118.5 -316.5zM436 1159 q0 61 137 176q41 35 87.5 69t73 51.5t30.5 17.5t23.5 -18.5t49 -50.5t54.5 -63q80 -104 80 -157q0 -59 -49 -60q-25 0 -49.5 28t-65.5 97l-59 105l-105 -109q-117 -121 -168 -121q-39 0 -39 35z" />
<glyph unicode="&#xf5;" horiz-adv-x="1196" d="M100 428q0 231 158 401t391 170q188 0 318.5 -127t130.5 -325q0 -231 -158 -401.5t-391 -170.5q-188 0 -318.5 127t-130.5 326zM236 432q0 -145 93 -242.5t228 -97.5q168 0 287 134t119 317q0 145 -93.5 242.5t-228.5 97.5q-168 0 -286.5 -134.5t-118.5 -316.5zM416 1178 q0 70 51 133t113 63q51 0 128.5 -44t155.5 -120q63 150 110.5 150t47.5 -41q0 -70 -51 -133.5t-113 -63.5q-51 0 -129 44t-156 120q-63 -150 -110 -149.5t-47 41.5z" />
<glyph unicode="&#xf6;" horiz-adv-x="1196" d="M100 428q0 231 158 401t391 170q188 0 318.5 -127t130.5 -325q0 -231 -158 -401.5t-391 -170.5q-188 0 -318.5 127t-130.5 326zM236 432q0 -145 93 -242.5t228 -97.5q168 0 287 134t119 317q0 145 -93.5 242.5t-228.5 97.5q-168 0 -286.5 -134.5t-118.5 -316.5zM438 1200 q0 49 28 84t77 35q100 0 100 -78q0 -49 -27.5 -84t-76.5 -35q-101 0 -101 78zM782 1200q0 49 28 84t77 35q100 0 100 -78q0 -49 -27.5 -84t-76.5 -35q-101 0 -101 78z" />
<glyph unicode="&#xf7;" horiz-adv-x="1298" d="M223 543l4 14q14 55 76 55h744q54 0 54 -35q0 -9 -3 -20l-4 -14q-8 -31 -23.5 -43.5t-50.5 -12.5h-744q-56 0 -55 38q-1 8 2 18zM487 190q0 74 33 107q27 27 76 27q98 0 98 -70q0 -74 -32 -107q-27 -27 -76 -26q-99 -1 -99 69zM627 846q0 74 32 106q27 27 76 27 q98 0 99 -70q0 -74 -33 -106q-27 -27 -76 -27q-98 0 -98 70z" />
<glyph unicode="&#xf8;" horiz-adv-x="1196" d="M16 10q0 43 54 88l98 86q-68 106 -68 244q0 231 158 401t391 170q176 0 303 -116l160 143q1 1 4 1q5 0 13 -5q13 -8 25.5 -24.5t12.5 -34.5q0 -41 -53 -89l-88 -77q72 -111 72 -250q0 -231 -158 -401.5t-391 -170.5q-184 0 -309 121l-168 -149q-1 -1 -4 -2q-5 0 -14 6 q-13 8 -25.5 24.5t-12.5 34.5zM236 432q0 -92 36 -164l588 527q-92 88 -219 88q-168 0 -286.5 -134.5t-118.5 -316.5zM332 184q88 -92 225 -92q168 0 287 134t119 317q0 90 -39 168z" />
<glyph unicode="&#xf9;" horiz-adv-x="1169" d="M147 424l117 551h133l-118 -561q-11 -50 -11 -93q0 -79 36 -135q56 -86 185 -86q111 0 191 57.5t151 178.5l136 639h133l-164 -768q-8 -35 -8 -59q0 -28 10 -43q18 -28 86 -29q4 0 1 -23.5t-25.5 -46t-67.5 -22.5q-139 0 -139 142q0 17 2 36q-53 -88 -139.5 -137.5 t-184.5 -49.5q-193 0 -280 125q-58 84 -58 201q0 57 14 123zM410 1382q0 25 20.5 42.5t44.5 17.5q41 0 92 -43q55 -45 109.5 -109.5t84.5 -109.5q25 -37 24 -48q0 -2 -1 -4q-2 -2 -6 -1q-13 0 -51 13q-51 17 -125 56t-131 86q-61 51 -61 100z" />
<glyph unicode="&#xfa;" horiz-adv-x="1169" d="M147 424l117 551h133l-118 -561q-11 -50 -11 -93q0 -79 36 -135q56 -86 185 -86q111 0 191 57.5t151 178.5l136 639h133l-164 -768q-8 -35 -8 -59q0 -28 10 -43q18 -28 86 -29q4 0 1 -23.5t-25.5 -46t-67.5 -22.5q-139 0 -139 142q0 17 2 36q-53 -88 -139.5 -137.5 t-184.5 -49.5q-193 0 -280 125q-58 84 -58 201q0 57 14 123zM575 1130q0 9 40 50q44 45 118 107.5t137 98.5q49 31 95 31q27 0 43 -16.5t16 -40.5q0 -49 -84 -98q-70 -41 -158 -76t-145 -49q-40 -10 -54 -10q-8 0 -8 3z" />
<glyph unicode="&#xfb;" horiz-adv-x="1169" d="M147 424l117 551h133l-118 -561q-11 -50 -11 -93q0 -79 36 -135q56 -86 185 -86q111 0 191 57.5t151 178.5l136 639h133l-164 -768q-8 -35 -8 -59q0 -28 10 -43q18 -28 86 -29q4 0 1 -23.5t-25.5 -46t-67.5 -22.5q-139 0 -139 142q0 17 2 36q-53 -88 -139.5 -137.5 t-184.5 -49.5q-193 0 -280 125q-58 84 -58 201q0 57 14 123zM442 1159q0 61 138 176q41 35 87 69t72.5 51.5t30.5 17.5t23.5 -18.5t49 -50.5t54.5 -63q80 -104 80 -157q0 -59 -49 -60q-25 0 -49.5 28t-65.5 97l-59 105l-105 -109q-117 -121 -168 -121q-39 0 -39 35z" />
<glyph unicode="&#xfc;" horiz-adv-x="1169" d="M147 424l117 551h133l-118 -561q-11 -50 -11 -93q0 -79 36 -135q56 -86 185 -86q111 0 191 57.5t151 178.5l136 639h133l-164 -768q-8 -35 -8 -59q0 -28 10 -43q18 -28 86 -29q4 0 1 -23.5t-25.5 -46t-67.5 -22.5q-139 0 -139 142q0 17 2 36q-53 -88 -139.5 -137.5 t-184.5 -49.5q-193 0 -280 125q-58 84 -58 201q0 57 14 123zM444 1200q0 49 28 84t77 35q100 0 100 -78q0 -49 -27.5 -84t-76.5 -35q-101 0 -101 78zM788 1200q0 49 28 84t77 35q100 0 100 -78q0 -49 -27.5 -84t-76.5 -35q-101 0 -101 78z" />
<glyph unicode="&#xfd;" horiz-adv-x="1019" d="M-158 -313q0 20 12.5 37.5t26 26.5t17.5 5q18 -23 53 -38t59 -15q63 0 133 62.5t189 236.5l33 47q-61 8 -72 88l-57 539q-10 106 -47 153.5t-107 47.5q-2 0 -2 11t3 26.5t12 31t32 26.5t57 11q53 0 90 -37q74 -74 93 -282l49 -543l520 854h145l-620 -1000 q-145 -231 -238.5 -312t-204.5 -81q-104 0 -151 47q-25 25 -25 58zM522 1109q0 9 40 50q44 45 118 107.5t137 99.5q49 31 94 31q27 0 43.5 -16.5t16.5 -41.5q0 -49 -84 -98q-70 -41 -158 -76t-145 -49q-40 -10 -55 -10q-7 0 -7 3z" />
<glyph unicode="&#xfe;" horiz-adv-x="1228" d="M-4 -340l354 1671q8 35 21.5 49.5t40.5 14.5h16q57 0 57 -46q0 -8 -2 -18l-112 -524q141 193 358 192q166 0 283.5 -114.5t117.5 -317.5q0 -233 -151.5 -412.5t-380.5 -179.5q-127 0 -218 61.5t-138 158.5l-113 -535q-14 -63 -61 -63h-17q-57 0 -57 45q0 8 2 18zM297 453 q-6 -34 -6 -66q0 -104 66 -186q87 -109 249 -109q178 0 283.5 143.5t105.5 331.5q0 145 -83 230.5t-199.5 85.5t-218 -67.5t-158.5 -178.5z" />
<glyph unicode="&#xff;" horiz-adv-x="1019" d="M-158 -313q0 20 12.5 37.5t26 26.5t17.5 5q18 -23 53 -38t59 -15q63 0 133 62.5t189 236.5l33 47q-61 8 -72 88l-57 539q-10 106 -47 153.5t-107 47.5q-2 0 -2 11t3 26.5t12 31t32 26.5t57 11q53 0 90 -37q74 -74 93 -282l49 -543l520 854h145l-620 -1000 q-145 -231 -238.5 -312t-204.5 -81q-104 0 -151 47q-25 25 -25 58zM360 1200q0 49 28 84t77 35q100 0 100 -78q0 -49 -27.5 -84t-76.5 -35q-101 0 -101 78zM705 1200q0 49 27.5 84t76.5 35q100 0 100 -78q0 -49 -27.5 -84t-76.5 -35q-100 0 -100 78z" />
<glyph unicode="&#x152;" horiz-adv-x="2160" d="M160 551q0 340 223 569.5t510 229.5q98 0 180 -25h1106q-2 -10 -6 -35l-8 -40q-6 -30 -8 -38l-5 -14h-849q180 -164 180 -422v-35h428l-6 -32q-2 -10 -8.5 -39t-8.5 -37l-4 -15h-416q-59 -303 -307 -491h774q-2 -10 -6 -35l-8 -40q-6 -30 -8 -38l-4 -14h-998 q-84 -23 -161 -23q-268 0 -429 162t-161 412zM307 561q0 -199 122 -331t335 -132q221 0 396 191.5t175 476.5q0 199 -121.5 331t-334.5 132q-221 0 -396.5 -191.5t-175.5 -476.5z" />
<glyph unicode="&#x153;" horiz-adv-x="1961" d="M100 428q0 231 156 401t387 170q150 0 261.5 -78.5t156.5 -218.5q80 137 213 217t291 80q162 0 255 -70.5t93 -187.5q0 -156 -127 -233.5t-440 -77.5q-109 0 -259 12q-2 -20 -2 -61q0 -133 76 -212t217 -79q209 0 330 162q2 4 19.5 -2t34 -22.5t16.5 -39.5q0 -41 -45 -86 q-127 -127 -359 -127q-145 0 -244.5 68t-138.5 182q-74 -115 -190.5 -182.5t-255.5 -67.5q-188 0 -316.5 124t-128.5 329zM236 432q0 -145 93 -242.5t228 -97.5q168 0 287 134t119 317q0 145 -93.5 242.5t-228.5 97.5q-168 0 -286.5 -134.5t-118.5 -316.5zM1116 555 q98 -12 217 -12q444 0 445 196q0 59 -57.5 101.5t-161.5 42.5q-150 0 -271 -92.5t-172 -235.5z" />
<glyph unicode="&#x178;" horiz-adv-x="1193" d="M225 1325h146l260 -647l559 659q6 6 40 -9t43 -52q1 -4 1 -10q0 -37 -60 -111l-536 -612l-115 -543h-139l119 557zM512 1528q0 49 27.5 84t76.5 35q100 0 101 -78q0 -49 -27.5 -84t-77.5 -35q-100 0 -100 78zM856 1528q0 49 27.5 84t77.5 35q100 0 100 -78 q0 -49 -27.5 -84t-77.5 -35q-100 0 -100 78z" />
<glyph unicode="&#x2c6;" horiz-adv-x="1093" d="M426 1159q0 61 137 176q41 35 87 69t73 51.5t31 17.5t23.5 -18.5t49 -50.5t54.5 -63q80 -104 80 -157q0 -59 -50 -60q-25 0 -49 28t-65 97l-60 105l-104 -109q-117 -121 -168 -121q-39 0 -39 35z" />
<glyph unicode="&#x2dc;" horiz-adv-x="1093" d="M406 1178q0 70 51 133t112 63q51 0 129 -44t156 -120q63 150 110.5 150t47.5 -41q0 -70 -51.5 -133.5t-112.5 -63.5q-51 0 -129 44t-156 120q-63 -150 -110 -149.5t-47 41.5z" />
<glyph unicode="&#x2013;" horiz-adv-x="1144" d="M127 469q0 47 25 72q14 14 49 14h764q59 0 59 -33q0 -47 -25 -71q-14 -14 -49 -15h-764q-59 0 -59 33z" />
<glyph unicode="&#x2014;" horiz-adv-x="1488" d="M127 469q0 47 25 72q14 14 49 14h1108q59 0 59 -33q0 -47 -25 -71q-14 -14 -49 -15h-1108q-59 0 -59 33z" />
<glyph unicode="&#x2018;" horiz-adv-x="483" d="M215 938q0 43 39 92l264 332q4 5 11 5q11 0 29 -11q23 -14 23 -28q0 -4 -1 -7l-238 -451q-4 -1 -18 -1h-17q-29 1 -60.5 19.5t-31.5 49.5z" />
<glyph unicode="&#x2019;" horiz-adv-x="483" d="M170 905l238 451q4 1 18 1h16q29 -1 61 -19.5t32 -49.5q0 -43 -39 -92l-265 -332q-4 -5 -11 -5q-11 0 -29 11q-23 14 -23 28q0 3 2 7z" />
<glyph unicode="&#x201a;" horiz-adv-x="497" d="M-96 -250l237 451q4 1 19 1h16q29 -1 60.5 -19.5t31.5 -49.5q0 -43 -39 -92l-264 -332q-4 -5 -11 -5q-11 0 -29 11q-23 14 -23 28q0 3 2 7z" />
<glyph unicode="&#x201c;" horiz-adv-x="796" d="M215 940q0 43 39 92l264 332q4 5 11 5q11 0 29 -11q30 -18 22 -35l-238 -451q-6 -2 -34.5 -1t-60.5 19.5t-32 49.5zM528 938q0 43 39 92l264 332q4 5 12 5q11 0 28 -11q23 -14 24 -28q0 -4 -2 -7l-238 -451q-4 -1 -18 -1h-16q-29 1 -61 19.5t-32 49.5z" />
<glyph unicode="&#x201d;" horiz-adv-x="796" d="M170 905l238 451q4 1 18 1h16q29 -1 61 -19.5t32 -49.5q0 -43 -39 -92l-265 -332q-4 -5 -11 -5q-11 0 -29 11q-23 14 -23 28q0 3 2 7zM483 903l238 451q4 1 18 1h17q29 -1 60.5 -19.5t31.5 -49.5q0 -43 -39 -92l-264 -332q-4 -5 -12 -5q-11 0 -28 11q-23 14 -23 28 q-1 3 1 7z" />
<glyph unicode="&#x201e;" horiz-adv-x="811" d="M-96 -250l237 451q4 1 19 1h16q29 -1 60.5 -19.5t31.5 -49.5q0 -43 -39 -92l-264 -332q-4 -5 -11 -5q-11 0 -29 11q-23 14 -23 28q0 3 2 7zM217 -252l238 451q4 1 18 1h16q29 -1 61 -19.5t32 -49.5q0 -43 -39 -92l-264 -332q-4 -5 -12 -5q-11 0 -28 11q-23 14 -24 28 q0 3 2 7z" />
<glyph unicode="&#x2022;" horiz-adv-x="733" d="M160 496q0 88 60.5 150.5t148.5 62.5t148.5 -62.5t60.5 -150.5t-60.5 -149.5t-148.5 -61.5t-148.5 61.5t-60.5 149.5z" />
<glyph unicode="&#x2026;" horiz-adv-x="1353" d="M61 57q0 74 33 107q27 27 76 26q98 0 98 -69q0 -74 -32 -107q-27 -27 -76 -26q-99 -1 -99 69zM489 57q0 74 33 107q27 27 76 26q98 0 98 -69q0 -74 -32 -107q-27 -27 -76 -26q-99 -1 -99 69zM918 57q0 74 32 107q27 27 76 26q98 0 98 -69q0 -74 -32 -107q-27 -27 -76 -26 q-98 -1 -98 69z" />
<glyph unicode="&#x2039;" horiz-adv-x="708" d="M165 550q30 30 81 74t102 83q168 129 240 129q47 0 47 -50q0 -31 -62.5 -88t-152.5 -112q-6 -4 -68.5 -43t-97.5 -58q59 -47 127 -110q76 -72 103.5 -105.5t27.5 -62.5q0 -18 -16.5 -32.5t-38.5 -14.5q-74 0 -191 143q-55 68 -96 133q-37 60 -37 75q0 7 32 39z" />
<glyph unicode="&#x203a;" horiz-adv-x="708" d="M82 209q0 31 62.5 88t152.5 113q6 4 68.5 43t97.5 57q-59 47 -127 111q-76 72 -103.5 105.5t-27.5 61.5q0 18 16.5 33t38.5 15q74 0 191 -144q55 -68 96 -133q37 -60 37 -75q0 -6 -32 -39q-30 -30 -81 -73.5t-102 -82.5q-168 -129 -240 -129q-47 0 -47 49z" />
<glyph unicode="&#x20ac;" horiz-adv-x="1351" d="M109 479q0 47 24 72q14 14 49 14h133q14 111 41 205h-118q-59 0 -60 33q0 47 25 71q14 14 49 15h145q74 190 181 297q164 164 395 164q190 0 307 -117q72 -72 72 -164q0 -37 -23.5 -61.5t-45 -25.5t-26.5 1q-59 250 -301 250q-164 0 -284 -121q-80 -80 -140 -223h443 q59 0 59 -33q0 -47 -24 -72q-14 -14 -49 -14h-469q-27 -106 -37 -205h450q59 0 60 -33q0 -47 -25 -71q-14 -14 -49 -15h-440q10 -156 98 -254t231 -98q199 0 336 201q2 4 18.5 -2t32 -24.5t15.5 -41.5q0 -51 -66 -116q-57 -57 -148 -96.5t-184 -39.5q-223 0 -344 126 t-129 345h-143q-59 0 -59 33z" />
<glyph unicode="&#x2122;" horiz-adv-x="1456" d="M205 1274v8q0 45 49 45h438q49 0 49 -45v-8q0 -45 -49 -45h-164v-479q0 -51 -49 -52h-14q-45 0 -45 52v479h-166q-49 0 -49 45zM852 750v524q0 59 53 59h51q43 0 62 -45l129 -319l129 319q20 45 61 45h47q53 0 54 -59v-524q0 -51 -45 -52h-15q-43 0 -43 52v436l-133 -330 q-10 -29 -57 -29q-23 0 -34 4.5t-14 8.5t-7 16l-136 328v-434q0 -51 -41 -52h-18q-43 1 -43 52z" />
<glyph unicode="&#xe000;" horiz-adv-x="995" d="M0 995h995v-995h-995v995z" />
<glyph unicode="&#xfb01;" horiz-adv-x="1173" d="M143 856l7 33l16 72l2 14h197l26 119q68 317 318 317q115 0 172 -57q29 -29 28 -66q0 -20 -12 -38.5t-24.5 -27t-14.5 -3.5q-51 74 -156 73q-141 0 -186 -217l-22 -100h254l-7 -33l-16 -72l-2 -14h-252l-180 -856h-133l182 856h-197zM799 205l164 770h133l-164 -768 q-7 -33 -7 -57q0 -30 11 -46q20 -29 94 -28q4 0 1 -23.5t-26.5 -46t-70.5 -22.5q-145 0 -145 139q0 37 10 82zM1010 1288q0 43 24.5 74t69.5 31q90 0 90 -68q0 -43 -24.5 -73.5t-69.5 -30.5q-90 -1 -90 67z" />
<glyph unicode="&#xfb02;" horiz-adv-x="1173" d="M143 856l7 33l16 72l2 14h197l26 119q68 317 318 317q115 0 172 -57q29 -29 28 -66q0 -20 -12 -38.5t-24.5 -27t-14.5 -3.5q-51 74 -156 73q-141 0 -186 -217l-22 -100h254l-7 -33l-16 -72l-2 -14h-252l-180 -856h-133l182 856h-197zM799 205l252 1181h133l-252 -1179 q-7 -33 -7 -57q0 -30 11 -46q20 -29 94 -28q4 0 1 -23.5t-26.5 -46t-70.5 -22.5q-145 0 -145 139q0 37 10 82z" />
<glyph unicode="&#xfb03;" horiz-adv-x="1988" d="M143 856l7 33l16 72l2 14h197l26 119q68 317 318 317q115 0 172 -57q29 -29 28 -66q0 -20 -12 -38.5t-24.5 -27t-14.5 -3.5q-51 74 -156 73q-141 0 -186 -217l-22 -100h254l-7 -33l-16 -72l-2 -14h-252l-180 -856h-133l182 856h-197zM889 856l6 33l16 72l2 14h197l27 119 q68 317 317 317q115 0 172 -57q29 -29 29 -66q0 -20 -12.5 -38.5t-24.5 -27t-14 -3.5q-51 74 -156 73q-141 0 -186 -217l-23 -100h254l-6 -33l-17 -72l-2 -14h-251l-181 -856h-133l182 856h-196zM1614 205l164 770h133l-164 -768q-7 -33 -7 -57q0 -30 11 -46q20 -29 94 -28 q4 0 1 -23.5t-26.5 -46t-70.5 -22.5q-145 0 -145 139q0 37 10 82zM1825 1288q0 43 24.5 74t69.5 31q90 0 90 -68q0 -43 -24.5 -73.5t-69.5 -30.5q-90 -1 -90 67z" />
<glyph unicode="&#xfb04;" horiz-adv-x="1988" d="M143 856l7 33l16 72l2 14h197l26 119q68 317 318 317q115 0 172 -57q29 -29 28 -66q0 -20 -12 -38.5t-24.5 -27t-14.5 -3.5q-51 74 -156 73q-141 0 -186 -217l-22 -100h254l-7 -33l-16 -72l-2 -14h-252l-180 -856h-133l182 856h-197zM889 856l6 33l16 72l2 14h197l27 119 q68 317 317 317q115 0 172 -57q29 -29 29 -66q0 -20 -12.5 -38.5t-24.5 -27t-14 -3.5q-51 74 -156 73q-141 0 -186 -217l-23 -100h254l-6 -33l-17 -72l-2 -14h-251l-181 -856h-133l182 856h-196zM1614 205l252 1181h133l-252 -1179q-7 -33 -7 -57q0 -30 11 -46 q20 -29 94 -28q4 0 1 -23.5t-26.5 -46t-70.5 -22.5q-145 0 -145 139q0 37 10 82z" />
</font>
</defs>
</svg>
