<?xml version="1.0" standalone="no"?>
<!DOCTYPE svg PUBLIC "-//W3C//DTD SVG 1.1//EN" "http://www.w3.org/Graphics/SVG/1.1/DTD/svg11.dtd" >
<svg xmlns="http://www.w3.org/2000/svg">
<metadata>
This is a custom SVG webfont generated by Font Squirrel.
Copyright   : Generated in 2010 by FontLab Studio Copyright info pending
</metadata>
<defs>
<font id="Omnes_ATTMediumItalic" horiz-adv-x="1273" >
<font-face units-per-em="2048" ascent="1434" descent="-614" />
<missing-glyph horiz-adv-x="348" />
<glyph unicode=" "  horiz-adv-x="348" />
<glyph unicode="&#x09;" horiz-adv-x="348" />
<glyph unicode="&#xa0;" horiz-adv-x="348" />
<glyph unicode="!" horiz-adv-x="602" d="M92 72q0 90 41 129q33 33 100 32q117 0 117 -86q0 -88 -43 -129q-33 -33 -98 -32q-117 0 -117 86zM231 461l115 868h266l-260 -887q-20 -59 -59 -59t-51 16q-11 14 -11 50v12z" />
<glyph unicode="&#x22;" horiz-adv-x="870" d="M270 838l60 489h243l-176 -502q-20 -59 -59 -59q-41 0 -55 14q-13 13 -13 47v11zM614 838l62 489h244l-181 -502q-20 -59 -61 -59q-39 0 -53 14q-11 11 -12 40q0 8 1 18z" />
<glyph unicode="#" horiz-adv-x="1378" d="M43 334l12 51l19 90l4 21h278l103 333h-258q4 18 10 52l18 90l7 20h272l104 340q4 8 29 8q37 0 69.5 -25.5t32.5 -76.5q0 -27 -16 -80l-51 -166h301l104 340q0 8 27 8q39 0 70.5 -25.5t31.5 -76.5q0 -27 -16 -80l-51 -166h264l-12 -51l-19 -90l-4 -21h-278l-103 -333h258 q-4 -18 -10 -52l-18 -90l-7 -20h-274l-102 -340q0 -8 -29 -8q-37 0 -68.5 25.5t-31.5 76.5q0 37 14 80l51 166h-299l-104 -340q-4 -8 -29 -8q-37 0 -69.5 25.5t-32.5 76.5q0 31 16 80l51 166h-264zM516 492h313l105 342h-313z" />
<glyph unicode="$" horiz-adv-x="1181" d="M51 289q0 37 23.5 63.5t47 34.5t25.5 2q41 -84 117 -143.5t170 -81.5l94 440q-90 39 -147 77t-104.5 111.5t-47.5 172.5q0 158 120 264t331 110l41 191h178l-45 -207q152 -29 242 -117q66 -66 65 -139q0 -39 -23.5 -67.5t-48 -37t-28.5 -1.5q-80 156 -250 198l-92 -432 q76 -33 123 -57.5t100 -66.5t79 -99.5t26 -130.5q0 -174 -123 -279.5t-359 -105.5l-39 -201h-178l43 215q-168 35 -262 131q-78 78 -78 156zM436 979q0 -113 139 -186l80 381q-100 -8 -159.5 -62.5t-59.5 -132.5zM590 152q119 6 178 61t59 147q0 106 -153 181z" />
<glyph unicode="%" horiz-adv-x="1585" d="M92 55q0 45 70 109l1323 1190q1 1 4 1q6 0 20 -5q20 -8 39 -27.5t19 -44.5q0 -43 -72 -109l-1323 -1189q-1 -1 -4 -2q-6 0 -20 6q-19 8 -37.5 27t-18.5 44zM184 987q0 150 96.5 254.5t249.5 104.5q129 0 210 -78t81 -205q0 -147 -97 -251.5t-251 -104.5q-127 0 -208 77.5 t-81 202.5zM328 995q0 -70 45 -115.5t110 -45.5q82 0 137.5 65.5t55.5 157.5q0 70 -44 116t-110 46q-82 0 -138 -66t-56 -158zM838 270q0 150 97 254.5t251 104.5q129 0 209 -78t80 -205q0 -147 -96.5 -251.5t-250.5 -104.5q-129 0 -209.5 77.5t-80.5 202.5zM983 279 q0 -68 45 -115t109 -47q82 0 137 65.5t55 157.5q0 70 -44 116t-109 46q-82 0 -137.5 -65.5t-55.5 -157.5z" />
<glyph unicode="&#x26;" horiz-adv-x="1443" d="M63 340q0 170 105.5 271.5t300.5 154.5q-66 102 -66 215q0 154 110 262.5t282 108.5q143 0 235 -82t92 -213q0 -274 -377 -355l259 -325q152 172 182 379h188q-84 -315 -260 -500l10 -12q53 -68 97.5 -95.5t111.5 -29.5q2 0 3 -13.5t-3 -33t-14 -39t-37 -32.5t-65 -13 q-72 0 -119 31.5t-109 107.5l-12 14q-199 -166 -467 -166q-211 0 -329 101.5t-118 263.5zM254 358q0 -96 70.5 -159.5t207.5 -63.5q199 0 342 125l-317 393q-303 -72 -303 -295zM592 995q0 -98 63 -184q156 31 224.5 82t68.5 156q0 68 -45 109.5t-119 41.5q-86 0 -139 -61.5 t-53 -143.5z" />
<glyph unicode="'" horiz-adv-x="524" d="M270 838l60 489h243l-176 -502q-20 -59 -59 -59q-41 0 -55 14q-13 13 -13 47v11z" />
<glyph unicode="(" horiz-adv-x="837" d="M104 264q0 240 93.5 472.5t259.5 398.5q201 201 399 200q47 0 74.5 -22.5t27.5 -63.5q0 -18 -8 -36.5t-16 -28.5t-12 -10q-180 -12 -328 -164q-137 -137 -211 -341t-74 -409q0 -281 154 -434q66 -61 145 -86q4 -2 11.5 -20.5t7.5 -36.5q0 -41 -27 -67t-74 -26 q-111 0 -223 109q-90 90 -144.5 236.5t-54.5 328.5z" />
<glyph unicode=")" horiz-adv-x="837" d="M-129 -322q0 18 8 37t16.5 29t12.5 12q176 10 328 162q137 137 209.5 340t72.5 410q0 281 -151 434q-63 61 -146 88q-18 10 -18 55q0 41 26.5 66.5t73.5 25.5q115 0 223 -108q199 -203 199 -565q0 -240 -93 -472.5t-259 -398.5q-201 -201 -402 -201q-45 0 -72.5 22.5 t-27.5 63.5z" />
<glyph unicode="*" horiz-adv-x="872" d="M190 1047q-4 7 -3 17q0 12 6 28l2 8q10 39 56 38q10 0 21 -1l201 -52l14 201q2 37 16.5 50.5t41.5 13.5h8q55 0 59 -64l13 -201l198 52q12 2 22 1q46 0 58 -38l2 -8q6 -15 6 -27q0 -10 -4 -17q-8 -17 -43 -32l-188 -76l110 -176q13 -24 13 -43q0 -26 -25 -43l-6 -4 q-16 -12 -33 -12q-26 0 -53 28l-135 162l-133 -162q-25 -28 -51 -27q-16 0 -33 11l-8 4q-25 15 -26 40q0 20 15 46l111 178l-191 74q-33 15 -41 31z" />
<glyph unicode="+" horiz-adv-x="1171" d="M121 512q0 57 31 88q23 23 69 23h307l66 305q16 86 82 86h20q37 0 57 -23q14 -16 13 -43q0 -11 -2 -24l-66 -301h293q80 0 80 -54q0 -59 -29 -88q-27 -23 -71 -22h-305l-70 -322q-18 -86 -82 -86h-22q-37 0 -57 22q-13 14 -13 39q0 13 4 29l68 318h-291q-82 0 -82 53z " />
<glyph unicode="," horiz-adv-x="528" d="M-78 -201l217 443q8 0 47 1h3q38 0 81 -25q45 -26 45 -68q0 -53 -57 -121l-242 -289q-8 -8 -21 -8q-17 0 -41 13q-34 18 -35 41q0 6 3 13z" />
<glyph unicode="-" horiz-adv-x="874" d="M98 406l17 77l6 29l16 80h637q-6 -33 -16 -80l-6 -29l-17 -77h-637z" />
<glyph unicode="." horiz-adv-x="524" d="M51 72q0 88 43 129q33 33 99 32q117 0 116 -86q0 -90 -41 -129q-33 -33 -100 -32q-117 0 -117 86z" />
<glyph unicode="/" horiz-adv-x="763" d="M-186 -414l911 1749h203l-97 -192l-815 -1557h-202z" />
<glyph unicode="0" horiz-adv-x="1370" d="M147 457q0 137 52 338q61 262 202.5 408.5t395.5 146.5q238 0 368.5 -133.5t130.5 -350.5q0 -123 -51 -338q-131 -555 -598 -555q-238 0 -369 134.5t-131 349.5zM358 459q0 -141 81 -226.5t223 -85.5q164 0 246.5 102.5t127.5 287.5q49 197 49 327q0 139 -81.5 225.5 t-221.5 86.5q-164 0 -247.5 -102.5t-126.5 -285.5q-50 -196 -50 -329z" />
<glyph unicode="1" horiz-adv-x="819" d="M207 1100q0 39 19.5 71.5t38 47t22.5 10.5q39 -49 127 -49q63 0 114.5 44t71.5 111h68q81 0 80 -66q0 -16 -5 -36l-260 -1233h-209l218 1034q-57 -53 -136 -53q-84 0 -118 39q-31 29 -31 80z" />
<glyph unicode="2" horiz-adv-x="1165" d="M0 0l31 145q47 225 143 320q70 72 168 117t246 92q207 72 286.5 130t79.5 173q0 88 -69.5 143.5t-190.5 55.5q-225 0 -338 -228q-2 -6 -30.5 0t-57 33t-28.5 70q0 80 79 159q141 141 381 142q213 0 337 -100.5t124 -268.5q0 -197 -117.5 -295t-384.5 -184 q-145 -45 -219.5 -80t-124.5 -84q-63 -68 -75 -164h776l-17 -72l-20 -104h-979z" />
<glyph unicode="3" horiz-adv-x="1187" d="M31 272q0 57 33.5 90t66.5 39.5t35 -2.5q23 -123 113 -188.5t239 -65.5q154 0 235 76t81 189q0 94 -68 148t-197 54h-176l13 56q2 14 10 49t8 39l4 20h186q317 0 318 224q0 81 -72 130q-74 51 -184 52q-221 0 -336 -185q-2 -6 -29.5 0.5t-54.5 31t-27 61.5q0 59 60 118 q139 143 397 144q205 0 331 -86t126 -248q0 -127 -77 -220t-228 -116q102 -35 154 -109.5t52 -171.5q0 -172 -128 -299t-404 -127q-272 0 -399 131q-82 80 -82 166z" />
<glyph unicode="4" horiz-adv-x="1269" d="M86 485q0 43 17.5 77t66.5 85l596 594q53 55 92 74.5t107 19.5q90 0 124 -35q23 -23 22 -65q0 -20 -5 -45l-141 -662h235l-10 -55l-21 -96l-6 -21h-231l-76 -356h-197l74 356h-586q-6 0 -20 17.5t-27.5 49t-13.5 62.5zM279 524h497l135 639z" />
<glyph unicode="5" horiz-adv-x="1171" d="M47 254q0 37 25.5 65.5t51.5 40t28 5.5q96 -221 374 -222q147 0 237.5 82t90.5 215q0 223 -281 224q-160 0 -280 -70q-101 22 -101 107q0 19 5 40l96 467q25 117 137 117h752q-6 -25 -13 -61l-26 -119h-676l-78 -361q102 39 221 39q211 0 331 -100t120 -268 q0 -215 -145.5 -347.5t-391.5 -132.5q-283 0 -411 134q-66 67 -66 145z" />
<glyph unicode="6" horiz-adv-x="1271" d="M150 463q0 168 65.5 387t190.5 344q78 80 171 119t238 39q227 0 348 -121q61 -63 62 -127q0 -45 -29 -72.5t-57.5 -35t-30.5 -1.5q-39 86 -118 134.5t-179 48.5q-319 0 -424 -459q152 111 350 110q186 0 302 -96t116 -264q0 -201 -145.5 -347.5t-376.5 -146.5 q-221 0 -352 129.5t-131 358.5zM350 455v-15q0 -137 72 -215q76 -82 219 -82t228 88t85 220q0 106 -71.5 167.5t-204.5 61.5q-176 0 -318 -123q-10 -45 -10 -102z" />
<glyph unicode="7" horiz-adv-x="1155" d="M195 88q0 49 69 133l713 916h-762q6 29 18 77l23 111h860q8 0 25.5 -17.5t35 -52t17.5 -71.5q0 -70 -70 -156l-796 -1038q-1 -2 -10 -2t-25 2q-33 4 -65.5 28.5t-32.5 69.5z" />
<glyph unicode="8" horiz-adv-x="1263" d="M84 334q0 127 93 225t255 137q-176 76 -176 254q0 170 141.5 285t358.5 115q207 0 335 -92.5t128 -241.5q0 -125 -79 -219.5t-227 -130.5q211 -86 211 -283q0 -176 -143 -292t-383 -116q-236 0 -375 96.5t-139 262.5zM295 352q0 -96 85 -156.5t226 -60.5q143 0 228.5 73 t85.5 185q0 94 -85 152.5t-233 58.5q-131 0 -219 -70.5t-88 -181.5zM457 946q0 -88 74.5 -141t197.5 -53q133 0 210 65.5t77 173.5q0 90 -76 143.5t-199 53.5q-129 0 -206.5 -68t-77.5 -174z" />
<glyph unicode="9" horiz-adv-x="1271" d="M121 219q0 41 26.5 69.5t54 37t29.5 2.5q43 -86 122 -133.5t179 -47.5q311 0 420 439q-156 -109 -346 -109q-193 0 -305.5 95.5t-112.5 273.5q0 209 145.5 356.5t377.5 147.5q225 0 355 -129t130 -359q0 -166 -64.5 -386t-189.5 -345q-80 -78 -173 -117t-239 -39 q-233 0 -350 117q-59 61 -59 127zM389 864q0 -113 68.5 -175t206.5 -62q180 0 317 123q12 66 12 118v16q0 138 -70 217q-75 83 -216 83q-145 0 -231.5 -90.5t-86.5 -229.5z" />
<glyph unicode=":" horiz-adv-x="528" d="M-78 -201l217 443q8 0 47 1h3q38 0 81 -25q45 -26 45 -68q0 -53 -57 -121l-242 -289q-8 -8 -21 -8q-17 0 -41 13q-34 18 -35 41q0 6 3 13z" />
<glyph unicode=";" horiz-adv-x="577" d="M-53 -201l217 443q8 0 47 1h3q38 0 81 -25q45 -26 45 -68q0 -53 -57 -121l-242 -289q-8 -8 -21 -8q-17 0 -42 13q-34 18 -34 41q0 6 3 13zM221 737q0 86 41 129q31 31 100 31q117 0 117 -86t-41 -129q-31 -31 -100 -31q-117 0 -117 86z" />
<glyph unicode="&#x3c;" horiz-adv-x="1019" d="M129 532q4 88 100 134l699 338h1q4 0 15 -12q12 -13 24.5 -37.5t12.5 -54.5q0 -66 -104 -116l-539 -249l399 -232q95 -53 95 -120q0 -5 -1 -11q-2 -27 -16 -50.5t-28 -34.5q-10 -8 -15 -8q-2 0 -4 1l-573 344q-66 40 -66 108z" />
<glyph unicode="=" horiz-adv-x="1171" d="M92 260q0 68 35 102q23 23 78 23h700q88 0 88 -55q0 -72 -35 -103q-20 -23 -77 -22h-701q-88 0 -88 55zM195 739q0 70 34 101q20 23 78 22h701q90 0 90 -55q0 -66 -37 -102q-20 -20 -76 -21h-702q-88 0 -88 55z" />
<glyph unicode="&#x3e;" horiz-adv-x="1019" d="M59 183q0 66 105 116l538 250l-399 231q-95 53 -95 121q0 5 1 10q2 27 16.5 50.5t27.5 34.5q10 8 16 9q2 0 3 -1l574 -345q66 -41 65 -108q-4 -88 -100 -133l-698 -338h-2q-5 0 -15 11q-12 13 -24.5 38t-12.5 54z" />
<glyph unicode="?" horiz-adv-x="1050" d="M205 1049q0 86 84 170q133 133 346 133q195 0 313.5 -103.5t118.5 -261.5q0 -84 -29.5 -149.5t-84 -106.5t-101.5 -63.5t-113 -42.5q-182 -59 -204 -168l-19 -82h-184l22 100q20 98 80 167t178 110q131 43 188.5 92t57.5 137q0 86 -63.5 142.5t-171.5 56.5 q-106 0 -183.5 -61.5t-115.5 -164.5q-2 -6 -31 0.5t-58.5 31t-29.5 63.5zM270 72q0 88 41 129q33 33 101 32q117 0 116 -86q0 -88 -43 -129q-31 -33 -98 -32q-117 0 -117 86z" />
<glyph unicode="@" horiz-adv-x="1591" d="M160 575q0 326 217 551.5t534 225.5q276 0 446.5 -151.5t170.5 -399.5q0 -215 -98.5 -341t-262.5 -126q-190 0 -221 141q-76 -131 -231 -131q-100 0 -165 65.5t-65 178.5q0 147 94.5 263t231.5 116q63 0 115.5 -30t77.5 -81l30 100h148l-76 -360q-7 -30 -7 -54 q0 -89 97 -89q100 0 159.5 91t59.5 253q0 199 -144.5 323.5t-371.5 124.5q-262 0 -443.5 -191.5t-181.5 -469.5q0 -221 149.5 -361.5t391.5 -140.5q182 0 320 94q37 27 69 27q20 0 36.5 -16.5t24 -34t3.5 -21.5q-76 -70 -198 -114t-265 -44q-295 0 -470 164t-175 438z M641 608q0 -61 36 -99t89 -38q70 0 124 49t68 123l17 84q-35 113 -146 113q-84 0 -136 -71t-52 -161z" />
<glyph unicode="A" horiz-adv-x="1361" d="M-68 0l762 1274q20 35 49 50t86 15q70 0 98.5 -19.5t37.5 -57.5l249 -1262h-215l-75 389h-533l-223 -389h-236zM477 559h426l-102 559z" />
<glyph unicode="B" horiz-adv-x="1335" d="M70 0l258 1208q18 117 137 117h389q201 0 305.5 -77t104.5 -222q0 -266 -283 -346q115 -31 174 -101.5t59 -166.5q0 -188 -128 -300t-414 -112h-602zM315 170h359q172 0 248.5 60.5t76.5 189.5q0 84 -65.5 130t-192.5 46h-333zM438 748h314q137 0 216 66.5t79 174.5 q-6 166 -242 166h-279z" />
<glyph unicode="C" horiz-adv-x="1398" d="M147 553q0 326 214 561.5t530 235.5q266 0 407 -146q86 -84 86 -166q0 -49 -32.5 -79.5t-66.5 -37t-40 0.5q-90 242 -356 241q-219 0 -369.5 -172t-150.5 -411q0 -188 110.5 -302t288.5 -114q256 0 381 194q4 6 29.5 -3t51 -36.5t25.5 -64.5q0 -57 -65.5 -122.5 t-181 -111t-248.5 -45.5q-279 0 -446 156t-167 422z" />
<glyph unicode="D" horiz-adv-x="1433" d="M70 0l258 1208q18 117 137 117h237q305 0 477.5 -145.5t172.5 -405.5q0 -334 -214 -554t-612 -220h-456zM319 182h238q283 0 431.5 160t148.5 403q0 186 -119 292t-334 106h-162z" />
<glyph unicode="E" horiz-adv-x="1271" d="M70 0l258 1208q23 117 137 117h866l-8 -47l-20 -92l-11 -47h-768l-80 -373h623l-37 -178h-624l-84 -402h780l-39 -186h-993z" />
<glyph unicode="F" horiz-adv-x="1181" d="M72 0l256 1208q18 117 137 117h815l-39 -186h-719l-90 -422h561l-10 -45q-8 -45 -18 -90l-11 -43h-557l-112 -539h-213z" />
<glyph unicode="G" horiz-adv-x="1525" d="M147 543q0 328 216.5 568.5t541.5 240.5q283 0 434 -156q76 -72 76 -147q0 -51 -35 -82q-34 -30 -63 -30h-2q-31 1 -37 1q-39 100 -139.5 164.5t-231.5 64.5q-231 0 -385.5 -177t-154.5 -429q0 -197 109.5 -306.5t293.5 -109.5q180 0 291 105q53 51 78.5 100t54.5 176 h-412l37 172h488q94 0 94 -79q0 -17 -4 -37l-123 -576q0 -2 -7 -5t-20.5 -6t-27.5 -3q-104 0 -104 107q0 20 3 42q-59 -76 -159.5 -121t-225.5 -45q-266 0 -426 152t-160 416z" />
<glyph unicode="H" horiz-adv-x="1452" d="M70 0l264 1237q20 96 104 96h29q47 0 67.5 -26.5t8.5 -75.5l-99 -475h676l103 481q20 96 104 96h31q45 0 65.5 -27.5t10.5 -76.5l-265 -1229h-208l120 571h-675l-125 -571h-211z" />
<glyph unicode="I" horiz-adv-x="600" d="M90 0l283 1325h211l-283 -1325h-211z" />
<glyph unicode="J" horiz-adv-x="1013" d="M41 182q0 45 25.5 76t51 41t27.5 4q33 -68 94.5 -107.5t135.5 -39.5q106 0 166.5 65.5t93.5 216.5l190 887h209l-194 -919q-49 -219 -160 -325t-301 -106q-182 0 -285 103q-53 53 -53 104z" />
<glyph unicode="K" horiz-adv-x="1245" d="M72 0l262 1237q10 51 34.5 73.5t69.5 22.5h29q47 0 68 -27q13 -17 12 -43q0 -15 -4 -34l-107 -504l727 627h2q5 0 28 -7q28 -9 55.5 -35t27.5 -61q0 -59 -84 -129l-561 -461l287 -391q63 -90 103 -121.5t95 -35.5l2 -13q4 -12 -4 -30.5t-20.5 -37t-43 -30.5t-71.5 -12 q-70 0 -123 47t-133 170l-305 436l-135 -641h-211z" />
<glyph unicode="L" horiz-adv-x="1118" d="M70 0l264 1237q20 96 104 96h29q47 0 67.5 -26.5t8.5 -75.5l-221 -1043h565q92 0 92 -59q0 -70 -37 -106q-20 -23 -82 -23h-790z" />
<glyph unicode="M" horiz-adv-x="1603" d="M70 0l258 1212q27 121 141 121h53q57 0 80 -24.5t35 -83.5l162 -705l467 709q41 63 71.5 83.5t83.5 20.5h62q57 0 81.5 -34.5t14.5 -90.5l-258 -1208h-199l226 1061l-437 -664q-31 -47 -59.5 -66.5t-83.5 -19.5q-68 0 -91.5 22.5t-33.5 74.5l-147 647l-228 -1055h-198z " />
<glyph unicode="N" horiz-adv-x="1466" d="M72 0l256 1212q25 121 129 121h35q41 0 64.5 -18.5t47.5 -65.5l453 -932l215 1008h196l-260 -1221q-23 -113 -121 -112h-16q-39 0 -63.5 18.5t-49.5 65.5l-469 966l-221 -1042h-196z" />
<glyph unicode="O" horiz-adv-x="1566" d="M150 555q0 336 218 566.5t521 230.5q276 0 438 -165t162 -415q0 -336 -218 -565.5t-521 -229.5q-279 0 -439.5 164t-160.5 414zM365 569q0 -176 107.5 -291.5t293.5 -115.5q199 0 352.5 171t153.5 425q0 176 -106.5 291.5t-293.5 115.5q-199 0 -353 -171t-154 -425z" />
<glyph unicode="P" horiz-adv-x="1234" d="M70 0l258 1208q18 117 137 117h303q225 0 345 -92t120 -266q0 -231 -143.5 -360.5t-411.5 -129.5h-293l-104 -477h-211zM420 647h282q150 0 234 78t84 217q0 209 -270 209h-224z" />
<glyph unicode="Q" horiz-adv-x="1585" d="M150 555q0 336 219 566.5t526 230.5q281 0 437.5 -163t156.5 -417q0 -336 -225 -567l8 -10q70 -92 131 -111q6 -2 1 -28.5t-30.5 -54.5t-73.5 -28q-57 0 -93 23.5t-87 91.5q-174 -111 -379 -111q-281 0 -436 162t-155 416zM365 569q0 -176 106.5 -291.5t288.5 -115.5 q131 0 244 71l-203 273l65 59q66 61 68 60l205 -271q137 168 137 404q0 176 -106.5 291.5t-288.5 115.5q-205 0 -360.5 -170t-155.5 -426z" />
<glyph unicode="R" horiz-adv-x="1271" d="M72 0l256 1208q18 117 137 117h326q229 0 346.5 -87t117.5 -257q0 -203 -129 -322.5t-356 -126.5l154 -260q51 -88 89 -119.5t105 -33.5q2 0 3 -14.5t-5 -33t-19.5 -38t-44 -32.5t-73.5 -13q-72 0 -125 44t-123 171l-176 315h-164l-108 -518h-211zM424 684h303 q150 0 230.5 72.5t80.5 201.5q0 195 -266 195h-248z" />
<glyph unicode="S" horiz-adv-x="1187" d="M45 276q0 37 24.5 66t50 39t27.5 4q53 -109 161 -173.5t253 -64.5q272 0 273 209q0 43 -18.5 76t-62.5 60.5t-78 44t-108 45.5q-78 33 -126 57.5t-104 68.5t-84 106.5t-28 143.5q0 168 128 280t349 112q272 0 406 -133q66 -66 65 -140q0 -41 -25.5 -69.5t-51 -37.5 t-29.5 -3q-104 211 -371 211q-115 0 -187.5 -55.5t-72.5 -141.5q0 -47 17.5 -81t65.5 -64.5t81 -46t115 -50.5q63 -25 101 -43t90 -51t81 -66.5t49.5 -86t20.5 -115.5q0 -182 -129 -292t-371 -110q-285 0 -436 148q-76 79 -76 153z" />
<glyph unicode="T" horiz-adv-x="1284" d="M229 1196q0 70 37 107q20 23 82 22h930q92 0 92 -59q0 -66 -37 -107q-23 -23 -82 -22h-364l-242 -1137h-209l240 1137h-354q-93 0 -93 59z" />
<glyph unicode="U" horiz-adv-x="1396" d="M180 596l135 641q25 96 107 96h29q47 0 66 -27q13 -18 13 -46q0 -14 -4 -31l-137 -649q-16 -76 -16 -138q0 -108 48 -175q75 -105 259 -105q281 0 356 358l154 717q20 96 104 96h27q45 0 65 -27q14 -18 14 -46q0 -14 -3 -29l-156 -737q-111 -518 -579 -519 q-289 0 -418 159q-86 105 -86 274q0 86 22 188z" />
<glyph unicode="V" horiz-adv-x="1337" d="M233 1266q-4 16 38 41.5t87 25.5q90 0 105 -106l164 -981l610 1089q0 2 13 3q10 0 26 -2q39 -3 77 -30.5t38 -78.5q0 -41 -52 -127l-655 -1100h-207z" />
<glyph unicode="W" horiz-adv-x="1961" d="M303 1284q0 14 37 32.5t78 18.5q51 0 78.5 -32.5t25.5 -90.5l10 -981l435 848q43 86 143 86q127 0 133 -108l68 -826l485 1100q0 2 16.5 3t40 -2t48 -12t41 -32.5t16.5 -58.5q0 -43 -39 -123l-520 -1106h-242l-78 928l-491 -928h-238z" />
<glyph unicode="X" horiz-adv-x="1290" d="M6 84q0 51 68 117l477 479l-303 645h223l238 -537l522 562h2q6 0 30 -7q30 -8 61.5 -34.5t31.5 -65.5q0 -51 -68 -119l-485 -485l160 -342q47 -104 85.5 -138t102.5 -36q2 0 3 -15.5t-5 -36t-20.5 -42t-44 -37t-70.5 -15.5q-74 0 -126 56.5t-104 181.5l-137 315 l-516 -553q-1 -1 -4 -1q-8 0 -29 6q-31 8 -61.5 34.5t-30.5 67.5z" />
<glyph unicode="Y" horiz-adv-x="1239" d="M180 1325h221l258 -606l525 622q1 1 3 1q7 0 30 -5q31 -6 62.5 -32.5t31.5 -69.5q0 -53 -72 -133l-502 -565l-112 -537h-213l116 547z" />
<glyph unicode="Z" horiz-adv-x="1239" d="M2 0q12 63 27 125q16 82 94 154l874 862h-626q-115 0 -115 76q0 20 9 47.5t19.5 44t14.5 16.5h985q-12 -63 -27 -125q-16 -84 -92 -153l-872 -863h670q115 0 114 -75q0 -20 -9 -48t-19.5 -44.5t-14.5 -16.5h-1032z" />
<glyph unicode="[" horiz-adv-x="776" d="M-12 -406l30 138l316 1482l24 117h426q84 0 84 -53q0 -63 -34 -98q-20 -20 -74 -21h-250l-295 -1390h240q84 0 84 -56q0 -63 -33 -96q-27 -23 -76 -23h-442z" />
<glyph unicode="\" horiz-adv-x="763" d="M207 1337h182l172 -1753h-180z" />
<glyph unicode="]" horiz-adv-x="776" d="M-104 -352q0 63 34 98q20 20 74 21h250l295 1390h-240q-84 0 -84 55q0 63 33 97q27 23 76 22h442l-31 -137l-315 -1483l-24 -117h-426q-84 1 -84 54z" />
<glyph unicode="^" horiz-adv-x="1093" d="M367 967q0 70 135 180q63 51 126.5 90t84.5 43q14 -4 59 -43t82 -86q84 -100 84 -162q0 -37 -20.5 -58.5t-51.5 -21.5q-57 0 -127 123q-2 2 -21.5 37t-29.5 57q-61 -70 -88 -96q-109 -121 -174 -121q-29 0 -44 16.5t-15 41.5z" />
<glyph unicode="_" horiz-adv-x="1050" d="M-63 -117q0 61 32 94q23 23 74 23h743q84 0 84 -53q0 -61 -32 -94q-23 -20 -74 -21h-744q-83 0 -83 51z" />
<glyph unicode="`" horiz-adv-x="1093" d="M428 1376q0 37 26.5 62.5t65.5 25.5q49 0 101 -41q57 -43 111 -109.5t82 -117.5q23 -42 23 -55q0 -3 -1 -4q-4 -5 -21 -6q-15 0 -40 5q-52 9 -131 40.5t-140 78.5q-76 55 -76 121z" />
<glyph unicode="a" d="M94 387q0 242 159 432.5t392 190.5q113 0 202 -51.5t132 -139.5l39 166h196l-159 -760q-8 -39 -8 -66t8 -43q16 -32 80 -38q6 0 -0.5 -24.5t-37 -48t-83.5 -23.5q-168 0 -168 164q0 18 2 38q-63 -100 -159.5 -154.5t-209.5 -54.5q-166 0 -275.5 109.5t-109.5 302.5z M295 406q0 -121 68.5 -192t171.5 -71q133 0 237.5 95.5t132.5 234.5l33 154q-68 219 -281 219q-160 0 -261 -135t-101 -305z" />
<glyph unicode="b" horiz-adv-x="1263" d="M57 16l289 1397h203l-117 -584q129 180 340 181q166 0 281.5 -115t115.5 -315q0 -154 -64.5 -291t-188 -225.5t-275.5 -88.5q-119 0 -210 55.5t-138 149.5v-6q-20 -98 -58 -140t-104 -42q-12 0 -23.5 2t-20.5 5t-16.5 6t-10.5 6t-3 5zM356 471q-6 -33 -6 -64 q0 -94 57 -167q75 -98 220 -99q156 0 249 127t93 295q0 129 -73 205t-179 76q-96 0 -183.5 -55.5t-142.5 -145.5z" />
<glyph unicode="c" horiz-adv-x="1126" d="M90 430q0 231 164 405.5t397 174.5q225 0 346 -125q80 -80 80 -164q0 -51 -35 -81q-33 -28 -60 -28h-4q-30 2 -36 4q-18 100 -92 162t-193 62q-160 0 -265 -120t-105 -276q0 -133 81 -216t218 -83q180 0 284 166q2 4 28 -2t50.5 -28.5t24.5 -57.5q0 -55 -66 -121 q-131 -127 -340 -127t-343 122t-134 333z" />
<glyph unicode="d" d="M100 406q0 240 149.5 422t379.5 182q240 0 348 -191l125 594h198l-245 -1188q-9 -40 -10 -68q0 -26 9 -41q17 -32 81 -38q6 0 -0.5 -24.5t-37 -48t-83.5 -23.5q-88 0 -131 49q-38 43 -38 117q0 11 1 22q-131 -195 -348 -195q-166 0 -282 115t-116 316zM299 422 q0 -127 72.5 -203t179.5 -76q125 0 223 88t127 226l35 164q-39 111 -106.5 168t-184.5 57q-158 0 -252 -128t-94 -296z" />
<glyph unicode="e" horiz-adv-x="1124" d="M86 385q0 268 179 446.5t442 178.5q174 0 272 -75t98 -198q0 -158 -128 -238.5t-443 -80.5q-88 0 -236 10v-37q0 -119 71 -189.5t200 -70.5q201 0 315 154q2 4 24.5 -3.5t45 -29t22.5 -51.5q0 -53 -49 -103q-127 -123 -362 -123q-217 0 -334 113t-117 297zM303 569 q86 -10 184 -10q406 0 406 172q0 53 -51 90t-144 37q-131 0 -237.5 -81t-157.5 -208z" />
<glyph unicode="f" horiz-adv-x="792" d="M119 819q2 18 10 53q10 61 21 93l4 20h202l23 96q70 340 350 340q131 0 189 -61q33 -33 32 -76q0 -27 -14 -51.5t-29.5 -35.5t-19.5 -7q-49 68 -148 67q-129 0 -170 -188l-18 -84h264l-12 -51l-19 -94l-4 -21h-258l-172 -819h-203l175 819h-203z" />
<glyph unicode="g" horiz-adv-x="1267" d="M33 -145q0 45 27.5 77.5t56 42t30.5 2.5q78 -215 338 -215q268 0 330 291l29 140q-131 -176 -344 -177q-166 0 -283 115t-117 311q0 221 157 394.5t386 173.5q111 0 201 -51.5t135 -137.5l39 164h196l-198 -942q-98 -453 -543 -453q-244 0 -371 127q-69 70 -69 138z M299 455q0 -125 73.5 -200t180.5 -75q125 0 224.5 81t125.5 206l35 164q-63 213 -281 213q-156 0 -257 -118.5t-101 -270.5z" />
<glyph unicode="h" horiz-adv-x="1210" d="M53 0l293 1413q0 6 11.5 6t37 -3t43.5 -3h25h17q9 0 15.5 1l13.5 2t12 2t10 1h9h5q2 0 3 -2t1 -4l-119 -592q53 88 140 138.5t188 50.5q154 0 243 -91.5t89 -234.5q0 -86 -60 -297q-49 -172 -49 -221q0 -41 20.5 -59.5t63.5 -22.5q6 0 -1 -25.5t-39 -51t-85 -25.5 q-78 0 -120 42t-42 117q0 59 51 254q49 168 50 238q0 94 -51.5 147.5t-145.5 53.5t-161.5 -47.5t-129.5 -149.5l-135 -637h-117h-17q-9 0 -15.5 -1l-13.5 -2t-12 -2t-10 -1h-9h-5q-2 0 -3 2t-1 4z" />
<glyph unicode="i" horiz-adv-x="546" d="M113 227l161 758h201l-160 -760q-8 -37 -7 -63q0 -30 9 -47q18 -33 86 -37l3 -8q0 -10 -8.5 -25.5t-19.5 -29t-39 -23.5t-63 -10q-174 0 -174 158q1 39 11 87zM322 1290q0 55 34.5 93t92.5 38q121 0 120 -92q0 -57 -34.5 -95t-92 -38t-89 25.5t-31.5 68.5z" />
<glyph unicode="j" horiz-adv-x="548" d="M-281 -283q0 27 14.5 52.5t28 39t15.5 11.5q49 -68 139 -68q53 0 86 35t51 119l230 1079h200l-233 -1108q-61 -291 -311 -291q-131 0 -187 60q-33 32 -33 71zM332 1290q0 55 34.5 93t92.5 38q119 0 119 -92q0 -57 -35 -95t-92 -38q-119 0 -119 94z" />
<glyph unicode="k" horiz-adv-x="1036" d="M53 0l293 1413h203l-174 -852l534 449q2 4 27 -4.5t50.5 -34t25.5 -64.5q0 -55 -78 -116l-373 -297l146 -224q59 -96 95 -122.5t107 -30.5q0 -2 2 -14.5t-5 -33t-18 -40t-41 -33.5t-69 -14q-72 0 -118 43t-130 182l-172 282l-26 -120l-49 -246l-27 -123h-203z" />
<glyph unicode="l" horiz-adv-x="546" d="M113 227l247 1186h201l-246 -1188q-8 -37 -7 -63q0 -30 9 -47q18 -33 86 -37l3 -8q0 -10 -8.5 -25.5t-19.5 -29t-39 -23.5t-63 -10q-173 0 -173 162q1 37 10 83z" />
<glyph unicode="m" horiz-adv-x="1853" d="M53 0l209 983q4 10 51 10q115 0 115 -118q0 -17 -2 -35q123 170 319 170q111 0 190 -57.5t107 -155.5q139 213 371 213q143 0 231.5 -92.5t88.5 -233.5q0 -80 -58 -297q-49 -172 -49 -221q0 -41 20.5 -59.5t63.5 -22.5q6 0 -1 -25.5t-39 -51t-87 -25.5q-78 0 -119 42 t-41 117q0 74 52 254q47 174 47 238q0 92 -49.5 146.5t-131.5 54.5q-88 0 -152.5 -41t-125.5 -136l-137 -657h-203l117 559q9 43 9 81q0 68 -31 117q-48 77 -146 77q-88 0 -151.5 -42t-125.5 -137l-139 -655h-203z" />
<glyph unicode="n" horiz-adv-x="1210" d="M53 0l209 983q4 10 51 10q117 0 117 -118q0 -23 -4 -50q121 184 330 185q156 0 245 -90.5t89 -235.5q0 -86 -60 -297q-49 -172 -49 -221q0 -41 20.5 -59.5t63.5 -22.5q6 0 -1 -25.5t-39 -51t-85 -25.5q-78 0 -120 42t-42 117q0 59 51 254q49 168 50 238q0 94 -51.5 147.5 t-145.5 53.5t-161.5 -47.5t-129.5 -149.5l-135 -637h-203z" />
<glyph unicode="o" horiz-adv-x="1204" d="M94 430q0 236 157 408t400 172q203 0 332 -128t129 -327q0 -236 -156.5 -408t-400.5 -172q-203 0 -332 128t-129 327zM281 438q0 -129 80.5 -215t201.5 -86q154 0 258.5 122t104.5 288q0 129 -81 215t-202 86q-154 0 -258 -122t-104 -288z" />
<glyph unicode="p" horiz-adv-x="1263" d="M-27 -389l289 1372q4 10 51 10q116 0 116 -117q0 -26 -5 -57q133 190 348 191q166 0 281.5 -115t115.5 -315q0 -154 -64.5 -291t-188 -225.5t-275.5 -88.5q-123 0 -213 58.5t-133 148.5l-121 -571h-201zM356 471q-6 -33 -6 -64q0 -94 57 -167q75 -98 220 -99 q156 0 249 127t93 295q0 129 -73 205t-179 76q-98 0 -184.5 -55.5t-139.5 -145.5z" />
<glyph unicode="q" horiz-adv-x="1267" d="M100 406q0 240 149.5 422t379.5 182q117 0 208 -50.5t142 -140.5q20 94 57 134t103 40q18 0 36.5 -5t27.5 -10t9 -9l-288 -1358h-203l115 543q-133 -178 -338 -179q-166 0 -282 115t-116 316zM299 422q0 -127 72.5 -203t179.5 -76q125 0 223 88t127 226l35 164 q-39 111 -106.5 168t-184.5 57q-158 0 -252 -128t-94 -296z" />
<glyph unicode="r" horiz-adv-x="831" d="M53 0l209 983q4 10 51 10q115 0 116 -119q0 -25 -5 -55q102 190 270 191q68 0 113 -31t45 -82q0 -45 -21.5 -78t-42 -45t-24.5 -8q-47 55 -131 55q-205 0 -293 -420l-84 -401h-203z" />
<glyph unicode="s" horiz-adv-x="1003" d="M35 207q0 33 19.5 58.5t40 35.5t24.5 6q53 -78 141 -128t199 -50q94 0 147 37t53 100q0 51 -46 81t-154 67q-68 25 -108 43t-89 52t-72.5 82t-23.5 111q0 135 104.5 221.5t278.5 86.5q225 0 342 -121q51 -49 51 -103q0 -35 -21.5 -61.5t-44 -34.5t-26.5 -2 q-43 74 -125 121t-178 47q-90 0 -140.5 -39t-50.5 -94q0 -53 48.5 -85t164.5 -75q70 -25 110 -44t89 -52t71.5 -79t22.5 -105q0 -139 -105.5 -223.5t-289.5 -84.5q-248 0 -381 129q-51 52 -51 103z" />
<glyph unicode="t" horiz-adv-x="819" d="M131 819q2 18 10 53q10 61 21 93l4 20h160l16 80q18 90 54 129t102 39q12 0 24.5 -2t21.5 -5t16 -6t10 -6.5t3 -5.5l-47 -223h305l-12 -51l-18 -94l-4 -21h-308l-102 -475q-9 -45 -9 -81q0 -128 122 -128q76 0 129 58q4 2 13 -6.5t17.5 -28t8.5 -39.5q0 -47 -39 -86 q-59 -59 -183 -60q-156 0 -224 96q-45 62 -44 158q0 52 12 113l101 479h-160z" />
<glyph unicode="u" horiz-adv-x="1212" d="M135 428l117 557h203l-117 -555q-11 -46 -11 -85q0 -68 31 -117q49 -77 162 -76q94 0 163 47t130 149l135 637h201l-160 -760q-8 -39 -8 -66t8 -43q16 -32 80 -38q6 0 0 -24.5t-37 -48t-84 -23.5q-168 0 -168 163v19q-121 -188 -331 -189q-190 0 -274 124q-55 82 -55 199 q0 60 15 130z" />
<glyph unicode="v" horiz-adv-x="1075" d="M82 872q-3 0 -3 8t3 23q6 31 39 62.5t92 31.5q76 0 125 -47q66 -68 88 -280l51 -459l457 784q2 4 36 0t68.5 -28.5t34.5 -69.5q0 -41 -47 -119l-487 -778h-209l-94 672q-14 113 -50 155.5t-104 44.5z" />
<glyph unicode="w" horiz-adv-x="1552" d="M111 908q6 30 40.5 59.5t96.5 29.5q72 0 117 -45q70 -70 69 -269v-11l-6 -459l281 567q25 49 55.5 66.5t81.5 17.5q119 0 127 -110l45 -543l362 784q2 2 14 3q8 0 21 -2q31 -3 66 -26q39 -27 39 -76q0 -37 -35 -106l-400 -788h-204l-68 627l-332 -627h-221l-8 676 q-2 111 -35 153.5t-104 49.5q-5 0 -5 9q0 7 3 20z" />
<glyph unicode="x" horiz-adv-x="1071" d="M14 82q0 55 76 123l309 295l-247 485h219l180 -389l399 410h2q7 0 28 -8q26 -9 53.5 -34.5t27.5 -60.5q0 -55 -76 -123l-336 -321l82 -162q51 -102 93 -132t118 -34q0 -1 0.5 -6.5t0.5 -14.5v-18q0 -30 -35 -65q-36 -37 -97 -37q-80 0 -137.5 52t-122.5 204l-51 116 l-375 -382l-2 -1q-5 0 -27 8q-27 9 -54.5 34.5t-27.5 60.5z" />
<glyph unicode="y" horiz-adv-x="1079" d="M-127 -287q0 23 13.5 45.5t26.5 33.5t17 9q43 -49 113 -49q61 0 125.5 55.5t169.5 206.5l29 43q-63 12 -76 97l-58 518q-12 106 -47.5 152t-103.5 48q-6 0 0 31t40 62.5t99 31.5q174 0 203 -327l41 -467l450 782h203l-604 -1028q-115 -195 -218 -284t-220 -89 q-119 0 -170 54q-33 30 -33 75z" />
<glyph unicode="z" horiz-adv-x="1060" d="M20 0l21 102q16 76 76 129l649 592h-463q-102 0 -102 68q0 18 8 41.5t17.5 38t11.5 14.5h790q-12 -51 -22 -102q-8 -43 -22.5 -69t-53.5 -58l-647 -594h485q102 0 102 -68q0 -18 -8 -41.5t-17 -38t-11 -14.5h-814z" />
<glyph unicode="{" horiz-adv-x="956" d="M78 436q0 102 51 152q25 25 104 53l125 49q72 311 246 486q158 160 340 159q102 0 103 -86q0 -18 -8.5 -36.5t-17.5 -28.5t-11 -10q-164 -6 -281 -127q-125 -121 -201 -463l-266 -111l211 -151q-17 -108 -17 -197q0 -211 97 -307q55 -51 145 -74q16 -8 17 -53 q0 -100 -107 -101q-109 0 -200 93q-88 88 -125 234q-25 98 -25 208q0 55 6 115l-100 73q-53 39 -69.5 62.5t-16.5 60.5z" />
<glyph unicode="|" horiz-adv-x="593" d="M27 -301l327 1542q20 96 105 96h24q43 0 63 -26q13 -17 13 -45q0 -14 -4 -31l-328 -1542q-20 -98 -106 -99h-25q-41 0 -60 28q-13 18 -13 46q0 14 4 31z" />
<glyph unicode="}" horiz-adv-x="956" d="M-102 -324q0 18 8 37t16 29t10 10q158 6 283 127q121 123 201 463l266 111l-213 153q17 107 17 195q0 210 -97 307q-47 49 -143 76q-18 8 -19 51q0 100 109 100q106 0 199 -92q150 -149 150 -430q0 -60 -7 -127l100 -72q53 -37 69.5 -61.5t16.5 -63.5q0 -100 -49 -151 q-25 -25 -104 -53l-125 -47q-76 -315 -248 -488q-160 -160 -340 -160q-100 0 -100 86z" />
<glyph unicode="~" horiz-adv-x="1093" d="M219 397q0 80 58.5 144.5t125.5 64.5q127 0 277 -153q66 141 121 141q31 0 48 -17.5t17 -41.5q0 -80 -58 -144.5t-126 -64.5q-127 0 -276 153q-66 -141 -121 -141q-31 0 -48.5 17t-17.5 42z" />
<glyph unicode="&#xa1;" horiz-adv-x="602" d="M66 -4l260 887q20 59 59 59t51.5 -16.5t9.5 -61.5l-114 -868h-266zM328 1178q0 88 43 129q33 33 98 32q117 0 117 -86q0 -90 -41 -129q-33 -33 -101 -32q-116 0 -116 86z" />
<glyph unicode="&#xa2;" horiz-adv-x="1175" d="M137 514q0 227 156 399t383 185l35 155q18 98 86 99h10q41 0 65 -24q17 -17 18 -47q0 -13 -3 -28l-37 -170q127 -29 209 -110q80 -78 80 -168q0 -51 -37 -80q-33 -26 -63 -26h-6q-32 3 -38 8q-33 164 -188 206l-148 -688q168 12 263 166q4 4 29.5 -2t52 -30.5t26.5 -59.5 q0 -55 -63 -117q-121 -125 -336 -127l-33 -161q-23 -96 -86 -97h-12q-41 0 -65 23q-16 16 -16 45q0 13 3 29l37 182q-147 43 -234.5 156.5t-87.5 281.5zM334 528q0 -98 45 -172.5t127 -107.5l143 674q-139 -23 -227 -138t-88 -256z" />
<glyph unicode="&#xa3;" horiz-adv-x="1218" d="M18 55q0 63 35 99q20 23 72 22h88l102 350h-131q-74 0 -73 49q0 59 32 93q23 23 72 22h147l62 211q72 242 178.5 346.5t280.5 104.5t272 -99q66 -63 66 -139q0 -51 -31 -79.5t-60.5 -35t-31.5 -0.5q-43 180 -221 181q-94 0 -157 -70t-114 -246l-51 -174h303q80 0 80 -53 q0 -59 -31 -90q-23 -20 -71 -21h-330l-100 -350h585q109 0 109 -74q0 -20 -9.5 -45.5t-18.5 -41t-11 -15.5h-957q-86 0 -86 55z" />
<glyph unicode="&#xa4;" horiz-adv-x="1355" d="M96 481q0 49 27 80q25 20 65 21h109q10 66 35 170h-92q-76 0 -76 47q0 51 26 78q20 20 66 20h123q70 180 170 281q174 174 420 174q205 0 325 -121q70 -70 70 -162q0 -49 -29.5 -80t-60.5 -38t-33 1q-66 223 -293 224q-150 0 -256 -107q-59 -59 -108 -172h387 q76 0 76 -45q0 -55 -29 -80q-20 -20 -64 -20h-422q-23 -82 -32 -170h403q76 0 76 -47q0 -51 -29 -80q-20 -20 -63 -21h-391q16 -127 94 -205.5t205 -78.5q182 0 315 180q4 4 25.5 -5.5t43 -35t21.5 -56.5q0 -59 -65 -124q-59 -57 -153.5 -95.5t-195.5 -38.5q-225 0 -354 123 t-141 336h-121q-74 0 -74 47z" />
<glyph unicode="&#xa5;" d="M106 279q0 55 29 83q20 20 68 21h317l29 139h-303q-78 0 -78 49q0 53 29 82q20 20 67 21h254l-254 588q-2 8 12.5 24.5t45 31.5t63.5 15q74 0 104 -86l193 -510l471 604q1 1 3 1q7 0 30 -5q31 -6 62.5 -31.5t31.5 -68.5q0 -55 -72 -135l-370 -428h237q78 0 78 -47 q0 -55 -29 -84q-20 -20 -67 -21h-318l-30 -139h305q78 0 78 -49q0 -53 -29 -82q-20 -20 -68 -21h-317l-31 -143q-20 -96 -108 -96h-9q-75 0 -75 66q0 15 4 32l28 141h-303q-78 1 -78 48z" />
<glyph unicode="&#xa7;" horiz-adv-x="1179" d="M-16 -90q0 37 23.5 66.5t48 41t26.5 7.5q47 -94 148.5 -151.5t246.5 -57.5q121 0 184.5 45t63.5 123q0 88 -229 172l-31 12q-84 29 -129 48.5t-106.5 56t-90 88t-28.5 116.5q0 119 76.5 199t197.5 110q-121 80 -121 215q0 156 123 252.5t328 96.5q256 0 379 -123 q57 -57 57 -113q0 -37 -24.5 -65.5t-50 -40t-29.5 -4.5q-104 186 -338 186q-113 0 -177.5 -44t-64.5 -114q0 -25 7 -45t30 -39l38 -30q15 -12 56 -30t60 -25l73 -27q72 -27 101.5 -39.5t87 -42t84 -56t49 -69.5t22.5 -94q0 -123 -74.5 -202t-197.5 -110q127 -74 127 -211 q0 -158 -124 -257t-343 -99q-289 0 -420 131q-59 60 -59 123zM301 526q0 -41 18.5 -71.5t65.5 -57t80 -40t110 -40.5l76 -24q96 6 165 60.5t69 133.5q0 49 -40 87t-78 54.5t-132 49.5q-10 4 -17 6q-61 20 -92 33q-98 -14 -161.5 -64.5t-63.5 -126.5z" />
<glyph unicode="&#xa8;" horiz-adv-x="1093" d="M393 1217q0 59 35 100t94 41q119 0 119 -98q0 -59 -35 -100.5t-92 -41.5q-121 1 -121 99zM768 1217q0 59 35 100t94 41q121 0 121 -98q0 -59 -35 -100.5t-94 -41.5q-121 1 -121 99z" />
<glyph unicode="&#xa9;" horiz-adv-x="1613" d="M166 659q0 299 192.5 496t485.5 197q297 0 486.5 -192.5t189.5 -493.5q0 -299 -192.5 -496t-485.5 -197q-297 0 -486.5 192.5t-189.5 493.5zM285 664q0 -250 159.5 -415t401.5 -165q246 0 400.5 161t154.5 417q0 250 -160 414.5t-401 164.5q-246 0 -400.5 -160.5 t-154.5 -416.5zM494 659q0 158 105.5 263.5t260.5 105.5q147 0 236 -84q37 -39 37 -82q0 -25 -19.5 -45t-40 -28.5t-22.5 -4.5q-61 102 -191 103q-86 0 -148.5 -64.5t-62.5 -160.5q0 -98 62.5 -163t154.5 -65q133 0 191 111q4 4 24.5 -3t40 -28.5t19.5 -48.5q0 -43 -45 -90 q-84 -84 -236 -84q-162 0 -264 103t-102 265z" />
<glyph unicode="&#xaa;" horiz-adv-x="1095" d="M162 852q0 195 127 347.5t313 152.5q88 0 158.5 -40t105.5 -112q16 74 49 106.5t89 32.5q16 0 31.5 -4t24.5 -9t7 -9l-125 -592q-7 -32 -7 -55q0 -21 6 -34q13 -28 63 -32q4 -2 -1.5 -20.5t-31 -38t-72.5 -19.5q-74 0 -108 42q-31 38 -32 101q0 7 1 15 q-102 -164 -291 -164q-133 0 -220 89t-87 243zM313 63.5q0 77.5 37 114.5q29 31 90 31q104 0 104.5 -78t-38.5 -117q-33 -29 -88 -28q-105 0 -105 77.5zM336 870q0 -92 53 -147t133 -55q100 0 180 73.5t105 180.5l24 120q-53 168 -215 168q-125 0 -202.5 -104.5 t-77.5 -235.5z" />
<glyph unicode="&#xab;" horiz-adv-x="1132" d="M125 524q0 12 56.5 70.5t129.5 118.5q158 127 234 127q33 0 51 -18.5t18 -49.5q0 -76 -178 -184q-125 -76 -147 -88q63 -45 125 -105q125 -113 127 -164q2 -29 -20.5 -49t-57.5 -20q-88 0 -205 147q-53 68 -93 134.5t-40 80.5zM555 504q0 12 64.5 75.5t142.5 125.5 q168 137 248 137q33 0 52 -18.5t19 -49.5q0 -39 -58 -95t-149 -110q-113 -70 -155 -90q66 -47 110 -90q109 -102 109 -151q0 -31 -23.5 -52.5t-60.5 -21.5q-82 0 -186 139q-43 57 -78 122t-35 79z" />
<glyph unicode="&#xad;" horiz-adv-x="874" d="M98 406l17 77l6 29l16 80h637q-6 -33 -16 -80l-6 -29l-17 -77h-637z" />
<glyph unicode="&#xae;" horiz-adv-x="1613" d="M166 659q0 299 192.5 496t485.5 197q297 0 486.5 -192.5t189.5 -493.5q0 -299 -192.5 -496t-485.5 -197q-297 0 -486.5 192.5t-189.5 493.5zM285 664q0 -250 159.5 -415t401.5 -165q246 0 400.5 161t154.5 417q0 250 -160 414.5t-401 164.5q-246 0 -400.5 -160.5 t-154.5 -416.5zM571 391v545q0 86 80 86h217q287 0 287 -225q0 -92 -54 -145.5t-138 -67.5l182 -222q4 -6 -6.5 -19t-33 -26.5t-46.5 -13.5q-57 0 -98 57l-156 205h-80v-188q0 -72 -68 -72h-20q-66 0 -66 86zM721 684h145q66 0 100.5 28.5t34.5 78.5q0 106 -141 106h-139 v-213z" />
<glyph unicode="&#xaf;" horiz-adv-x="1093" d="M383 1204q0 61 31 94q20 20 73 21h459q84 0 84 -53q0 -59 -33 -92q-20 -23 -73 -23h-459q-82 0 -82 53z" />
<glyph unicode="&#xb0;" horiz-adv-x="862" d="M197 983q0 152 103 261.5t259 109.5q127 0 209 -77t82 -202q0 -152 -103.5 -260t-259.5 -108q-127 0 -208.5 75.5t-81.5 200.5zM342 993q0 -68 46 -113.5t118 -45.5q82 0 140.5 70.5t58.5 162.5q0 68 -46.5 114t-117.5 46q-82 0 -140.5 -71t-58.5 -163z" />
<glyph unicode="&#xb1;" horiz-adv-x="1298" d="M141 248q0 59 33 92q23 23 72 22h731q84 0 84 -53q0 -63 -33 -92q-23 -23 -72 -22h-731q-84 0 -84 53zM289 862q0 57 30 88q23 23 70 23h277l55 264q16 86 82 86h20q37 0 57 -23q14 -16 13 -42q0 -11 -2 -25l-55 -260h260q80 0 80 -53q0 -59 -31 -89q-23 -23 -70 -22 h-274l-53 -254q-20 -86 -84 -86h-21q-37 0 -56 23q-13 15 -13 39q0 13 4 28l53 250h-260q-82 0 -82 53z" />
<glyph unicode="&#xb2;" horiz-adv-x="757" d="M68 680q12 111 79 182q59 63 207 113l69 23q22 7 52.5 21.5t42.5 27t22.5 31t10.5 40.5q0 41 -36 65.5t-93 24.5q-115 0 -166 -121q-2 -2 -24.5 0.5t-46 21.5t-23.5 54q0 55 49 101q82 78 231 77q121 0 194 -57t73 -156q0 -106 -65.5 -158t-197.5 -93q-156 -49 -198 -93 q-29 -29 -37 -69h340q84 0 84 -56q0 -16 -7 -34.5t-14.5 -29.5t-9.5 -11h-475q-33 0 -49 26q-13 21 -13 53q0 8 1 17z" />
<glyph unicode="&#xb3;" horiz-adv-x="757" d="M53 737q0 41 25.5 65.5t49.5 24.5h28q23 -131 178 -131q74 0 113.5 35t39.5 88q0 90 -116 90h-37q-59 0 -60 45q0 39 21 58q14 18 70 18h45q135 0 135 96q0 39 -36 63.5t-93 24.5q-117 0 -172 -100h-24q-19 0 -41.5 18.5t-22.5 49.5q0 41 37 78q82 82 233 81 q119 0 197.5 -53t78.5 -137q0 -156 -170 -188q113 -43 113 -154q0 -100 -75.5 -170t-235.5 -70q-162 0 -236 74q-45 43 -45 94z" />
<glyph unicode="&#xb4;" horiz-adv-x="1093" d="M532 1137q-6 8 35 59t111 115.5t133 101.5q49 31 100 31q39 0 63.5 -24.5t24.5 -61.5q0 -63 -94 -119q-72 -41 -164 -70.5t-142.5 -33.5t-66.5 2z" />
<glyph unicode="&#xb6;" horiz-adv-x="1290" d="M162 895q0 193 127 311.5t391 118.5h248q49 0 71 -28q15 -19 16 -47q0 -13 -3 -27l-246 -1157q-16 -74 -82 -74h-20q-35 0 -50.5 21.5t-7.5 60.5l107 506h-105q-217 0 -331.5 79.5t-114.5 235.5zM883 74l252 1183q14 74 79 74h23q60 0 60 -55q0 -12 -3 -27l-252 -1183 q-16 -74 -81 -74h-21q-35 0 -50 21q-10 14 -10 36q0 11 3 25z" />
<glyph unicode="&#xb7;" horiz-adv-x="544" d="M145 463q0 88 43 129q33 33 99 33q117 0 116 -86q0 -90 -41 -129q-33 -33 -100 -33q-117 0 -117 86z" />
<glyph unicode="&#xb8;" horiz-adv-x="1093" d="M182 -424l209 332q2 2 12.5 2t29.5 -2q38 -4 76 -26.5t38 -61.5q0 -53 -66 -111l-215 -188q-7 -7 -18 -7q-16 0 -40 15q-29 18 -30 35q0 6 4 12z" />
<glyph unicode="&#xb9;" horiz-adv-x="757" d="M100 690q16 31 72 31h121l96 420q-47 -43 -104 -43q-47 0 -73 24.5t-26 63.5q0 31 13.5 54.5t27 33.5t17.5 8q35 -43 88 -43q37 0 70.5 25.5t50.5 68.5h61q58 0 58 -53q0 -11 -3 -25l-123 -534h113q70 0 64 -53q0 -33 -19 -54q-14 -31 -69 -30h-388q-33 0 -50 14 q-16 13 -15 34q-1 39 18 58z" />
<glyph unicode="&#xba;" horiz-adv-x="985" d="M172 887q0 188 125 326.5t319 138.5q168 0 271.5 -101.5t103.5 -265.5q0 -188 -126 -326.5t-322 -138.5q-166 0 -268.5 101.5t-102.5 265.5zM285 63q0 76 37 115q29 31 92 31q104 0 104 -78q0 -76 -39 -117q-33 -29 -90 -28q-104 -1 -104 77zM334 891q0 -98 62.5 -163.5 t152.5 -65.5q117 0 197.5 94t80.5 223q0 98 -62.5 163.5t-154.5 65.5q-117 0 -196.5 -94t-79.5 -223z" />
<glyph unicode="&#xbb;" horiz-adv-x="1132" d="M55 225q0 39 58.5 95.5t146.5 109.5l73 43q52 31 83 47q-55 41 -109 90q-109 100 -108 152q0 31 23.5 51.5t58.5 20.5q88 0 186 -138q45 -59 80 -122.5t35 -77.5q0 -10 -64.5 -75t-142.5 -128q-170 -135 -248 -135q-72 -1 -72 67zM522 227q0 78 178 185q115 72 148 88 q-45 33 -127 102q-70 66 -97.5 99.5t-27.5 66.5q-2 29 20.5 49.5t57.5 20.5q90 0 203 -148q51 -66 92 -133.5t41 -81.5q0 -8 -23.5 -35.5t-68 -69.5t-93.5 -83q-156 -127 -235 -127q-31 0 -49.5 18t-18.5 49z" />
<glyph unicode="&#xbc;" horiz-adv-x="1691" d="M100 690q16 31 72 31h121l96 420q-47 -43 -104 -43q-47 0 -73 24.5t-26 63.5q0 31 13.5 54.5t27 33.5t17.5 8q35 -43 88 -43q37 0 70.5 25.5t50.5 68.5h61q58 0 58 -53q0 -11 -3 -25l-123 -534h113q70 0 64 -53q0 -33 -19 -54q-14 -31 -69 -30h-388q-33 0 -50 14 q-16 13 -15 34q-1 39 18 58zM205 20q10 43 74 107q16 18 100 98l215 206l215 208l684 659l2 1q4 0 17 -6q17 -7 33 -26.5t9 -45.5q-10 -45 -73 -107l-533 -516l-678 -657q-2 -1 -5 -2q-7 0 -19 6q-18 8 -32 28q-10 16 -10 35q0 6 1 12zM1006 276q0 41 61 115l274 295 q35 39 59.5 51.5t80.5 12.5q68 0 94 -26q17 -17 17 -48q0 -17 -5 -37l-69 -328h57q61 0 61 -43t-24 -67q-16 -16 -56 -17h-65l-25 -114q-8 -43 -24.5 -60.5t-44.5 -17.5h-21q-62 0 -62 48q0 14 5 32l22 112h-286q-4 0 -15.5 11.5t-22.5 33.5t-11 47zM1145 309h231l68 324z " />
<glyph unicode="&#xbd;" horiz-adv-x="1691" d="M100 690q16 31 72 31h121l96 420q-47 -43 -104 -43q-47 0 -73 24.5t-26 63.5q0 31 13.5 54.5t27 33.5t17.5 8q35 -43 88 -43q37 0 70.5 25.5t50.5 68.5h61q58 0 58 -53q0 -11 -3 -25l-123 -534h113q70 0 64 -53q0 -33 -19 -54q-14 -31 -69 -30h-388q-33 0 -50 14 q-16 13 -15 34q-1 39 18 58zM147 20q10 43 74 107q16 18 101 98l215 206l215 208l684 659l1 1q4 0 18 -6q17 -7 32.5 -26.5t9.5 -45.5q-10 -45 -74 -107l-532 -516l-678 -657q-2 -1 -5 -2q-7 0 -20 6q-18 8 -31 28q-10 16 -11 35q0 6 1 12zM1001 96q12 111 80 183 q59 63 207 112l69 24q22 7 52.5 21.5t42.5 26.5t22.5 30.5t10.5 41.5q0 41 -36 65.5t-93 24.5q-115 0 -166 -121q-2 -2 -24.5 0t-46 21.5t-23.5 54.5q0 55 49 100q82 78 231 78q121 0 193.5 -57.5t72.5 -155.5q0 -106 -65.5 -158.5t-196.5 -93.5q-156 -49 -198 -92 q-29 -29 -37 -70h340q84 0 84 -55q0 -16 -7.5 -34.5t-14.5 -30t-9 -11.5h-475q-33 0 -49 27q-13 21 -13 53q-1 7 0 16z" />
<glyph unicode="&#xbe;" horiz-adv-x="1691" d="M53 737q0 41 25.5 65.5t49.5 24.5h28q23 -131 178 -131q74 0 113.5 35t39.5 88q0 90 -116 90h-37q-59 0 -60 45q0 39 21 58q14 18 70 18h45q135 0 135 96q0 39 -36 63.5t-93 24.5q-117 0 -172 -100h-24q-19 0 -41.5 18.5t-22.5 49.5q0 41 37 78q82 82 233 81 q119 0 197.5 -53t78.5 -137q0 -156 -170 -188q113 -43 113 -154q0 -100 -75.5 -170t-235.5 -70q-162 0 -236 74q-45 43 -45 94zM197 20q10 43 73 107q16 18 101 98l215 206l215 208l684 659l1 1q4 0 18 -6q17 -7 32.5 -26.5t9.5 -45.5q-10 -45 -73 -107l-533 -516l-678 -657 q-2 -1 -5 -2q-7 0 -19 6q-18 8 -32 28q-10 16 -10 35q0 6 1 12zM1006 276q0 41 61 115l274 295q35 39 59.5 51.5t80.5 12.5q68 0 94 -26q17 -17 17 -48q0 -17 -5 -37l-69 -328h57q61 0 61 -43t-24 -67q-16 -16 -56 -17h-65l-25 -114q-8 -43 -24.5 -60.5t-44.5 -17.5h-21 q-62 0 -62 48q0 14 5 32l22 112h-286q-4 0 -15.5 11.5t-22.5 33.5t-11 47zM1145 309h231l68 324z" />
<glyph unicode="&#xbf;" horiz-adv-x="1050" d="M51 334q0 84 30 149.5t84 106.5t101 63.5t113 42.5q182 59 205 168l18 82h184l-22 -100q-20 -98 -79.5 -167t-178.5 -110q-131 -43 -188.5 -92t-57.5 -137q0 -86 63.5 -142.5t172.5 -56.5q106 0 183 61.5t116 164.5q2 6 30.5 -0.5t58 -31t29.5 -63.5q0 -86 -84 -170 q-133 -133 -346 -133q-195 0 -313.5 103.5t-118.5 261.5zM590 1174q0 88 43 129q31 33 98 32q117 0 117 -86q0 -88 -41 -129q-33 -33 -100 -33q-117 1 -117 87z" />
<glyph unicode="&#xc0;" horiz-adv-x="1361" d="M-68 0l762 1274q20 35 49 50t86 15q70 0 98.5 -19.5t37.5 -57.5l249 -1262h-215l-75 389h-533l-223 -389h-236zM477 559h426l-102 559zM541 1716q0 37 26.5 62.5t65.5 25.5q49 0 100 -41q57 -43 111.5 -109.5t82.5 -117.5q23 -42 22 -55q0 -3 -1 -4q-4 -5 -21 -6 q-15 0 -39 5q-52 9 -131 40.5t-141 78.5q-75 55 -75 121z" />
<glyph unicode="&#xc1;" horiz-adv-x="1361" d="M-68 0l762 1274q20 35 49 50t86 15q70 0 98.5 -19.5t37.5 -57.5l249 -1262h-215l-75 389h-533l-223 -389h-236zM477 559h426l-102 559zM735 1477q-6 8 35 59t110.5 115.5t133.5 101.5q49 31 100 31q39 0 63.5 -24.5t24.5 -61.5q0 -63 -94 -119q-72 -41 -164 -70.5 t-142 -33.5q-20 -2 -35 -2q-22 0 -32 4z" />
<glyph unicode="&#xc2;" horiz-adv-x="1361" d="M-68 0l762 1274q20 35 49 50t86 15q70 0 98.5 -19.5t37.5 -57.5l249 -1262h-215l-75 389h-533l-223 -389h-236zM477 559h426l-102 559zM565 1518q0 70 135 180q63 51 127 90t84 43q14 -4 59.5 -43t82.5 -86q84 -100 84 -162q0 -37 -20.5 -58.5t-51.5 -21.5 q-57 0 -127 123q-2 2 -21.5 37t-29.5 57q-61 -70 -88 -96q-109 -121 -174 -121q-29 0 -44.5 16.5t-15.5 41.5z" />
<glyph unicode="&#xc3;" horiz-adv-x="1361" d="M-68 0l762 1274q20 35 49 50t86 15q70 0 98.5 -19.5t37.5 -57.5l249 -1262h-215l-75 389h-533l-223 -389h-236zM477 559h426l-102 559zM539 1530q0 80 58 144.5t126 64.5q127 0 276 -154q66 141 121 141q31 0 48.5 -17t17.5 -42q0 -80 -58.5 -144.5t-126.5 -64.5 q-127 0 -276 154q-66 -141 -121 -142q-31 0 -48 17.5t-17 42.5z" />
<glyph unicode="&#xc4;" horiz-adv-x="1361" d="M-68 0l762 1274q20 35 49 50t86 15q70 0 98.5 -19.5t37.5 -57.5l249 -1262h-215l-75 389h-533l-223 -389h-236zM477 559h426l-102 559zM549 1556q0 59 34.5 100.5t94.5 41.5q119 0 119 -99q0 -59 -35 -100t-92 -41q-121 0 -121 98zM924 1556q0 59 34.5 100.5t94.5 41.5 q121 0 121 -99q0 -59 -35 -100t-95 -41q-120 0 -120 98z" />
<glyph unicode="&#xc5;" horiz-adv-x="1361" d="M-68 0l734 1227q0 2 2 4l26 43l4 4q-84 57 -84 166q0 113 78 194.5t195 81.5q104 0 168.5 -58t64.5 -151q0 -80 -43 -148.5t-112 -102.5l10 -48h-2l241 -1212h-215l-75 389h-533l-223 -389h-236zM477 559h426l-102 559zM739 1452q0 -47 32 -80t81 -33q63 0 103 48.5 t40 109.5q0 47 -31.5 80t-80.5 33q-63 0 -103.5 -48.5t-40.5 -109.5z" />
<glyph unicode="&#xc6;" horiz-adv-x="1828" d="M14 92q0 43 49 129l611 1018q27 45 60.5 65.5t94.5 20.5h940q92 0 93 -59q0 -68 -37 -105q-20 -23 -82 -22h-758l76 -373h455q86 0 86 -55q0 -63 -33 -101q-27 -23 -78 -22h-395l80 -402h385q92 0 92 -57q0 -66 -37 -106q-23 -23 -82 -23h-416q-68 0 -100.5 24.5 t-42.5 88.5l-51 276h-533l-227 -399q-6 2 -40 -1q-3 0 -7 -1q-31 0 -65 25q-38 28 -38 79zM477 559h426l-102 559z" />
<glyph unicode="&#xc7;" horiz-adv-x="1398" d="M147 553q0 326 214 561.5t530 235.5q266 0 407 -146q86 -84 86 -166q0 -49 -32.5 -79.5t-66.5 -37t-40 0.5q-90 242 -356 241q-219 0 -369.5 -172t-150.5 -411q0 -188 110.5 -302t288.5 -114q256 0 381 194q4 6 29.5 -3t51 -36.5t25.5 -64.5q0 -57 -65.5 -122.5 t-181 -111t-248.5 -45.5q-279 0 -446 156t-167 422zM469 -424l209 332q2 2 12.5 2t29.5 -2q38 -4 76 -26.5t38 -61.5q0 -53 -66 -111l-215 -188q-7 -7 -18 -7q-16 0 -40 15q-29 18 -30 35q0 6 4 12z" />
<glyph unicode="&#xc8;" horiz-adv-x="1271" d="M70 0l258 1208q23 117 137 117h866l-8 -47l-20 -92l-11 -47h-768l-80 -373h623l-37 -178h-624l-84 -402h780l-39 -186h-993zM598 1716q0 37 26.5 62.5t65.5 25.5q49 0 101 -41q57 -43 111 -109.5t82 -117.5q23 -42 23 -55q0 -3 -1 -4q-4 -5 -21 -6q-15 0 -40 5 q-52 9 -131 40.5t-140 78.5q-76 55 -76 121z" />
<glyph unicode="&#xc9;" horiz-adv-x="1271" d="M70 0l258 1208q23 117 137 117h866l-8 -47l-20 -92l-11 -47h-768l-80 -373h623l-37 -178h-624l-84 -402h780l-39 -186h-993zM723 1477q-6 8 35 59t110.5 115.5t132.5 101.5q49 31 101 31q39 0 63.5 -24.5t24.5 -61.5q0 -63 -94 -119q-72 -41 -164 -70.5t-142 -33.5 q-20 -2 -35 -2q-22 0 -32 4z" />
<glyph unicode="&#xca;" horiz-adv-x="1271" d="M70 0l258 1208q23 117 137 117h866l-8 -47l-20 -92l-11 -47h-768l-80 -373h623l-37 -178h-625l-83 -402h780l-39 -186h-993zM588 1518q0 70 135 180q63 51 126.5 90t84.5 43q14 -4 59 -43t82 -86q84 -100 84 -162q0 -37 -20.5 -58.5t-51.5 -21.5q-57 0 -126 123 q-2 2 -21.5 37t-30.5 57q-61 -70 -88 -96q-109 -121 -174 -121q-29 0 -44 16.5t-15 41.5z" />
<glyph unicode="&#xcb;" horiz-adv-x="1271" d="M70 0l258 1208q23 117 137 117h866l-8 -47l-20 -92l-11 -47h-768l-80 -373h623l-37 -178h-624l-84 -402h780l-39 -186h-993zM555 1556q0 59 35 100.5t94 41.5q119 0 119 -99q0 -59 -35 -100t-92 -41q-121 0 -121 98zM930 1556q0 59 34.5 100.5t94.5 41.5q121 0 121 -99 q0 -59 -35 -100t-94 -41q-121 0 -121 98z" />
<glyph unicode="&#xcc;" horiz-adv-x="600" d="M90 0l283 1325h211l-283 -1325h-211zM190 1716q0 37 27 62.5t66 25.5q49 0 100 -41q57 -43 111.5 -109.5t82.5 -117.5q23 -42 22 -55q0 -3 -1 -4q-4 -5 -21 -6q-15 0 -39 5q-52 9 -131 40.5t-141 78.5q-76 55 -76 121z" />
<glyph unicode="&#xcd;" horiz-adv-x="600" d="M90 0l283 1325h211l-283 -1325h-211zM395 1477q-6 8 35 59t110.5 115.5t133.5 101.5q49 31 100 31q39 0 63.5 -24.5t24.5 -61.5q0 -63 -94 -119q-72 -41 -164 -70.5t-142 -33.5q-20 -2 -35 -2q-22 0 -32 4z" />
<glyph unicode="&#xce;" horiz-adv-x="600" d="M90 0l283 1325h211l-283 -1325h-211zM223 1518q0 70 135 180q63 51 127 90t84 43q14 -4 59.5 -43t82.5 -86q84 -100 84 -162q0 -37 -20.5 -58.5t-51.5 -21.5q-57 0 -127 123q-2 2 -21.5 37t-29.5 57q-61 -70 -88 -96q-109 -121 -174 -121q-29 0 -44.5 16.5t-15.5 41.5z " />
<glyph unicode="&#xcf;" horiz-adv-x="600" d="M90 0l283 1325h211l-283 -1325h-211zM207 1556q0 59 34.5 100.5t94.5 41.5q119 0 119 -99q0 -59 -35 -100t-92 -41q-121 0 -121 98zM582 1556q0 59 34.5 100.5t94.5 41.5q121 0 120 -99q0 -59 -34.5 -100t-94.5 -41q-120 0 -120 98z" />
<glyph unicode="&#xd0;" horiz-adv-x="1513" d="M94 633q0 61 31 92q23 18 65 18h115l101 465q18 117 137 117h239q307 0 479.5 -145.5t172.5 -405.5q0 -334 -215 -554t-613 -220h-319q-115 0 -116 94q0 19 5 43l96 447h-106q-72 0 -72 49zM397 182h240q283 0 431.5 160t148.5 403q0 186 -119 292t-332 106h-166 l-84 -400h346q78 0 78 -49q0 -59 -31 -90q-20 -20 -69 -20h-359z" />
<glyph unicode="&#xd1;" horiz-adv-x="1466" d="M72 0l256 1212q25 121 129 121h35q41 0 64.5 -18.5t47.5 -65.5l453 -932l215 1008h196l-260 -1221q-23 -113 -121 -112h-16q-39 0 -63.5 18.5t-49.5 65.5l-469 966l-221 -1042h-196zM641 1530q0 80 58.5 144.5t125.5 64.5q127 0 277 -154q66 141 121 141q31 0 48 -17 t17 -42q0 -80 -58.5 -144.5t-125.5 -64.5q-127 0 -277 154q-66 -141 -120 -142q-31 0 -48.5 17.5t-17.5 42.5z" />
<glyph unicode="&#xd2;" horiz-adv-x="1566" d="M150 555q0 336 218 566.5t521 230.5q276 0 438 -165t162 -415q0 -336 -218 -565.5t-521 -229.5q-279 0 -439.5 164t-160.5 414zM365 569q0 -176 107.5 -291.5t293.5 -115.5q199 0 352.5 171t153.5 425q0 176 -106.5 291.5t-293.5 115.5q-199 0 -353 -171t-154 -425z M664 1716q0 37 26.5 62.5t65.5 25.5q49 0 100 -41q57 -43 111.5 -109.5t82.5 -117.5q23 -42 22 -55q0 -3 -1 -4q-4 -5 -21 -6q-15 0 -39 5q-52 9 -131 40.5t-141 78.5q-75 55 -75 121z" />
<glyph unicode="&#xd3;" horiz-adv-x="1566" d="M150 555q0 336 218 566.5t521 230.5q276 0 438 -165t162 -415q0 -336 -218 -565.5t-521 -229.5q-279 0 -439.5 164t-160.5 414zM365 569q0 -176 107.5 -291.5t293.5 -115.5q199 0 352.5 171t153.5 425q0 176 -106.5 291.5t-293.5 115.5q-199 0 -353 -171t-154 -425z M768 1477q-6 8 35 59t110.5 115.5t133.5 101.5q49 31 100 31q39 0 63.5 -24.5t24.5 -61.5q0 -63 -94 -119q-72 -41 -164 -70.5t-142 -33.5q-20 -2 -35 -2q-22 0 -32 4z" />
<glyph unicode="&#xd4;" horiz-adv-x="1566" d="M149 555q0 336 218.5 566.5t521.5 230.5q276 0 438 -165t162 -415q0 -336 -218 -565.5t-521 -229.5q-279 0 -440 164t-161 414zM365 569q0 -176 107.5 -291.5t293.5 -115.5q199 0 352.5 171t153.5 425q0 176 -106.5 291.5t-293.5 115.5q-199 0 -353 -171t-154 -425z M661 1518q0 70 136 180q63 51 126.5 90t84.5 43q14 -4 59 -43t82 -86q84 -100 84 -162q0 -37 -20.5 -58.5t-51.5 -21.5q-57 0 -127 123q-2 2 -21.5 37t-29.5 57q-61 -70 -88 -96q-109 -121 -174 -121q-29 0 -44.5 16.5t-15.5 41.5z" />
<glyph unicode="&#xd5;" horiz-adv-x="1566" d="M150 555q0 336 218 566.5t521 230.5q276 0 438 -165t162 -415q0 -336 -218 -565.5t-521 -229.5q-279 0 -439.5 164t-160.5 414zM365 569q0 -176 107.5 -291.5t293.5 -115.5q199 0 352.5 171t153.5 425q0 176 -106.5 291.5t-293.5 115.5q-199 0 -353 -171t-154 -425z M621 1530q0 80 58 144.5t126 64.5q127 0 276 -154q66 141 121 141q31 0 48.5 -17t17.5 -42q0 -80 -58.5 -144.5t-126.5 -64.5q-127 0 -276 154q-66 -141 -121 -142q-31 0 -48 17.5t-17 42.5z" />
<glyph unicode="&#xd6;" horiz-adv-x="1566" d="M150 555q0 336 218 566.5t521 230.5q276 0 438 -165t162 -415q0 -336 -218 -565.5t-521 -229.5q-279 0 -439.5 164t-160.5 414zM365 569q0 -176 107.5 -291.5t293.5 -115.5q199 0 352.5 171t153.5 425q0 176 -106.5 291.5t-293.5 115.5q-199 0 -353 -171t-154 -425z M649 1556q0 59 35 100.5t94 41.5q119 0 119 -99q0 -59 -35 -100t-92 -41q-121 0 -121 98zM1024 1556q0 59 35 100.5t94 41.5q121 0 121 -99q0 -59 -35 -100t-94 -41q-121 0 -121 98z" />
<glyph unicode="&#xd7;" horiz-adv-x="1187" d="M152 221q0 43 38 76l302 254l-189 246q-25 33 -24 61q0 25 28.5 53.5t59.5 28.5q39 0 69 -39l182 -246l293 248q33 31 70 31q25 0 52.5 -31t27.5 -53q0 -43 -39 -76l-299 -252l188 -248q27 -35 27 -61q0 -25 -28.5 -53.5t-59.5 -28.5q-41 0 -70 39l-186 246l-293 -248 q-33 -31 -70 -31q-25 0 -52 30.5t-27 53.5z" />
<glyph unicode="&#xd8;" horiz-adv-x="1566" d="M23 14q0 51 59 105l149 131q-82 139 -81 305q0 336 218 566.5t521 230.5q252 0 416 -152l204 184q2 1 5 2q7 0 20 -8q18 -10 36.5 -32.5t18.5 -47.5q0 -47 -59 -104l-127 -113q86 -139 86 -309q0 -336 -218 -565.5t-521 -229.5q-254 0 -422 154l-226 -201q-2 -1 -4 -1 q-7 0 -20 8q-18 10 -36.5 31t-18.5 46zM360 569q0 -102 33 -182l762 682q-111 100 -283 100q-203 0 -357.5 -172t-154.5 -428zM477 262q109 -104 289 -104q201 0 355.5 173t154.5 427q0 102 -37 186z" />
<glyph unicode="&#xd9;" horiz-adv-x="1396" d="M180 596l135 641q25 96 107 96h29q47 0 66 -27q13 -18 13 -46q0 -14 -4 -31l-137 -649q-16 -76 -16 -138q0 -108 48 -175q75 -105 259 -105q281 0 356 358l154 717q20 96 104 96h27q45 0 65 -27q14 -18 14 -46q0 -14 -3 -29l-156 -737q-111 -518 -579 -519 q-289 0 -418 159q-86 105 -86 274q0 86 22 188zM616 1700q0 37 27 62.5t66 25.5q49 0 100 -41q57 -43 111.5 -109.5t81.5 -117.5q23 -42 23 -55q0 -3 -1 -5q-4 -5 -21 -5q-15 0 -39 4q-52 9 -131 41t-141 79q-76 55 -76 121z" />
<glyph unicode="&#xda;" horiz-adv-x="1396" d="M180 596l135 641q25 96 107 96h29q47 0 66 -27q13 -18 13 -46q0 -14 -4 -31l-137 -649q-16 -76 -16 -138q0 -108 48 -175q75 -105 259 -105q281 0 356 358l154 717q20 96 104 96h27q45 0 65 -27q14 -18 14 -46q0 -14 -3 -29l-156 -737q-111 -518 -579 -519 q-289 0 -418 159q-86 105 -86 274q0 86 22 188zM723 1460q-6 8 35 59.5t110.5 116t132.5 101.5q49 31 101 30q39 0 63.5 -24.5t24.5 -61.5q0 -63 -94 -118q-72 -41 -164 -71t-142 -34q-20 -2 -35 -1q-22 -1 -32 3z" />
<glyph unicode="&#xdb;" horiz-adv-x="1396" d="M180 596l135 641q25 96 107 96h29q47 0 66 -27q13 -18 13 -46q0 -14 -4 -31l-137 -649q-16 -76 -16 -138q0 -108 48 -175q75 -105 259 -105q281 0 356 358l154 717q20 96 104 96h27q45 0 65 -27q14 -18 14 -46q0 -14 -3 -29l-156 -737q-111 -518 -580 -519 q-289 0 -417 159q-86 105 -86 274q0 86 22 188zM612 1501q0 70 136 180q63 51 126.5 90t83.5 44q14 -4 59.5 -43t82.5 -86q84 -100 84 -162q0 -37 -20.5 -58.5t-51.5 -21.5q-57 0 -127 123q-2 2 -21.5 36.5t-29.5 57.5q-61 -70 -88 -96q-109 -121 -174 -121q-29 0 -44.5 16 t-15.5 41z" />
<glyph unicode="&#xdc;" horiz-adv-x="1396" d="M180 596l135 641q25 96 107 96h29q47 0 66 -27q13 -18 13 -46q0 -14 -4 -31l-137 -649q-16 -76 -16 -138q0 -108 48 -175q75 -105 259 -105q281 0 356 358l154 717q20 96 104 96h27q45 0 65 -27q14 -18 14 -46q0 -14 -3 -29l-156 -737q-111 -518 -579 -519 q-289 0 -418 159q-86 105 -86 274q0 86 22 188zM598 1540q0 59 35 100t94 41q119 0 119 -98q0 -59 -35 -100t-92 -41q-121 0 -121 98zM973 1540q0 59 34.5 100t94.5 41q121 0 121 -98q0 -59 -35 -100t-94 -41q-121 0 -121 98z" />
<glyph unicode="&#xdd;" horiz-adv-x="1239" d="M180 1325h221l258 -606l525 622q2 2 32.5 -4t62.5 -32.5t32 -69.5q0 -53 -72 -133l-502 -565l-112 -537h-213l116 547zM670 1460q-6 8 34.5 59.5t110.5 116t133 101.5q49 31 101 30q39 0 63.5 -24.5t24.5 -61.5q0 -63 -95 -118q-72 -41 -164 -71t-142 -34q-20 -2 -34 -1 q-22 -1 -32 3z" />
<glyph unicode="&#xde;" horiz-adv-x="1247" d="M90 96l242 1141q25 96 106 96h33q43 0 64 -25q14 -17 13 -42q0 -12 -3 -27l-33 -152h205q225 0 345 -92t120 -264q0 -231 -141.5 -357t-409.5 -126h-297l-35 -168q-10 -47 -33.5 -67.5t-68.5 -20.5h-31q-79 0 -79 71q-1 15 3 33zM371 418h284q152 0 235 76.5t83 212.5 q0 207 -271 206h-227z" />
<glyph unicode="&#xdf;" horiz-adv-x="1200" d="M55 0l205 961q96 461 483 460q197 0 308.5 -87t111.5 -230q0 -147 -95 -235.5t-284 -102.5q137 -39 220 -129t83 -215q0 -190 -122.5 -318.5t-300.5 -128.5q-166 0 -244 78q-41 41 -41 88q0 35 19.5 61.5t40 38t22.5 7.5q66 -106 192 -107q100 0 169 75t69 192 q0 158 -211 229q-98 39 -98 108q0 45 19.5 80t39.5 49q168 0 246 48.5t78 160.5q0 78 -62.5 125t-163.5 47q-217 0 -280 -305l-201 -950h-203z" />
<glyph unicode="&#xe0;" d="M94 387q0 242 159 432.5t392 190.5q113 0 202 -51.5t132 -139.5l39 166h196l-159 -760q-8 -39 -8 -66t8 -43q16 -32 80 -38q6 0 -0.5 -24.5t-37 -48t-83.5 -23.5q-168 0 -168 164q0 18 2 38q-63 -100 -159.5 -154.5t-209.5 -54.5q-166 0 -275.5 109.5t-109.5 302.5z M295 406q0 -121 68.5 -192t171.5 -71q133 0 237.5 95.5t132.5 234.5l33 154q-68 219 -281 219q-160 0 -261 -135t-101 -305zM463 1376q0 37 26.5 62.5t65.5 25.5q49 0 100 -41q57 -43 111.5 -109.5t82.5 -117.5q23 -42 23 -55q0 -3 -2 -4q-4 -5 -20 -6q-15 0 -40 5 q-52 9 -131 40.5t-140 78.5q-76 55 -76 121z" />
<glyph unicode="&#xe1;" d="M94 387q0 242 159 432.5t392 190.5q113 0 202 -51.5t132 -139.5l39 166h196l-159 -760q-8 -39 -8 -66t8 -43q16 -32 80 -38q6 0 -0.5 -24.5t-37 -48t-83.5 -23.5q-168 0 -168 164q0 18 2 38q-63 -100 -159.5 -154.5t-209.5 -54.5q-166 0 -275.5 109.5t-109.5 302.5z M295 406q0 -121 68.5 -192t171.5 -71q133 0 237.5 95.5t132.5 234.5l33 154q-68 219 -281 219q-160 0 -261 -135t-101 -305zM612 1137q-6 8 35 59t110.5 115.5t133.5 101.5q49 31 100 31q39 0 63.5 -24.5t24.5 -61.5q0 -63 -94 -119q-72 -41 -164 -70.5t-142 -33.5 q-20 -2 -35 -2q-22 0 -32 4z" />
<glyph unicode="&#xe2;" d="M94 387q0 242 159 432.5t392 190.5q113 0 202 -51.5t132 -139.5l39 166h196l-159 -760q-8 -39 -8 -66t8 -43q16 -32 80 -38q6 0 -0.5 -24.5t-37 -48t-83.5 -23.5q-168 0 -168 164q0 18 2 38q-63 -100 -159.5 -154.5t-209.5 -54.5q-166 0 -275.5 109.5t-109.5 302.5z M295 406q0 -121 68.5 -192t171.5 -71q133 0 237.5 95.5t132.5 234.5l33 154q-68 219 -281 219q-160 0 -261 -135t-101 -305zM481 1178q0 70 135 180q63 51 127 90t84 43q14 -4 59.5 -43t82.5 -86q84 -100 84 -162q0 -37 -20.5 -58.5t-51.5 -21.5q-57 0 -127 123 q-2 2 -21.5 37t-29.5 57q-61 -70 -88 -96q-109 -121 -174 -121q-29 0 -44.5 16.5t-15.5 41.5z" />
<glyph unicode="&#xe3;" d="M94 387q0 242 159 432.5t392 190.5q113 0 202 -51.5t132 -139.5l39 166h196l-159 -760q-8 -39 -8 -66t8 -43q16 -32 80 -38q6 0 -0.5 -24.5t-37 -48t-83.5 -23.5q-168 0 -168 164q0 18 2 38q-63 -100 -159.5 -154.5t-209.5 -54.5q-166 0 -275.5 109.5t-109.5 302.5z M295 406q0 -121 68.5 -192t171.5 -71q133 0 237.5 95.5t132.5 234.5l33 154q-68 219 -281 219q-160 0 -261 -135t-101 -305zM453 1190q0 80 58 144.5t126 64.5q127 0 276 -154q66 141 121 141q31 0 48.5 -17t17.5 -42q0 -80 -58.5 -144.5t-126.5 -64.5q-127 0 -276 154 q-66 -141 -121 -142q-31 0 -48 17.5t-17 42.5z" />
<glyph unicode="&#xe4;" d="M94 387q0 242 159 432.5t392 190.5q113 0 202 -51.5t132 -139.5l39 166h196l-159 -760q-8 -39 -8 -66t8 -43q16 -32 80 -38q6 0 -0.5 -24.5t-37 -48t-83.5 -23.5q-168 0 -168 164q0 18 2 38q-63 -100 -159.5 -154.5t-209.5 -54.5q-166 0 -275.5 109.5t-109.5 302.5z M295 406q0 -121 68.5 -192t171.5 -71q133 0 237.5 95.5t132.5 234.5l33 154q-68 219 -281 219q-160 0 -261 -135t-101 -305zM465 1217q0 59 35 100t94 41q119 0 119 -98q0 -59 -35 -100.5t-92 -41.5q-121 1 -121 99zM840 1217q0 59 34.5 100t94.5 41q121 0 121 -98 q0 -59 -35 -100.5t-94 -41.5q-121 1 -121 99z" />
<glyph unicode="&#xe5;" d="M94 387q0 242 159 432.5t392 190.5q113 0 202 -51.5t132 -139.5l39 166h196l-159 -760q-8 -39 -8 -66t8 -43q16 -32 80 -38q6 0 -0.5 -24.5t-37 -48t-83.5 -23.5q-168 0 -168 164q0 18 2 38q-63 -100 -159.5 -154.5t-209.5 -54.5q-166 0 -275.5 109.5t-109.5 302.5z M295 406q0 -121 68.5 -192t171.5 -71q133 0 237.5 95.5t132.5 234.5l33 154q-68 219 -281 219q-160 0 -261 -135t-101 -305zM549 1333q0 113 78 196t194 83q104 0 168 -59.5t64 -151.5q0 -113 -78 -196t-195 -83q-104 0 -167.5 59.5t-63.5 151.5zM672 1346q0 -49 31.5 -82 t80.5 -33q66 0 106 48t40 110q0 49 -33 81.5t-82 32.5q-63 0 -103 -48t-40 -109z" />
<glyph unicode="&#xe6;" horiz-adv-x="1812" d="M53 225q0 188 169 273.5t564 91.5h25l2 8q6 32 6 60q0 74 -43 122q-59 66 -196 66q-111 0 -179.5 -35t-117.5 -113q-2 -2 -26 4.5t-48.5 29t-24.5 59.5q0 76 106.5 147.5t301.5 71.5q145 0 239.5 -56.5t122.5 -160.5q162 217 441 217q174 0 272 -75t98 -198 q0 -158 -128 -238.5t-443 -80.5q-88 0 -236 10v-37q0 -119 71 -189.5t200 -70.5q201 0 315 154q2 4 24.5 -3.5t45 -29t22.5 -51.5q0 -53 -49 -103q-127 -123 -360 -123q-303 0 -391 224q-133 -223 -430 -224q-166 0 -259.5 66.5t-93.5 183.5zM252 248q0 -55 53 -91t141 -36 q117 0 206 70.5t114 179.5l20 96l-57 -2q-274 -8 -375.5 -58t-101.5 -159zM991 569q86 -10 185 -10q406 0 405 172q0 53 -51 90t-143 37q-131 0 -238 -81t-158 -208z" />
<glyph unicode="&#xe7;" horiz-adv-x="1126" d="M90 430q0 231 164 405.5t397 174.5q225 0 346 -125q80 -80 80 -164q0 -51 -35 -81q-33 -28 -60 -28h-4q-30 2 -36 4q-18 100 -92 162t-193 62q-160 0 -265 -120t-105 -276q0 -133 81 -216t218 -83q180 0 284 166q2 4 28 -2t50.5 -28.5t24.5 -57.5q0 -55 -66 -121 q-131 -127 -340 -127t-343 122t-134 333zM281 -424l208 332q2 2 13 2t29 -2q38 -4 76 -26.5t38 -61.5q0 -53 -65 -111l-215 -188q-7 -7 -19 -7q-16 0 -40 15q-29 18 -29 35q0 6 4 12z" />
<glyph unicode="&#xe8;" horiz-adv-x="1124" d="M86 385q0 268 179 446.5t442 178.5q174 0 272 -75t98 -198q0 -158 -128 -238.5t-443 -80.5q-88 0 -236 10v-37q0 -119 71 -189.5t200 -70.5q201 0 315 154q2 4 24.5 -3.5t45 -29t22.5 -51.5q0 -53 -49 -103q-127 -123 -362 -123q-217 0 -334 113t-117 297zM303 569 q86 -10 184 -10q406 0 406 172q0 53 -51 90t-144 37q-131 0 -237.5 -81t-157.5 -208zM440 1376q0 37 27 62.5t65 25.5q49 0 101 -41q57 -43 111.5 -109.5t81.5 -117.5q23 -42 23 -55q0 -3 -1 -4q-4 -5 -21 -6q-15 0 -40 5q-52 9 -130.5 40.5t-140.5 78.5q-76 55 -76 121z " />
<glyph unicode="&#xe9;" horiz-adv-x="1124" d="M86 385q0 268 179 446.5t442 178.5q174 0 272 -75t98 -198q0 -158 -128 -238.5t-443 -80.5q-88 0 -236 10v-37q0 -119 71 -189.5t200 -70.5q201 0 315 154q2 4 24.5 -3.5t45 -29t22.5 -51.5q0 -53 -49 -103q-127 -123 -362 -123q-217 0 -334 113t-117 297zM303 569 q86 -10 184 -10q406 0 406 172q0 53 -51 90t-144 37q-131 0 -237.5 -81t-157.5 -208zM586 1137q-6 8 34.5 59t110.5 115.5t133 101.5q49 31 101 31q39 0 63.5 -24.5t24.5 -61.5q0 -63 -95 -119q-72 -41 -164 -70.5t-142 -33.5q-20 -2 -34 -2q-22 0 -32 4z" />
<glyph unicode="&#xea;" horiz-adv-x="1124" d="M86 385q0 268 179 446.5t442 178.5q174 0 272 -75t98 -198q0 -158 -128 -238.5t-443 -80.5q-88 0 -236 10v-37q0 -119 71 -189.5t200 -70.5q201 0 315 154q2 4 24.5 -3.5t45 -29t22.5 -51.5q0 -53 -49 -103q-127 -123 -362 -123q-217 0 -334 113t-117 297zM303 569 q86 -10 184 -10q406 0 406 172q0 53 -51 90t-144 37q-131 0 -237.5 -81t-157.5 -208zM461 1178q0 70 135 180q63 51 126.5 90t84.5 43q14 -4 59 -43t82 -86q84 -100 84 -162q0 -37 -20.5 -58.5t-50.5 -21.5q-57 0 -127 123q-2 2 -21.5 37t-30.5 57q-61 -70 -88 -96 q-109 -121 -174 -121q-29 0 -44 16.5t-15 41.5z" />
<glyph unicode="&#xeb;" horiz-adv-x="1124" d="M86 385q0 268 179 446.5t442 178.5q174 0 272 -75t98 -198q0 -158 -128 -238.5t-443 -80.5q-88 0 -236 10v-37q0 -119 71 -189.5t200 -70.5q201 0 315 154q2 4 24.5 -3.5t45 -29t22.5 -51.5q0 -53 -49 -103q-127 -123 -362 -123q-217 0 -334 113t-117 297zM303 569 q86 -10 184 -10q406 0 406 172q0 53 -51 90t-144 37q-131 0 -237.5 -81t-157.5 -208zM444 1217q0 59 35 100t94 41q119 0 119 -98q0 -59 -34.5 -100.5t-92.5 -41.5q-121 1 -121 99zM819 1217q0 59 35 100t94 41q121 0 121 -98q0 -59 -35 -100.5t-94 -41.5q-121 1 -121 99z " />
<glyph unicode="&#xec;" horiz-adv-x="540" d="M113 227l161 758h201l-160 -760q-8 -37 -7 -63q0 -30 9 -47q18 -33 86 -37l3 -8q0 -10 -8.5 -25.5t-19.5 -29t-39 -23.5t-63 -10q-174 0 -174 158q1 39 11 87zM119 1376q0 37 26.5 62.5t65.5 25.5q49 0 100 -41q57 -43 111.5 -109.5t82.5 -117.5q23 -42 22 -55 q0 -3 -1 -4q-4 -5 -20 -6q-15 0 -40 5q-52 9 -131 40.5t-140 78.5q-76 55 -76 121z" />
<glyph unicode="&#xed;" horiz-adv-x="540" d="M113 227l161 758h201l-160 -760q-8 -37 -7 -63q0 -30 9 -47q18 -33 86 -37l3 -8q0 -10 -8.5 -25.5t-19.5 -29t-39 -23.5t-63 -10q-174 0 -174 158q1 39 11 87zM260 1137q-6 8 35 59t110.5 115.5t133.5 101.5q49 31 100 31q39 0 63.5 -24.5t24.5 -61.5q0 -63 -94 -119 q-72 -41 -164 -70.5t-142 -33.5q-20 -2 -35 -2q-22 0 -32 4z" />
<glyph unicode="&#xee;" horiz-adv-x="540" d="M113 227l161 758h201l-160 -760q-8 -37 -7 -63q0 -30 9 -47q18 -33 86 -37l2 -8q0 -10 -8 -25.5t-19 -29t-39 -23.5t-63 -10q-174 0 -174 158q1 39 11 87zM133 1178q0 70 135 180q63 51 127 90t84 43q14 -4 59.5 -43t82.5 -86q84 -100 84 -162q0 -37 -20.5 -58.5 t-51.5 -21.5q-57 0 -127 123q-2 2 -21.5 37t-29.5 57q-61 -70 -88 -96q-109 -121 -174 -121q-29 0 -44.5 16.5t-15.5 41.5z" />
<glyph unicode="&#xef;" horiz-adv-x="540" d="M113 227l161 758h201l-160 -760q-8 -37 -7 -63q0 -30 9 -47q18 -33 86 -37l3 -8q0 -10 -8.5 -25.5t-19.5 -29t-39 -23.5t-63 -10q-174 0 -174 158q1 39 11 87zM117 1217q0 59 34.5 100t94.5 41q119 0 119 -98q0 -59 -35 -100.5t-92 -41.5q-121 1 -121 99zM492 1217 q0 59 34.5 100t94.5 41q121 0 120 -98q0 -59 -34.5 -100.5t-94.5 -41.5q-120 1 -120 99z" />
<glyph unicode="&#xf0;" horiz-adv-x="1222" d="M82 383q0 211 140 357.5t366 146.5q131 0 231.5 -55.5t143.5 -135.5q1 18 0 36q0 246 -160 407l-322 -164q-4 -2 -14 6t-19.5 28.5t-9.5 43.5q0 66 80 102l156 76q-125 68 -275 78q-8 0 -0.5 31.5t42 63.5t96.5 32q158 0 325 -123l248 123h2q4 0 12 -6q10 -8 19.5 -29 t9.5 -43q0 -66 -80 -103l-98 -47q180 -207 180 -482q0 -78 -14 -161q-35 -272 -209 -446q-143 -143 -367 -144q-215 0 -349 107.5t-134 300.5zM279 381q0 -115 76.5 -180.5t199.5 -65.5q137 0 238 96q100 100 139 308q-25 76 -113 135t-198 59q-168 0 -255 -98t-87 -254z " />
<glyph unicode="&#xf1;" horiz-adv-x="1210" d="M53 0l209 983q4 10 51 10q117 0 117 -118q0 -23 -4 -50q121 184 330 185q156 0 245 -90.5t89 -235.5q0 -86 -60 -297q-49 -172 -49 -221q0 -41 20.5 -59.5t63.5 -22.5q6 0 -1 -25.5t-39 -51t-85 -25.5q-78 0 -120 42t-42 117q0 59 51 254q49 168 50 238q0 94 -51.5 147.5 t-145.5 53.5t-161.5 -47.5t-129.5 -149.5l-135 -637h-203zM438 1190q0 80 58.5 144.5t126.5 64.5q127 0 276 -154q66 141 121 141q31 0 48 -17t17 -42q0 -80 -58 -144.5t-126 -64.5q-127 0 -276 154q-66 -141 -121 -142q-31 0 -48.5 17.5t-17.5 42.5z" />
<glyph unicode="&#xf2;" horiz-adv-x="1204" d="M94 430q0 236 157 408t400 172q203 0 332 -128t129 -327q0 -236 -156.5 -408t-400.5 -172q-203 0 -332 128t-129 327zM281 438q0 -129 80.5 -215t201.5 -86q154 0 258.5 122t104.5 288q0 129 -81 215t-202 86q-154 0 -258 -122t-104 -288zM416 1376q0 37 26.5 62.5 t65.5 25.5q49 0 100 -41q57 -43 111.5 -109.5t82.5 -117.5q23 -42 22 -55q0 -3 -1 -4q-4 -5 -21 -6q-15 0 -39 5q-52 9 -131 40.5t-140 78.5q-76 55 -76 121z" />
<glyph unicode="&#xf3;" horiz-adv-x="1204" d="M94 430q0 236 157 408t400 172q203 0 332 -128t129 -327q0 -236 -156.5 -408t-400.5 -172q-203 0 -332 128t-129 327zM281 438q0 -129 80.5 -215t201.5 -86q154 0 258.5 122t104.5 288q0 129 -81 215t-202 86q-154 0 -258 -122t-104 -288zM567 1137q-6 8 35 59 t110.5 115.5t133.5 101.5q49 31 100 31q39 0 63.5 -24.5t24.5 -61.5q0 -63 -94 -119q-72 -41 -164 -70.5t-142 -33.5q-20 -2 -35 -2q-22 0 -32 4z" />
<glyph unicode="&#xf4;" horiz-adv-x="1204" d="M94 430q0 236 157 408t400 172q203 0 332 -128t129 -327q0 -236 -156.5 -408t-400.5 -172q-203 0 -332 128t-129 327zM281 438q0 -129 80.5 -215t201.5 -86q154 0 258.5 122t104.5 288q0 129 -81 215t-202 86q-154 0 -258 -122t-104 -288zM428 1178q0 70 135 180 q63 51 127 90t84 43q14 -4 59.5 -43t81.5 -86q84 -100 84 -162q0 -37 -20.5 -58.5t-50.5 -21.5q-57 0 -127 123q-2 2 -21.5 37t-29.5 57q-61 -70 -88 -96q-109 -121 -175 -121q-29 0 -44 16.5t-15 41.5z" />
<glyph unicode="&#xf5;" horiz-adv-x="1204" d="M94 430q0 236 157 408t400 172q203 0 332 -128t129 -327q0 -236 -156.5 -408t-400.5 -172q-203 0 -332 128t-129 327zM281 438q0 -129 80.5 -215t201.5 -86q154 0 258.5 122t104.5 288q0 129 -81 215t-202 86q-154 0 -258 -122t-104 -288zM403 1190q0 80 58.5 144.5 t126.5 64.5q127 0 276 -154q66 141 121 141q31 0 48.5 -17t17.5 -42q0 -80 -58.5 -144.5t-126.5 -64.5q-127 0 -276 154q-66 -141 -121 -142q-31 0 -48.5 17.5t-17.5 42.5z" />
<glyph unicode="&#xf6;" horiz-adv-x="1204" d="M94 430q0 236 157 408t400 172q203 0 332 -128t129 -327q0 -236 -156.5 -408t-400.5 -172q-203 0 -332 128t-129 327zM281 438q0 -129 80.5 -215t201.5 -86q154 0 258.5 122t104.5 288q0 129 -81 215t-202 86q-154 0 -258 -122t-104 -288zM412 1217q0 59 34.5 100 t94.5 41q119 0 118 -98q0 -59 -34.5 -100.5t-92.5 -41.5q-120 1 -120 99zM786 1217q0 59 35 100t94 41q121 0 121 -98q0 -59 -34.5 -100.5t-94.5 -41.5q-121 1 -121 99z" />
<glyph unicode="&#xf7;" horiz-adv-x="1298" d="M197 528q0 29 14 43q23 53 92 54h744q45 0 62 -18q13 -13 13 -35q0 -8 -2 -17q0 -29 -14 -43q-23 -53 -90 -53h-744q-45 0 -63 17q-14 13 -14 36q0 7 2 16zM465 160q0 82 39 119q29 31 92 30q109 0 109 -79.5t-39 -120.5q-31 -31 -93 -31q-108 0 -108 82zM612 854 q0 82 39 121q31 31 92 31q109 0 109 -80q0 -84 -39 -121q-31 -31 -92 -31q-109 0 -109 80z" />
<glyph unicode="&#xf8;" horiz-adv-x="1204" d="M4 8q0 43 53 90l103 90q-66 111 -66 242q0 236 157 408t400 172q170 0 299 -107l164 152q2 1 6 1q7 0 19 -5q18 -8 36.5 -30t18.5 -44q0 -45 -53 -92l-97 -88q68 -109 68 -242q0 -236 -156.5 -408t-400.5 -172q-176 0 -301 107l-170 -154q-2 -1 -5 -1q-7 0 -20 6 q-18 9 -36.5 30.5t-18.5 44.5zM279 438q0 -74 26 -133l524 475q-82 72 -188 72q-154 0 -258 -123t-104 -291zM375 207q78 -74 190 -74q152 0 257.5 124t105.5 290q0 70 -27 133z" />
<glyph unicode="&#xf9;" horiz-adv-x="1212" d="M135 428l117 557h203l-117 -555q-11 -46 -11 -85q0 -68 31 -117q49 -77 162 -76q94 0 163 47t130 149l135 637h201l-160 -760q-8 -39 -8 -66t8 -43q16 -32 80 -38q6 0 0 -24.5t-37 -48t-84 -23.5q-168 0 -168 163v19q-121 -188 -331 -189q-190 0 -274 124q-55 82 -55 199 q0 60 15 130zM416 1376q0 37 26.5 62.5t65.5 25.5q49 0 100 -41q57 -43 111.5 -109.5t82.5 -117.5q23 -42 22 -55q0 -3 -1 -4q-4 -5 -21 -6q-15 0 -39 5q-52 9 -131 40.5t-140 78.5q-76 55 -76 121z" />
<glyph unicode="&#xfa;" horiz-adv-x="1212" d="M135 428l117 557h203l-117 -555q-11 -46 -11 -85q0 -68 31 -117q49 -77 162 -76q94 0 163 47t130 149l135 637h201l-160 -760q-8 -39 -8 -66t8 -43q16 -32 80 -38q6 0 0 -24.5t-37 -48t-84 -23.5q-168 0 -168 163v19q-121 -188 -331 -189q-190 0 -274 124q-55 82 -55 199 q0 60 15 130zM582 1137q-6 8 34.5 59t110.5 115.5t133 101.5q49 31 101 31q39 0 63.5 -24.5t24.5 -61.5q0 -63 -95 -119q-72 -41 -164 -70.5t-142 -33.5q-20 -2 -35 -2q-21 0 -31 4z" />
<glyph unicode="&#xfb;" horiz-adv-x="1212" d="M135 428l117 557h203l-117 -555q-11 -46 -11 -85q0 -68 31 -117q49 -77 162 -76q94 0 163 47t130 149l135 637h201l-160 -760q-8 -39 -8 -66t8 -43q16 -32 80 -38q6 0 0 -24.5t-37 -48t-84 -23.5q-168 0 -168 163v19q-121 -188 -331 -189q-190 0 -274 124q-55 82 -55 199 q0 60 15 130zM442 1178q0 70 136 180q63 51 126.5 90t83.5 43q14 -4 59.5 -43t82.5 -86q84 -100 84 -162q0 -37 -20.5 -58.5t-51.5 -21.5q-57 0 -127 123q-2 2 -21.5 37t-29.5 57q-61 -70 -88 -96q-109 -121 -174 -121q-29 0 -44.5 16.5t-15.5 41.5z" />
<glyph unicode="&#xfc;" horiz-adv-x="1212" d="M135 428l117 557h203l-117 -555q-11 -46 -11 -85q0 -68 31 -117q49 -77 162 -76q94 0 163 47t130 149l135 637h201l-160 -760q-8 -39 -8 -66t8 -43q16 -32 80 -38q6 0 0 -24.5t-37 -48t-84 -23.5q-168 0 -168 163v19q-121 -188 -331 -189q-190 0 -274 124q-55 82 -55 199 q0 60 15 130zM426 1217q0 59 35 100t94 41q119 0 119 -98q0 -59 -35 -100.5t-92 -41.5q-121 1 -121 99zM801 1217q0 59 34.5 100t94.5 41q121 0 121 -98q0 -59 -35 -100.5t-94 -41.5q-121 1 -121 99z" />
<glyph unicode="&#xfd;" horiz-adv-x="1079" d="M-127 -287q0 23 13.5 45.5t26.5 33.5t17 9q43 -49 113 -49q61 0 125.5 55.5t169.5 206.5l29 43q-63 12 -76 97l-58 518q-12 106 -47.5 152t-103.5 48q-6 0 0 31t40 62.5t99 31.5q174 0 203 -327l41 -467l450 782h203l-604 -1028q-115 -195 -218 -284t-220 -89 q-119 0 -170 54q-33 30 -33 75zM532 1120q-6 8 35 59.5t111 116t133 101.5q49 31 100 30q39 0 63.5 -24.5t24.5 -61.5q0 -63 -94 -118q-72 -41 -164 -71t-142 -34q-20 -2 -35 -1q-22 -1 -32 3z" />
<glyph unicode="&#xfe;" horiz-adv-x="1263" d="M-10 -305l342 1616q12 53 32.5 74.5t59.5 21.5h25q45 0 70 -23q18 -16 18 -46q0 -12 -2 -27l-103 -482q129 180 340 181q166 0 281.5 -115t115.5 -315q0 -154 -64.5 -291t-188 -225.5t-275.5 -88.5q-119 0 -211 56.5t-137 150.5l-103 -487q-10 -53 -31.5 -74.5 t-60.5 -21.5h-22q-89 0 -90 67q1 13 4 29zM356 471q-6 -33 -6 -65q0 -95 57 -167q75 -97 218 -98q158 0 251 127t93 297q0 127 -72 203t-178 76q-98 0 -185.5 -55.5t-142.5 -145.5z" />
<glyph unicode="&#xff;" horiz-adv-x="1079" d="M-127 -287q0 23 13.5 45.5t26.5 33.5t17 9q43 -49 113 -49q61 0 125.5 55.5t169.5 206.5l29 43q-63 12 -76 97l-58 518q-12 106 -47.5 152t-103.5 48q-6 0 0 31t40 62.5t99 31.5q174 0 203 -327l41 -467l450 782h203l-604 -1028q-115 -195 -218 -284t-220 -89 q-119 0 -170 54q-33 30 -33 75zM354 1217q0 59 35 100t94 41q119 0 119 -98q0 -59 -35 -100.5t-92 -41.5q-121 1 -121 99zM729 1217q0 59 35 100t94 41q121 0 121 -98q0 -59 -35 -100.5t-94 -41.5q-121 1 -121 99z" />
<glyph unicode="&#x152;" horiz-adv-x="2164" d="M150 555q0 336 218 566.5t521 230.5q98 0 190 -27h1039q92 0 92 -59q0 -68 -37 -105q-20 -23 -82 -22h-727q125 -158 125 -367v-6h364q86 0 86 -55q0 -63 -32 -101q-27 -23 -78 -22h-363q-51 -231 -223 -402h645q92 0 92 -57q0 -66 -36 -106q-23 -23 -82 -23h-944 q-86 -23 -168 -23q-279 0 -439.5 164t-160.5 414zM365 569q0 -176 107.5 -291.5t293.5 -115.5q199 0 352.5 171t153.5 425q0 176 -106.5 291.5t-293.5 115.5q-199 0 -353 -171t-154 -425z" />
<glyph unicode="&#x153;" horiz-adv-x="1961" d="M94 430q0 236 154.5 408t394.5 172q145 0 256 -72t158 -199q80 127 207 199t282 72q172 0 269.5 -75t97.5 -198q0 -160 -128 -239.5t-444 -79.5q-86 0 -235 10v-37q0 -119 70.5 -189.5t201.5 -70.5q199 0 314 154q2 4 25.5 -3.5t46 -29t22.5 -51.5q0 -51 -51 -103 q-123 -123 -361 -123q-143 0 -245.5 61.5t-145.5 168.5q-74 -106 -185.5 -168t-248.5 -62q-201 0 -328 126t-127 329zM281 438q0 -129 80.5 -215t201.5 -86q154 0 258.5 122t104.5 288q0 129 -81 215t-202 86q-154 0 -258 -122t-104 -288zM1139 569q86 -10 184 -10 q406 0 406 172q0 53 -51.5 90t-143.5 37q-131 0 -237.5 -81t-157.5 -208z" />
<glyph unicode="&#x178;" horiz-adv-x="1239" d="M180 1325h221l258 -606l525 622q2 2 32.5 -4t62.5 -32.5t32 -69.5q0 -53 -72 -133l-502 -565l-112 -537h-213l116 547zM496 1540q0 59 34.5 100t94.5 41q119 0 118 -98q0 -59 -34.5 -100t-92.5 -41q-120 0 -120 98zM870 1540q0 59 35 100t94 41q121 0 121 -98 q0 -59 -34.5 -100t-94.5 -41q-121 0 -121 98z" />
<glyph unicode="&#x2c6;" horiz-adv-x="1093" d="M410 1178q0 70 135 180q63 51 126.5 90t84.5 43q14 -4 59 -43t82 -86q84 -100 84 -162q0 -37 -20.5 -58.5t-51.5 -21.5q-57 0 -127 123q-2 2 -21.5 37t-29.5 57q-61 -70 -88 -96q-109 -121 -174 -121q-29 0 -44 16.5t-15 41.5z" />
<glyph unicode="&#x2dc;" horiz-adv-x="1093" d="M385 1190q0 80 58.5 144.5t125.5 64.5q127 0 277 -154q66 141 121 141q31 0 48 -17t17 -42q0 -80 -58.5 -144.5t-125.5 -64.5q-127 0 -277 154q-66 -141 -120 -142q-31 0 -48.5 17.5t-17.5 42.5z" />
<glyph unicode="&#x2013;" horiz-adv-x="1171" d="M117 467q0 59 33 96q27 23 75 23h750q86 0 86 -56q0 -63 -35 -98q-20 -20 -76 -20h-747q-86 0 -86 55z" />
<glyph unicode="&#x2014;" horiz-adv-x="1513" d="M117 467q0 59 33 96q27 23 75 23h1090q86 0 86 -56q0 -61 -33 -98q-23 -20 -76 -20h-1089q-86 0 -86 55z" />
<glyph unicode="&#x2018;" horiz-adv-x="512" d="M203 932q0 55 57 121l252 305q7 8 20 8q16 0 40 -13q34 -18 35 -42q0 -6 -3 -13l-225 -456q-8 -2 -47 -3h-3q-38 0 -81 24q-45 26 -45 69z" />
<glyph unicode="&#x2019;" horiz-adv-x="512" d="M166 897l225 457q8 2 47 3h3q38 0 81 -25q45 -26 45 -68q0 -55 -57 -121l-252 -305q-7 -8 -20 -8q-16 0 -41 13q-34 18 -35 40q1 7 4 14z" />
<glyph unicode="&#x201a;" horiz-adv-x="528" d="M-82 -217l225 459q8 0 47 1h3q38 0 81 -25q45 -26 45 -68q0 -53 -57 -121l-252 -305q-7 -8 -20 -9q-16 0 -41 14q-34 18 -34 39q0 8 3 15z" />
<glyph unicode="&#x201c;" horiz-adv-x="870" d="M203 936q0 55 57 121l256 307q7 8 20 8q16 0 41 -13q33 -18 33 -40q0 -7 -4 -14l-233 -459q-8 -2 -46 -3h-3q-37 0 -78 23q-43 25 -43 70zM561 932q0 55 55 119l250 305q7 8 20 8q16 0 42 -13q35 -19 35 -42q0 -6 -2 -13l-226 -456q-8 -2 -47 -3h-3q-38 0 -80 24 q-44 26 -44 71z" />
<glyph unicode="&#x201d;" horiz-adv-x="870" d="M166 899l225 457q8 2 47 3h3q38 0 80 -25q44 -26 44 -70q0 -55 -55 -119l-250 -305q-7 -8 -20 -8q-16 0 -41 13q-35 19 -36 41q0 6 3 13zM520 891l234 461q8 0 46 1h3q37 0 78 -25q43 -26 43 -68q0 -55 -58 -121l-256 -308q-7 -8 -19 -8q-16 0 -41 14q-33 18 -33 39 q-1 7 3 15z" />
<glyph unicode="&#x201e;" horiz-adv-x="880" d="M-86 -215l225 457q8 2 47 3h3q38 0 80 -25q44 -26 44 -70q0 -53 -55 -119l-250 -305q-7 -8 -20 -9q-16 0 -41 14q-35 19 -36 41q0 6 3 13zM268 -223l232 459q8 2 47 3h3q38 0 79 -24q43 -25 43 -70q0 -55 -60 -120l-254 -308q-7 -8 -20 -8q-16 0 -41 13q-33 17 -33 39 q0 8 4 16z" />
<glyph unicode="&#x2022;" horiz-adv-x="753" d="M145 497.5q0 98.5 68 168t166 69.5t165.5 -69.5t67.5 -167.5q0 -96 -68.5 -165t-164.5 -69q-98 0 -166 67.5t-68 166z" />
<glyph unicode="&#x2026;" horiz-adv-x="1435" d="M51 72q0 88 43 129q33 33 99 32q117 0 116 -86q0 -90 -41 -129q-33 -33 -100 -32q-117 0 -117 86zM508 72q0 90 41 129q33 33 100 32q117 0 117 -86q0 -88 -43 -129q-33 -33 -98 -32q-117 0 -117 86zM963 72q0 88 41 129q33 33 100 32q117 0 117 -86q0 -88 -43 -129 q-31 -33 -99 -32q-116 0 -116 86z" />
<glyph unicode="&#x2039;" horiz-adv-x="714" d="M189 591q65 65 139 124q172 137 252 137q72 0 71 -68q0 -39 -56 -94t-142 -108q-143 -84 -164 -95q68 -47 125 -104q66 -61 92 -96t26 -68q0 -31 -23.5 -51.5t-59.5 -20.5q-88 0 -203 154q-51 68 -90 134q-35 60 -36 76q0 11 69 80z" />
<glyph unicode="&#x203a;" horiz-adv-x="714" d="M68 215q0 39 56 94.5t144 108.5q158 92 162 94q-63 45 -125 104q-66 61 -91.5 96.5t-25.5 67.5q0 31 24 51.5t60 20.5q88 0 203 -154q49 -66 88 -133q37 -64 37 -78q0 -10 -70 -78q-66 -65 -139 -124q-168 -137 -252 -138q-33 0 -52 18.5t-19 49.5z" />
<glyph unicode="&#x20ac;" horiz-adv-x="1355" d="M96 481q0 49 27 80q25 20 65 21h109q10 66 35 170h-92q-76 0 -76 47q0 51 26 78q20 20 66 20h123q70 180 170 281q174 174 420 174q205 0 325 -121q70 -70 70 -162q0 -49 -29.5 -80t-60.5 -38t-33 1q-66 223 -293 224q-150 0 -256 -107q-59 -59 -108 -172h387 q76 0 76 -45q0 -55 -29 -80q-20 -20 -64 -20h-422q-23 -82 -32 -170h403q76 0 76 -47q0 -51 -29 -80q-20 -20 -63 -21h-391q16 -127 94 -205.5t205 -78.5q182 0 315 180q4 4 25.5 -5.5t43 -35t21.5 -56.5q0 -59 -65 -124q-59 -57 -153.5 -95.5t-195.5 -38.5q-225 0 -354 123 t-141 336h-121q-74 0 -74 47z" />
<glyph unicode="&#x2122;" horiz-adv-x="1476" d="M195 1264v6q0 57 61 57h432q61 0 62 -57v-6q0 -59 -62 -60h-147v-450q0 -66 -62 -66h-18q-55 0 -55 66v450h-150q-61 1 -61 60zM846 754v510q0 70 63 69h56q49 0 67 -47l123 -301l123 301q20 47 70 47h51q61 0 61 -69v-510q0 -66 -55 -66h-19q-55 0 -55 66v387l-112 -289 q-4 -12 -7.5 -17.5t-17.5 -10.5t-41 -5t-40 5t-15 9.5t-6 18.5l-117 287v-385q0 -66 -51 -66h-23q-55 0 -55 66z" />
<glyph unicode="&#xe000;" horiz-adv-x="1004" d="M0 1005h1005v-1005h-1005v1005z" />
<glyph unicode="&#xfb01;" horiz-adv-x="1267" d="M119 819q2 18 10 53q10 61 21 93l4 20h202l23 96q70 340 350 340q131 0 189 -61q33 -33 32 -76q0 -27 -14 -51.5t-29.5 -35.5t-19.5 -7q-49 68 -148 67q-129 0 -170 -188l-18 -84h264l-12 -51l-19 -94l-4 -21h-258l-172 -819h-203l175 819h-203zM836 227l161 758h201 l-160 -760q-8 -37 -7 -63q0 -30 9 -47q18 -33 86 -37v-8q2 -10 -6 -25.5t-19 -29t-39 -23.5t-63 -10q-174 0 -174 158q1 39 11 87zM1044 1290q0 55 35 93t92 38q121 0 121 -92q0 -57 -34.5 -95t-92 -38t-89.5 25.5t-32 68.5z" />
<glyph unicode="&#xfb02;" horiz-adv-x="1267" d="M119 819q2 18 10 53q10 61 21 93l4 20h202l23 96q70 340 350 340q131 0 189 -61q33 -33 32 -76q0 -27 -14 -51.5t-29.5 -35.5t-19.5 -7q-49 68 -148 67q-129 0 -170 -188l-18 -84h264l-12 -51l-19 -94l-4 -21h-258l-172 -819h-203l175 819h-203zM834 227l249 1172h201 l-248 -1174q-8 -37 -7 -63q0 -30 9 -47q18 -33 86 -37l2 -8q0 -10 -8 -25.5t-19.5 -29t-39 -23.5t-62.5 -10q-174 0 -174 158q1 39 11 87z" />
<glyph unicode="&#xfb03;" horiz-adv-x="2131" d="M119 819q2 18 10 53q10 61 21 93l4 20h202l23 96q70 340 350 340q131 0 189 -61q33 -33 32 -76q0 -27 -14 -51.5t-29.5 -35.5t-19.5 -7q-49 68 -148 67q-129 0 -170 -188l-18 -84h264l-12 -51l-19 -94l-4 -21h-258l-172 -819h-203l175 819h-203zM911 819q2 18 11 53 q10 61 20 93l4 20h203l22 96q70 340 351 340q131 0 188 -61q33 -33 33 -76q0 -27 -14.5 -51.5t-30 -35.5t-19.5 -7q-49 68 -147 67q-129 0 -170 -188l-19 -84h265l-13 -51l-18 -94l-4 -21h-258l-172 -819h-203l174 819h-203zM1698 227l162 758h200l-159 -760q-8 -37 -8 -63 q0 -30 10 -47q18 -33 86 -37l2 -8q0 -10 -8.5 -25.5t-19.5 -29t-39 -23.5t-62 -10q-174 0 -175 158q1 39 11 87zM1907 1290q0 55 34.5 93t92.5 38q121 0 120 -92q0 -57 -34.5 -95t-92 -38t-89 25.5t-31.5 68.5z" />
<glyph unicode="&#xfb04;" horiz-adv-x="2131" d="M119 819q2 18 10 53q10 61 21 93l4 20h202l23 96q70 340 350 340q131 0 189 -61q33 -33 32 -76q0 -27 -14 -51.5t-29.5 -35.5t-19.5 -7q-49 68 -148 67q-129 0 -170 -188l-18 -84h264l-12 -51l-19 -94l-4 -21h-258l-172 -819h-203l175 819h-203zM911 819q2 18 11 53 q10 61 20 93l4 20h203l22 96q70 340 351 340q131 0 188 -61q33 -33 33 -76q0 -27 -14.5 -51.5t-30 -35.5t-19.5 -7q-49 68 -147 67q-129 0 -170 -188l-19 -84h265l-13 -51l-18 -94l-4 -21h-258l-172 -819h-203l174 819h-203zM1698 227l248 1186h200l-245 -1188 q-8 -37 -8 -63q0 -30 10 -47q18 -33 86 -37l2 -8q0 -10 -8.5 -25.5t-19.5 -29t-39 -23.5t-62 -10q-173 0 -173 162q0 37 9 83z" />
</font>
</defs>
</svg>
