<?xml version="1.0" standalone="no"?>
<!DOCTYPE svg PUBLIC "-//W3C//DTD SVG 1.1//EN" "http://www.w3.org/Graphics/SVG/1.1/DTD/svg11.dtd" >
<svg xmlns="http://www.w3.org/2000/svg">
<metadata>
This is a custom SVG webfont generated by Font Squirrel.
Copyright   : Generated by RoboFog
Foundry     : Generated by RoboFog
</metadata>
<defs>
<font id="Omnes_ATTRegular" horiz-adv-x="489" >
<font-face units-per-em="2048" ascent="1434" descent="-614" />
<missing-glyph horiz-adv-x="348" />
<glyph unicode=" "  horiz-adv-x="348" />
<glyph unicode="&#x09;" horiz-adv-x="348" />
<glyph unicode="&#xa0;" horiz-adv-x="348" />
<glyph unicode="!" horiz-adv-x="567" d="M182 78v20q0 92 90 92h21q92 0 92 -92v-20q0 -90 -92 -90h-21q-90 0 -90 90zM199 1325h170l-45 -911q-4 -49 -33 -49h-17q-27 0 -30 49z" />
<glyph unicode="&#x22;" horiz-adv-x="792" d="M160 1325h168l-39 -471q-6 -53 -35 -53h-21q-29 0 -34 53zM463 1325h168l-39 -471q-6 -53 -35 -53h-20q-29 0 -35 53z" />
<glyph unicode="#" horiz-adv-x="1394" d="M59 358v119h283l115 371h-246v119h281l110 360q0 6 25 6q45 0 62 -38q7 -16 7 -40q0 -35 -14 -90l-61 -198h337l111 360q0 6 25 6q45 0 62 -38q7 -16 7 -40q0 -35 -14 -90l-62 -198h248v-119h-284l-113 -371h246v-119h-283l-108 -360q0 -6 -25 -6q-45 0 -62 38 q-7 16 -8 40q0 35 15 90l61 198h-338l-110 -360q0 -6 -25 -6q-45 0 -62 38q-7 16 -8 40q0 35 15 90l61 198h-248zM467 473h346l115 379h-346z" />
<glyph unicode="$" horiz-adv-x="1169" d="M106 236q0 27 19.5 48t40 30.5t22.5 4.5q106 -184 334 -213v510q-82 20 -141 45t-118.5 67t-90.5 106.5t-31 150.5q0 139 107.5 239.5t271.5 121.5v174h123v-172q217 -16 334 -134q49 -49 49 -94q0 -27 -19.5 -48t-40 -30.5t-22.5 -5.5q-43 74 -124 124t-183 63v-492 q90 -20 153.5 -46t129 -68t99.5 -110.5t34 -158.5q0 -147 -118 -251.5t-296 -119.5v-178h-123v181q-225 23 -350 147q-60 60 -60 109zM279 987q0 -96 61 -145t188 -84v463q-109 -14 -179 -79t-70 -155zM631 104q125 8 204.5 75t79.5 163q0 102 -73.5 156.5t-210.5 91.5v-486 z" />
<glyph unicode="%" horiz-adv-x="1560" d="M106 1016v20q0 127 90.5 218.5t217.5 91.5q129 0 217 -89.5t88 -216.5v-20q0 -127 -90 -218t-217 -91q-129 0 -217.5 89t-88.5 216zM197 41q0 45 61 113l1030 1200q2 2 7 2t13 -2q15 -4 30.5 -19.5t15.5 -38.5q0 -43 -62 -112l-1030 -1200q-2 -2 -6 -2q-5 0 -13 3 q-15 5 -30.5 20.5t-15.5 35.5zM227 1014q0 -84 53.5 -140.5t133.5 -56.5t132 56.5t52 140.5v28q0 84 -53 141.5t-133 57.5t-132.5 -56.5t-52.5 -142.5v-28zM842 297v20q0 127 90 218.5t217 91.5q129 0 217 -89t88 -216v-21q0 -127 -90 -218t-217 -91q-129 0 -217 89t-88 216 zM963 295q0 -84 53 -140.5t133 -56.5t132 56.5t52 140.5v29q0 84 -53 141t-133 57t-132 -56t-52 -142v-29z" />
<glyph unicode="&#x26;" horiz-adv-x="1394" d="M78 373q0 287 350 387q-117 135 -117 274q0 131 95.5 223.5t242.5 92.5q137 0 229.5 -86t92.5 -215q0 -236 -324 -330l354 -326q86 150 140 408h137q-61 -299 -184 -490l284 -262q2 -2 2 -5q0 -5 -3 -12q-5 -13 -24.5 -26.5t-49.5 -13.5q-57 0 -103 43l-182 172 q-205 -231 -477 -232q-207 0 -335 106t-128 292zM221 379q0 -133 91 -209t237 -76q219 0 383 195l-428 393q-283 -84 -283 -303zM446 1036q0 -123 117 -239q145 39 212 98t67 152q0 80 -54.5 134t-140.5 54q-94 0 -147.5 -56.5t-53.5 -142.5z" />
<glyph unicode="'" d="M160 1325h168l-39 -471q-6 -53 -35 -53h-21q-29 0 -34 53z" />
<glyph unicode="(" horiz-adv-x="780" d="M129 463q0 225 76 414.5t190 304.5q147 147 285 147q61 0 61 -49q0 -14 -7 -31.5t-11 -19.5q-207 -45 -331 -262t-124 -502q0 -293 123 -509t332 -261q4 -2 11 -20.5t7 -30.5q0 -49 -61 -50q-141 0 -285 144q-121 121 -193.5 306.5t-72.5 418.5z" />
<glyph unicode=")" horiz-adv-x="780" d="M39 -356q0 12 7 30.5t11 20.5q209 45 332 261t123 509q0 285 -124 502t-331 262q-4 2 -11 19.5t-7 31.5q0 49 61 49q137 0 285 -147q115 -115 190.5 -304.5t75.5 -414.5q0 -233 -72.5 -418.5t-193.5 -306.5q-143 -143 -285 -144q-61 1 -61 50z" />
<glyph unicode="*" horiz-adv-x="833" d="M80 1083q0 57 43 57q11 0 24 -3l218 -60l8 221q2 31 12 41.5t34.5 10.5t35 -10.5t12.5 -41.5l8 -221l217 60q14 4 25 3q43 0 43 -57q0 -23 -37 -36l-209 -80l125 -187q13 -21 13 -37q0 -13 -9 -22q-22 -21 -41 -21q-22 0 -41 25l-141 176l-141 -176q-19 -25 -41 -25 q-20 0 -41 21q-9 9 -10 22q0 16 14 37l125 187l-209 80q-37 13 -37 36z" />
<glyph unicode="+" horiz-adv-x="1165" d="M127 543v12q0 53 63 53h330v334q0 63 58 64h10q57 0 57 -64v-334h330q63 0 63 -53v-12q0 -53 -63 -54h-330v-356q0 -63 -57 -63h-10q-57 0 -58 63v356h-330q-63 1 -63 54z" />
<glyph unicode="," d="M61 -238l123 367q10 29 17.5 41t23 21.5t39.5 9.5h10q27 0 44.5 -18.5t17.5 -53.5v-8q0 -47 -33 -98l-174 -291q-7 -12 -25 -13q-9 0 -20 3q-26 7 -26 26q0 6 3 14z" />
<glyph unicode="-" horiz-adv-x="811" d="M131 434v123h549v-123h-549z" />
<glyph unicode="." d="M143 78v20q0 92 90 92h21q92 0 92 -92v-20q0 -90 -92 -90h-21q-90 0 -90 90z" />
<glyph unicode="/" horiz-adv-x="722" d="M20 -395l527 1720h139l-526 -1720h-140z" />
<glyph unicode="0" horiz-adv-x="1349" d="M145 592v137q0 287 142.5 454t386.5 167q246 0 388 -166t142 -451v-137q0 -287 -143 -454t-389 -167t-386.5 165t-140.5 452zM285 600q0 -238 103.5 -371t285.5 -133q186 0 288.5 131t102.5 369v129q0 238 -104.5 372t-288.5 134q-182 0 -284.5 -132t-102.5 -370v-129z " />
<glyph unicode="1" horiz-adv-x="772" d="M74 1149q0 20 10 39.5t20.5 29t12.5 7.5q45 -51 116 -51q66 0 111 46t49 113h60q61 0 61 -63v-1270h-139v1108q-55 -76 -152 -76q-76 0 -117 41q-32 33 -32 76z" />
<glyph unicode="2" horiz-adv-x="1126" d="M117 84v41q0 102 31.5 183t98 142.5t126 99.5t153.5 85q197 100 252 147q98 82 99 187q0 119 -82 186.5t-226 67.5q-272 0 -352 -273q-4 -2 -25.5 -3t-45 20.5t-23.5 56.5q0 94 94 188q139 139 363 140q201 0 317.5 -103.5t116.5 -281.5q0 -82 -30 -147.5t-96.5 -119 t-120.5 -85t-153 -78.5q-90 -43 -141 -73t-109.5 -78t-85 -105.5t-26.5 -130.5v-23h780v-127h-827q-88 0 -88 84z" />
<glyph unicode="3" horiz-adv-x="1150" d="M66 266q0 33 19 54.5t38.5 26.5t21.5 -1q43 -119 147.5 -184.5t246.5 -65.5q158 0 251 73t93 196q0 135 -91.5 205.5t-265.5 70.5h-174v119h197q143 0 219 61.5t76 173.5q0 111 -81 173.5t-224 62.5q-123 0 -212 -56.5t-137 -152.5q-2 -4 -21.5 2t-38.5 26.5t-19 47.5 q0 53 61 114q137 137 367 138q211 0 328.5 -92.5t117.5 -260.5q0 -219 -219 -286q125 -41 191.5 -130t66.5 -214q0 -182 -130 -287t-357 -105q-252 0 -390 138q-81 81 -81 153z" />
<glyph unicode="4" horiz-adv-x="1251" d="M113 451v41q0 43 57 112l526 649q39 49 60.5 64.5t64.5 15.5q59 0 84 -21.5t25 -68.5v-739h235v-127h-235v-377h-135v377h-584q-45 0 -71.5 21.5t-26.5 52.5zM240 502h559v696z" />
<glyph unicode="5" horiz-adv-x="1142" d="M94 238q0 27 19.5 47t40 26t22.5 2q104 -213 377 -213q160 0 256 81t96 218q0 135 -88 214t-239 79q-203 0 -338 -98q-88 12 -88 96v557q0 33 22.5 55.5t54.5 22.5h740v-127h-684v-446q143 70 295 69q209 0 336.5 -113.5t127.5 -301.5q0 -199 -133 -315t-362 -116 q-123 0 -225.5 39t-163.5 101q-66 66 -66 123z" />
<glyph unicode="6" horiz-adv-x="1239" d="M145 580v149q0 289 142.5 455t384.5 166q231 0 348 -117q51 -51 51 -100q0 -23 -18.5 -42.5t-37 -28.5t-20.5 -5q-117 174 -323 174q-182 0 -285.5 -129t-103.5 -365v-65q168 158 391 157q207 0 329.5 -109.5t122.5 -291.5v-10q0 -190 -132 -316.5t-332 -126.5 q-250 0 -383.5 164.5t-133.5 440.5zM285 530q10 -207 105 -321.5t263 -114.5q150 0 244 87t94 225v12q0 141 -85 218q-84 77 -244 77q-106 0 -211 -52.5t-166 -130.5z" />
<glyph unicode="7" horiz-adv-x="1122" d="M92 1198v127h879q80 0 80 -61v-13q0 -27 -37 -96l-594 -1114q-27 -49 -74 -49q-23 0 -42 12t-28.5 25.5t-5.5 19.5l627 1149h-805z" />
<glyph unicode="8" horiz-adv-x="1226" d="M117 346q0 117 69.5 206t200.5 130q-231 76 -231 303q0 162 126 263.5t332 101.5q213 0 334 -97.5t121 -263.5q0 -225 -229 -305q131 -39 199.5 -127t68.5 -209q0 -162 -138.5 -267.5t-357.5 -105.5q-227 0 -361 101.5t-134 269.5zM256 354q0 -117 95 -188.5t263 -71.5 q174 0 264.5 68.5t90.5 191.5q0 121 -95.5 194t-261.5 73q-170 0 -263 -72t-93 -195zM295 981q0 -109 85 -174.5t234 -65.5q152 0 234 63.5t82 176.5q0 115 -83 183.5t-235 68.5q-158 0 -237.5 -66.5t-79.5 -185.5z" />
<glyph unicode="9" horiz-adv-x="1239" d="M113 877v10q0 193 133 328t332 135q244 0 380 -160t136 -445v-149q0 -307 -137.5 -464t-399.5 -157q-231 0 -346 115q-53 53 -53 103q0 23 18.5 42t36.5 28t20 5q117 -174 324 -174q201 0 300 121t99 373v43q-70 -68 -175 -112t-216 -44q-207 0 -329.5 110t-122.5 292z M248 887q0 -141 85 -218t245 -77q109 0 212 52t166 132q-8 215 -103 335t-267 120q-147 0 -242.5 -96.5t-95.5 -235.5v-12z" />
<glyph unicode=":" horiz-adv-x="550" d="M174 78v20q0 92 90 92h21q92 0 92 -92v-20q0 -90 -92 -90h-21q-90 0 -90 90zM174 774v21q0 92 90 92h21q92 0 92 -92v-21q0 -90 -92 -90h-21q-90 0 -90 90z" />
<glyph unicode=";" horiz-adv-x="550" d="M92 -238l123 367q10 29 17.5 41t22.5 21.5t40 9.5h10q27 0 44.5 -18.5t17.5 -53.5v-8q0 -47 -33 -98l-174 -291q-7 -12 -25 -13q-9 0 -20 3q-26 7 -26 26q0 6 3 14zM174 774v21q0 92 90 92h21q92 0 92 -92v-21q0 -90 -92 -90h-21q-90 0 -90 90z" />
<glyph unicode="&#x3c;" horiz-adv-x="1019" d="M131 549q0 41 9.5 57.5t31.5 28.5l670 360q1 0 2 1q4 0 11 -7q9 -8 19 -23q13 -19 13 -41q0 -48 -84 -94l-539 -282l539 -281q84 -45 84 -97q0 -22 -11 -41q-9 -15 -20 -22q-8 -6 -12 -6h-2l-670 359q-23 12 -32 28.5t-9 59.5z" />
<glyph unicode="=" horiz-adv-x="1165" d="M147 299v14q0 55 64 56h743q63 0 64 -56v-14q0 -55 -64 -55h-743q-64 0 -64 55zM147 764v14q0 55 64 56h743q63 0 64 -56v-14q0 -55 -64 -55h-743q-64 0 -64 55z" />
<glyph unicode="&#x3e;" horiz-adv-x="1017" d="M131 171q0 52 84 97l539 281l-539 282q-84 46 -84 94v7q2 18 12.5 33.5t19.5 23.5q7 7 11 7q1 0 2 -1l670 -360q23 -12 32 -28.5t9 -57.5q0 -43 -9.5 -59.5t-31.5 -28.5l-670 -359h-2q-4 0 -12 6q-10 7 -20 22q-11 19 -11 41z" />
<glyph unicode="?" horiz-adv-x="1009" d="M104 1030q0 102 97 199q121 121 319 121q180 0 289 -95.5t109 -240.5q0 -78 -33 -139.5t-69 -92t-101 -75.5q-51 -35 -78 -57.5t-62.5 -64.5t-51 -96.5t-15.5 -126.5h-115q6 170 65.5 262.5t160.5 159.5q57 39 83.5 59.5t52 63.5t25.5 94q0 104 -69.5 165t-194.5 61 q-145 0 -219 -80t-92 -199q-2 -6 -26.5 -1t-49.5 26.5t-25 56.5zM360 68v41q0 43 16.5 59t59.5 16h41q43 0 60.5 -17t17.5 -58v-41q0 -41 -17.5 -58.5t-60.5 -17.5h-41q-41 0 -58.5 17.5t-17.5 58.5z" />
<glyph unicode="@" horiz-adv-x="1589" d="M129 662q0 303 188.5 495.5t485.5 192.5q305 0 485 -167t180 -452q0 -190 -74.5 -293.5t-215.5 -103.5q-86 0 -144.5 37t-72.5 100q-72 -133 -218 -133q-119 0 -197.5 87t-78.5 224t79 223t201.5 86t198.5 -108v96h131v-340q0 -172 127 -172q162 0 162 297 q0 238 -153.5 379t-409.5 141q-252 0 -412 -164.5t-160 -424.5q0 -256 167 -422t427 -166q190 0 326 88q39 25 70 24q16 0 31.5 -15t22.5 -31.5t1 -20.5q-74 -59 -194.5 -101.5t-256.5 -42.5q-313 0 -504.5 189t-191.5 498zM604 649q0 -88 47 -142t123 -54q72 0 122 47 t50 118v99q-53 127 -170 127q-78 0 -125 -53.5t-47 -141.5z" />
<glyph unicode="A" horiz-adv-x="1308" d="M51 0l498 1286q20 51 104 51t105 -51l497 -1286h-155l-166 432h-567l-166 -432h-150zM412 555h477l-238 625z" />
<glyph unicode="B" horiz-adv-x="1296" d="M188 0v1247q0 33 22.5 55.5t55.5 22.5h424q211 0 321.5 -89t110.5 -259q0 -213 -229 -289q143 -31 215 -117t72 -204q0 -367 -478 -367h-514zM328 125h372q178 0 257 58.5t79 189.5q0 238 -327 237h-381v-485zM328 733h368q127 0 205 65.5t78 172.5q0 229 -289 229h-362 v-467z" />
<glyph unicode="C" horiz-adv-x="1413" d="M133 659q0 305 185.5 498t478.5 193q276 0 436 -160q57 -57 57 -103q0 -33 -19.5 -54t-40 -27.5t-22.5 -1.5q-61 106 -175.5 165.5t-239.5 59.5q-227 0 -372 -158t-145 -407q0 -248 147.5 -408t373.5 -160q147 0 265 71t163 189q2 6 23.5 0t44 -27.5t22.5 -54.5 q0 -57 -78 -135q-70 -70 -185.5 -117t-260.5 -47q-291 0 -474.5 190.5t-183.5 493.5z" />
<glyph unicode="D" horiz-adv-x="1437" d="M188 0v1247q0 33 22.5 55.5t55.5 22.5h314q342 0 533.5 -174t191.5 -485q0 -313 -195 -489.5t-541 -176.5h-381zM328 123h250q279 0 431 141.5t152 397.5q0 254 -154.5 397t-426.5 143h-252v-1079z" />
<glyph unicode="E" horiz-adv-x="1241" d="M188 0v1247q0 33 22.5 55.5t55.5 22.5h848v-127h-786v-457h641v-123h-641v-491h798v-127h-938z" />
<glyph unicode="F" horiz-adv-x="1153" d="M188 0v1247q0 33 22.5 55.5t55.5 22.5h797v-127h-735v-500h569v-123h-569v-575h-140z" />
<glyph unicode="G" horiz-adv-x="1507" d="M133 659q0 305 185.5 498t478.5 193q143 0 254.5 -45t175 -108.5t63.5 -109.5q0 -35 -20.5 -55t-41 -24t-22.5 0q-61 104 -174.5 162.5t-238.5 58.5q-229 0 -373 -158t-144 -407q0 -252 134.5 -410t365.5 -158q178 0 301 99.5t146 250.5v105h-441v125h461q45 0 74 -30 t29 -73v-567q0 -14 -46 -14q-39 0 -58 27.5t-19 105.5v74q-61 -104 -183 -164t-282 -60q-283 0 -454 191.5t-171 492.5z" />
<glyph unicode="H" horiz-adv-x="1452" d="M188 0v1270q0 63 60 63h18q61 0 62 -63v-543h796v543q0 63 60 63h18q61 0 62 -63v-1270h-140v600h-796v-600h-140z" />
<glyph unicode="I" horiz-adv-x="557" d="M209 0v1325h139v-1325h-139z" />
<glyph unicode="J" horiz-adv-x="956" d="M84 168q0 25 19.5 47.5t40 31.5t22.5 5q33 -70 95.5 -113t141.5 -43q133 0 189.5 74t56.5 248v907h139v-907q0 -225 -93 -334t-292 -109q-129 0 -224 65t-95 128z" />
<glyph unicode="K" horiz-adv-x="1200" d="M188 0v1270q0 63 60 63h18q61 0 62 -63v-576l606 596q41 41 79 42t56 -22.5t14 -49.5l-602 -580l617 -617q6 -47 -48.5 -67.5t-103.5 29.5l-618 637v-662h-140z" />
<glyph unicode="L" horiz-adv-x="1126" d="M188 0v1270q0 63 60 63h18q61 0 62 -63v-1141h639q63 0 63 -59v-11q0 -59 -63 -59h-779z" />
<glyph unicode="M" horiz-adv-x="1579" d="M188 0v1245q0 39 28 63.5t73 24.5h33q49 0 70.5 -21.5t49.5 -82.5l349 -772l350 772q27 59 49 81.5t72 22.5h28q45 0 73 -24.5t28 -63.5v-1245h-134v1174l-348 -756q-39 -88 -121 -88q-49 0 -74.5 21.5t-45.5 66.5l-346 756v-1174h-134z" />
<glyph unicode="N" horiz-adv-x="1443" d="M188 1239q0 41 20.5 67.5t55.5 26.5h35q35 0 57 -16.5t50 -56.5l718 -1043v1108h131v-1239q0 -43 -19 -68.5t-52 -25.5h-10q-35 0 -51.5 11t-39.5 42l-764 1104v-1149h-131v1239z" />
<glyph unicode="O" horiz-adv-x="1585" d="M133 659.5q0 303.5 185.5 497t476 193.5t474 -190.5t183.5 -495.5q0 -303 -184.5 -496t-477 -193t-475 190.5t-182.5 494zM276 663.5q0 -247.5 146.5 -407.5t372 -160t370 158t144.5 405.5t-146.5 408.5t-372 161t-370 -159t-144.5 -406.5z" />
<glyph unicode="P" horiz-adv-x="1193" d="M188 0v1247q0 33 22.5 55.5t55.5 22.5h340q231 0 359.5 -104.5t128.5 -296.5q0 -199 -128 -303.5t-376 -104.5h-262v-516h-140zM328 639h274q348 0 348 280.5t-342 280.5h-280v-561z" />
<glyph unicode="Q" horiz-adv-x="1585" d="M133 659.5q0 303.5 185.5 497t476 193.5t474 -190.5t183.5 -495.5q0 -274 -166 -467l158 -158q4 -4 -4 -19.5t-28.5 -30t-47.5 -14.5q-35 0 -70 35l-98 101q-174 -135 -405 -136q-293 0 -475.5 190.5t-182.5 494zM276 663.5q0 -247.5 146.5 -407.5t372.5 -160 q184 0 313 99l-295 299l88 92l295 -301q113 152 113 374q0 248 -146.5 409t-372 161t-370 -159t-144.5 -406.5z" />
<glyph unicode="R" horiz-adv-x="1222" d="M188 0v1247q0 33 22.5 55.5t55.5 22.5h365q233 0 355 -97.5t122 -285.5q0 -182 -115.5 -282.5t-322.5 -102.5l422 -500q4 -6 -5.5 -21.5t-31 -29.5t-47.5 -14q-45 0 -86 49l-430 516h-166v-557h-138zM326 676h317q160 0 241 69.5t81 192.5q0 262 -330 262h-309v-524z" />
<glyph unicode="S" horiz-adv-x="1169" d="M106 236q0 27 19.5 48t40 30.5t22.5 4.5q131 -223 402 -223q154 0 239.5 65.5t85.5 180.5q0 61 -27.5 107.5t-87 76t-109.5 46t-140 36.5q-92 23 -151.5 43.5t-125 62.5t-98.5 109.5t-33 161.5q0 156 127 260.5t318 104.5q129 0 229.5 -38t157.5 -95q51 -51 51 -97 q0 -27 -19.5 -48t-40 -30.5t-22.5 -5.5q-49 86 -142 139.5t-212 53.5q-139 0 -225 -66.5t-86 -173.5q0 -49 18 -87t41.5 -61.5t75 -44t90.5 -30.5l114 -29q74 -16 127.5 -33.5t116 -49t101 -70.5t64.5 -99.5t26 -136.5q0 -170 -126 -271.5t-335 -101.5q-139 0 -250 43 t-176 109q-60 60 -60 109z" />
<glyph unicode="T" horiz-adv-x="1257" d="M80 1255v11q0 59 63 59h971q63 0 64 -59v-11q0 -57 -64 -57h-416v-1198h-139v1198h-416q-63 0 -63 57z" />
<glyph unicode="U" horiz-adv-x="1370" d="M168 522v748q0 63 59 63h19q61 0 61 -63v-738q0 -432 379 -432t379 435v735q0 63 57 63h25q55 0 55 -63v-742q0 -268 -134 -410.5t-386 -142.5q-250 0 -382 140.5t-132 406.5z" />
<glyph unicode="V" horiz-adv-x="1290" d="M68 1292q-4 10 26 27q31 17 57 17q34 0 60 -29q12 -14 20 -37l416 -1123l418 1123q18 53 59 61q13 3 26 3q26 0 46 -12q31 -17 27 -30l-500 -1292h-156z" />
<glyph unicode="W" horiz-adv-x="1912" d="M143 1303q-2 10 32 24q16 7 33 7q20 0 42 -9q41 -16 55 -78l254 -1122l291 948q14 41 36.5 59.5t74 18.5t73 -17.5t35.5 -60.5l287 -944l260 1118q14 61 53 78q21 9 40 9q16 0 31 -7q32 -14 29 -24l-319 -1303h-184l-303 1014l-322 -1014h-178z" />
<glyph unicode="X" horiz-adv-x="1253" d="M84 57l461 613l-445 655h152l379 -559l395 530q33 43 68 43q23 0 41 -14t25 -30q5 -10 5 -15q0 -3 -2 -6l-456 -606l456 -605q1 -2 2 -5q0 -6 -5 -16q-7 -15 -26.5 -29.5t-43.5 -14.5q-47 0 -78 41l-389 536l-402 -540q-33 -43 -67 -43q-23 0 -41.5 14t-25.5 30 q-5 10 -5 16q1 3 2 5z" />
<glyph unicode="Y" horiz-adv-x="1185" d="M51 1325h154l389 -647l387 606q29 47 68 48h3q37 0 60 -21q25 -23 21 -37l-471 -723v-551h-140v551z" />
<glyph unicode="Z" horiz-adv-x="1298" d="M141 0v147l844 1051h-778q-63 0 -64 57v11q0 59 64 59h932v-141l-848 -1057h821q63 0 64 -57v-11q0 -59 -64 -59h-971z" />
<glyph unicode="[" horiz-adv-x="722" d="M193 -403v1728h393q63 0 63 -53v-15q0 -53 -63 -53h-267v-1487h267q63 0 63 -53v-14q0 -53 -63 -53h-393z" />
<glyph unicode="\" horiz-adv-x="722" d="M35 1325h139l526 -1720h-139z" />
<glyph unicode="]" horiz-adv-x="722" d="M74 -336q0 53 63 53h266v1487h-266q-63 0 -63 53v15q0 53 63 53h393v-1728h-393q-63 0 -63 53v14z" />
<glyph unicode="^" horiz-adv-x="1085" d="M274 961q0 57 107 163q35 35 73 69t61.5 51.5t27.5 17.5t27.5 -18.5t60.5 -50.5t67 -63q111 -111 111 -169q0 -47 -43 -48q-47 0 -145 125l-80 105l-82 -109q-94 -121 -139.5 -120.5t-45.5 47.5z" />
<glyph unicode="_" horiz-adv-x="1013" d="M61 -59q0 59 64 59h764q63 0 63 -59v-11q0 -57 -63 -57h-764q-63 0 -64 57v11z" />
<glyph unicode="`" horiz-adv-x="1085" d="M276 1372q0 25 18.5 40t43.5 15q45 0 94 -36q59 -43 124 -105.5t100 -106.5q32 -40 33 -49q0 -3 -8 -3q-14 0 -52 11q-53 15 -133 52t-144 80q-76 51 -76 102z" />
<glyph unicode="a" horiz-adv-x="1095" d="M106 250q0 168 167 245.5t511 86.5h21v34q0 125 -70.5 193t-204.5 68q-215 0 -311 -181q0 -2 -19.5 3.5t-38 23.5t-18.5 51q0 45 54 98q127 127 344 127q186 0 290.5 -101t104.5 -277v-621h-129v150q-123 -172 -365 -173q-158 0 -247 74t-89 199zM242 250q0 -74 57 -118 t156 -44q150 0 250 88t100 211v90h-27q-279 -10 -407.5 -62t-128.5 -165z" />
<glyph unicode="b" horiz-adv-x="1226" d="M168 0v1380q0 2 6 5.5t16.5 6.5t22.5 3q88 0 88 -129v-443q137 176 363 176q197 0 328.5 -141t131.5 -369q0 -229 -132 -371.5t-337 -142.5q-123 0 -217 51.5t-139 127.5v-154h-131zM299 422q0 -137 103.5 -233.5t242.5 -96.5q156 0 250 109.5t94 285.5q0 172 -96 284 t-244 112q-250 0 -350 -232v-229z" />
<glyph unicode="c" horiz-adv-x="1122" d="M102 489.5q0 221.5 143.5 365.5t358.5 144q217 0 348 -131q72 -72 72 -139q0 -27 -21.5 -45t-42 -19t-24.5 1q-90 215 -332 215q-158 0 -262 -111t-104 -281t104 -282.5t262 -112.5q242 0 332 215q4 2 24.5 1t42 -19.5t21.5 -44.5q0 -68 -76 -144q-127 -127 -344 -127 q-215 0 -358.5 146.5t-143.5 368z" />
<glyph unicode="d" horiz-adv-x="1226" d="M102 485q0 229 132.5 371.5t336.5 142.5q123 0 216.5 -46t138.5 -115v542q0 2 6 5.5t16 6.5t23 3q88 0 88 -129v-1266h-131v152q-137 -176 -365 -177q-197 0 -329 141.5t-132 368.5zM238 487q0 -172 96 -283.5t244 -111.5q139 0 244.5 95.5t105.5 232.5v233 q-100 229 -346 230q-156 0 -250 -110t-94 -286z" />
<glyph unicode="e" horiz-adv-x="1148" d="M102 483q0 223 139.5 369.5t352.5 146.5q207 0 331 -134t124 -357v-12q0 -27 -12.5 -36t-43.5 -9h-757q10 -162 112.5 -259.5t257.5 -97.5q225 0 334 174q2 4 21.5 -2t38 -25.5t18.5 -47.5q0 -39 -53 -93q-51 -51 -146.5 -88t-212.5 -37q-223 0 -363.5 141.5 t-140.5 366.5zM242 565h665q-10 145 -94 231.5t-219 86.5t-232 -88.5t-120 -229.5z" />
<glyph unicode="f" horiz-adv-x="737" d="M59 856v119h199v90q0 168 72.5 257t214.5 89q115 0 168 -53q27 -27 26 -62q0 -20 -9 -36.5t-18.5 -22.5t-11.5 -4q-59 59 -155 59q-82 0 -120 -56t-38 -177v-84h252v-119h-250v-856h-131v856h-199z" />
<glyph unicode="g" horiz-adv-x="1226" d="M102 498q0 217 135.5 359t333.5 142q123 0 217.5 -46t139.5 -111v133h133v-926q0 -227 -121 -343t-344 -116q-246 0 -377 131q-53 53 -53 99q0 31 18.5 53.5t38 29.5t21.5 1q104 -195 354 -195q330 0 330 340v123q-133 -168 -365 -168q-205 0 -333 135.5t-128 358.5z M238 500q0 -174 92 -277.5t248 -103.5q141 0 245.5 92t104.5 229v213q-100 229 -346 230q-154 0 -249 -107.5t-95 -275.5z" />
<glyph unicode="h" horiz-adv-x="1177" d="M168 0v1380q0 2 6 5.5t16.5 6.5t22.5 3q88 0 88 -129v-447q115 180 330 180q188 0 287.5 -115.5t99.5 -314.5v-569h-133v561q0 147 -70 230t-192 83q-145 0 -233.5 -91t-88.5 -242v-541h-133z" />
<glyph unicode="i" d="M158 1307q0 88 90 88q86 0 86 -88t-90 -88q-86 0 -86 88zM178 0v920q0 63 60 63h14q59 0 59 -63v-920h-133z" />
<glyph unicode="j" d="M-141 -285q0 20 9 39t18.5 28t11.5 7q61 -61 143 -61q74 0 105.5 43t31.5 139v1065h133v-1075q0 -141 -68.5 -216t-199.5 -75q-106 0 -158 51q-26 26 -26 55zM158 1307q0 88 90 88q86 0 86 -88t-90 -88q-86 0 -86 88z" />
<glyph unicode="k" horiz-adv-x="968" d="M168 0v1380q0 2 6 5.5t16.5 6.5t22.5 3q88 0 88 -129v-738l393 402q31 33 58.5 45t46 7t31 -16.5t17.5 -25.5t3 -22l-404 -400l467 -457q0 -8 -5 -22t-17 -27.5t-29.5 -18.5t-45.5 6t-60 44l-455 453v-496h-133z" />
<glyph unicode="l" d="M178 0v1380q0 2 6 5.5t16.5 6.5t22.5 3q88 0 88 -129v-1266h-133z" />
<glyph unicode="m" horiz-adv-x="1812" d="M168 969q0 2 6 5t16.5 6t22.5 3q86 0 86 -129v-25q115 170 307 170q242 0 324 -208q53 94 142 151t204 57q184 0 280.5 -104t96.5 -307v-588h-133v580q0 294 -252 294q-90 0 -169 -54t-122 -142v-678h-133v569q0 305 -252 305q-90 0 -169 -54t-122 -142v-678h-133v969z " />
<glyph unicode="n" horiz-adv-x="1177" d="M168 0v969q0 2 6 5t16.5 6t22.5 3q86 0 86 -129v-31q117 176 332 176q188 0 287.5 -115.5t99.5 -314.5v-569h-133v561q0 147 -70 230t-192 83q-111 0 -194 -55t-128 -151v-668h-133z" />
<glyph unicode="o" horiz-adv-x="1212" d="M102 489q0 221 142.5 365.5t361.5 144.5q217 0 359.5 -145t142.5 -369q0 -221 -142.5 -365.5t-359.5 -144.5q-219 0 -361.5 145.5t-142.5 368.5zM238 489q0 -170 105.5 -283.5t263 -113.5t262 111.5t104.5 281.5t-104.5 284t-262 114t-263 -112t-105.5 -282z" />
<glyph unicode="p" horiz-adv-x="1226" d="M168 -395v1364q0 2 6 5t16.5 6t22.5 3q86 0 86 -129v-31q137 176 365 176q197 0 328.5 -141t131.5 -369q0 -229 -132 -371.5t-337 -142.5q-123 0 -216 52.5t-138 126.5v-549h-133zM299 422q0 -137 103.5 -233.5t242.5 -96.5q156 0 250 109.5t94 285.5q0 172 -96 284 t-244 112q-250 0 -350 -232v-229z" />
<glyph unicode="q" horiz-adv-x="1226" d="M102 485q0 229 132.5 371.5t336.5 142.5q123 0 217.5 -47t139.5 -116v18q0 129 86 129q12 0 22.5 -3t16.5 -6t6 -5v-1364h-133v545q-139 -174 -363 -175q-197 0 -329 141.5t-132 368.5zM238 487q0 -172 96 -283.5t244 -111.5q139 0 244.5 97.5t105.5 234.5v225 q-100 233 -346 234q-156 0 -250 -110t-94 -286z" />
<glyph unicode="r" horiz-adv-x="753" d="M168 969q0 2 6 5t16.5 6t22.5 3q86 0 86 -129v-59q66 205 258 204q141 0 141 -100q0 -23 -8 -40t-17 -24.5t-11 -5.5q-47 41 -119 41q-125 0 -183.5 -116.5t-58.5 -315.5v-438h-133v969z" />
<glyph unicode="s" horiz-adv-x="991" d="M94 174q0 49 56 70q14 4 16 2q115 -158 334 -158q119 0 185.5 44t66.5 120q0 35 -13.5 60.5t-33 42t-61.5 31.5t-77 23.5t-102 22.5q-61 12 -96 21.5t-88.5 32t-83 48t-52 69.5t-22.5 102q0 131 102.5 212.5t270.5 81.5q215 0 319 -104q41 -41 41 -82q0 -23 -17.5 -41 t-36 -25.5t-20.5 -3.5q-94 143 -286 144q-117 0 -181.5 -45t-64.5 -119t60.5 -106.5t211.5 -65.5q55 -12 83 -19.5t79 -23.5t79 -34.5t58.5 -46.5t45 -66.5t14.5 -88.5q0 -135 -103.5 -216t-281.5 -81q-240 0 -357 117q-45 45 -45 82z" />
<glyph unicode="t" horiz-adv-x="770" d="M84 856v119h145v170q0 63 60 63h14q57 0 57 -63v-170h316v-119h-316v-555q0 -111 33 -161t113 -50q94 0 151 72q2 2 13.5 -3t21.5 -22.5t10 -40.5q0 -33 -30 -63q-57 -57 -170 -58q-272 0 -273 312v569h-145z" />
<glyph unicode="u" horiz-adv-x="1177" d="M160 406v569h133v-561q0 -147 69.5 -230.5t192.5 -83.5q111 0 193.5 55.5t128.5 151.5v668h133v-969q0 -2 -6.5 -5t-16.5 -6t-22 -3q-86 0 -86 129v31q-117 -176 -332 -177q-188 0 -287.5 116t-99.5 315z" />
<glyph unicode="v" horiz-adv-x="1030" d="M61 944q0 16 29 32q14 8 31.5 8t37.5 -8q40 -15 64 -79l293 -776l295 776q16 41 37.5 62.5t42.5 23.5q5 1 10 1q15 0 28 -5q17 -6 28.5 -16.5t11.5 -18.5l-375 -944h-156z" />
<glyph unicode="w" horiz-adv-x="1441" d="M80 944q0 4 12 15.5t33 17.5q18 5 35 5h6q20 -1 40.5 -24.5t31.5 -68.5l178 -766l209 657q10 31 30.5 43.5t69.5 12.5t69.5 -12.5t30.5 -43.5l207 -657l176 766q16 74 55 88q17 6 31 6q20 0 37 -10q31 -18 31 -29l-246 -944h-164l-227 707l-233 -707h-164z" />
<glyph unicode="x" horiz-adv-x="1013" d="M80 49l346 436l-340 441q-2 4 3 17t22.5 26.5t42.5 13.5q33 0 53 -15.5t47 -52.5l258 -348l252 346q49 70 98 70q25 0 42.5 -13.5t23.5 -27.5t4 -16l-344 -441l338 -436q2 -4 -3 -17.5t-22.5 -26.5t-42.5 -13q-33 0 -53.5 15.5t-46.5 51.5l-258 347l-250 -345 q-51 -70 -100 -69q-25 0 -42.5 13t-23.5 27.5t-4 16.5z" />
<glyph unicode="y" horiz-adv-x="1028" d="M49 975h139l349 -842l303 842h141l-481 -1290q-33 -88 -94 -88q-16 0 -34 7t-28 15t-8 12l164 418q-35 0 -51.5 10.5t-30.5 40.5z" />
<glyph unicode="z" horiz-adv-x="1030" d="M113 0v102l620 758h-553q-68 0 -67 51v13q0 51 67 51h731v-90l-630 -770h577q68 0 68 -52v-12q0 -51 -68 -51h-745z" />
<glyph unicode="{" horiz-adv-x="901" d="M84 463q0 53 17.5 73.5t74.5 53.5l135 72q6 164 53.5 297t117 211.5t146.5 120.5t150 42q53 0 53 -57q0 -14 -7 -31.5t-11 -19.5q-197 -41 -278.5 -194.5t-90.5 -438.5l-243 -129l241 -129q8 -285 90 -438.5t279 -194.5q4 -2 11 -19.5t7 -31.5q0 -57 -53 -58 q-74 0 -150.5 42t-146 121t-117 212t-53.5 297l-133 72q-57 33 -74.5 53.5t-17.5 73.5z" />
<glyph unicode="|" horiz-adv-x="559" d="M213 -340v1610q0 63 59 63h15q59 0 59 -63v-1610q0 -63 -59 -63h-15q-59 0 -59 63z" />
<glyph unicode="}" horiz-adv-x="901" d="M68 1276q0 57 53 57q74 0 150.5 -42t146 -120.5t117 -212t53.5 -296.5l135 -72q57 -33 74.5 -53.5t17.5 -73.5t-17.5 -73.5t-74.5 -53.5l-133 -72q-6 -164 -53.5 -297t-117 -212t-146 -121t-150.5 -42q-53 0 -53 58q0 14 7 31.5t11 19.5q197 41 279 194.5t90 438.5 l241 129l-243 129q-8 285 -90 438.5t-279 194.5q-4 2 -11 19.5t-7 31.5z" />
<glyph unicode="~" horiz-adv-x="1083" d="M248 397q0 70 41 127.5t100 57.5q51 0 135 -44t168 -120q47 150 94 149q51 0 52 -53q0 -70 -41 -127t-101 -57q-51 0 -135 44t-168 120q-47 -150 -94 -150q-51 0 -51 53z" />
<glyph unicode="&#xa1;" horiz-adv-x="567" d="M182 1227v20q0 90 92 90h21q90 0 90 -90v-20q0 -92 -90 -92h-21q-92 0 -92 92zM199 0l45 911q4 49 32 50h17q27 0 31 -50l45 -911h-170z" />
<glyph unicode="&#xa2;" horiz-adv-x="1165" d="M127 575q0 207 124 350.5t318 168.5v188q0 63 56 64h10q55 0 55 -64v-184q162 -10 263.5 -89t101.5 -143q0 -27 -17.5 -48t-36 -28.5t-20.5 -3.5q-98 176 -297 193v-803q223 12 311 213q2 4 21.5 -1t38 -23.5t18.5 -45.5q0 -78 -106.5 -164.5t-276.5 -97.5v-194 q0 -63 -55 -64h-10q-55 0 -56 64v198q-207 25 -324.5 160t-117.5 354zM262 578q0 -164 85 -268.5t228 -127.5v795q-145 -16 -229 -120.5t-84 -278.5z" />
<glyph unicode="&#xa3;" horiz-adv-x="1216" d="M63 57v13q0 57 64 57h115l75 412h-161q-63 0 -64 53v14q0 55 64 56h184l57 313q68 375 391 375q158 0 247 -85t89 -178q0 -35 -23.5 -56t-45 -20t-25.5 3q-45 217 -242 217q-115 0 -173 -62.5t-83 -201.5l-55 -305h340q63 0 64 -56v-14q0 -53 -64 -53h-362l-76 -412h655 q63 0 64 -59v-11q0 -57 -64 -57h-907q-64 0 -64 57z" />
<glyph unicode="&#xa4;" horiz-adv-x="1343" d="M104 823v13q0 53 64 53h143q41 213 175.5 337t330.5 124q176 0 293 -85t117 -167q0 -29 -19.5 -48.5t-39 -25.5t-21.5 -2q-113 211 -338 211q-135 0 -231.5 -92t-131.5 -252h443q63 0 63 -53v-13q0 -53 -63 -53h-459q-2 -18 -2 -57v-148h461q63 0 63 -53v-12 q0 -53 -63 -54h-445q35 -162 135.5 -257t241.5 -95q227 0 332 230q2 6 22.5 -0.5t40 -27t19.5 -50.5q0 -86 -119 -178.5t-289 -92.5q-209 0 -345 124t-173 347h-141q-63 0 -64 54v12q0 53 64 53h127v146q0 39 2 59h-129q-64 0 -64 53z" />
<glyph unicode="&#xa5;" horiz-adv-x="1226" d="M117 1274q-4 6 8 19.5t35.5 26.5t50.5 13q41 0 68 -47l333 -600l342 598q33 49 70 49q23 0 44.5 -13t32.5 -27q8 -10 8 -15q0 -2 -1 -4l-389 -633h287q63 0 63 -53v-13q0 -53 -63 -53h-330v-164h330q63 0 63 -53v-12q0 -53 -63 -53h-330v-185q0 -63 -58 -63h-14 q-55 0 -55 63v185h-330q-63 0 -63 53v12q0 53 63 53h330v164h-330q-63 0 -63 53v13q0 53 63 53h285z" />
<glyph unicode="&#xa7;" horiz-adv-x="1126" d="M92 -78q0 27 18.5 47.5t37 29.5t20.5 5q117 -209 381 -209q143 0 225 48t82 132q0 39 -15.5 69t-36 49.5t-67.5 36.5t-81.5 26.5t-108.5 25.5l-27 6l-120 30q-44 11 -106.5 38t-97 57.5t-60 80.5t-25.5 114q0 193 225 260q-186 76 -186 258q0 141 121.5 232.5t299.5 91.5 q190 0 299 -77t109 -151q0 -25 -17.5 -45t-36 -29.5t-20.5 -5.5q-119 184 -334 185q-121 0 -204.5 -50.5t-83.5 -134.5q0 -86 76.5 -132t248.5 -85q63 -14 99 -23t92.5 -28.5t88.5 -41t65.5 -52.5t49 -74t15.5 -96q0 -190 -219 -262q190 -72 190 -262q0 -141 -120.5 -227.5 t-317.5 -86.5q-217 0 -338 84t-121 166zM240 522q0 -41 19.5 -72.5t44 -52t76.5 -39t89 -27.5l109 -26l69 -16q100 8 171 70.5t71 136.5q0 49 -23.5 83.5t-79 59.5t-100.5 37t-135 33q-49 8 -74 14q-102 -12 -169.5 -72.5t-67.5 -128.5z" />
<glyph unicode="&#xa8;" horiz-adv-x="1085" d="M270 1223q0 47 28 73.5t71 26.5q47 0 74.5 -26.5t27.5 -73.5t-26.5 -74t-71.5 -27q-47 0 -75 27t-28 74zM614 1223q0 47 27 73.5t72 26.5q47 0 74.5 -26.5t27.5 -73.5t-27.5 -74t-70.5 -27q-47 0 -75 27t-28 74z" />
<glyph unicode="&#xa9;" horiz-adv-x="1611" d="M133 659q0 297 192.5 494t481.5 197q295 0 483.5 -192.5t188.5 -491.5q0 -297 -192.5 -494t-481.5 -197q-295 0 -483.5 192.5t-188.5 491.5zM244 664q0 -254 160.5 -422t404.5 -168q248 0 403.5 163.5t155.5 424.5q0 254 -160.5 421.5t-404.5 167.5q-248 0 -403.5 -163.5 t-155.5 -423.5zM461 659q0 156 104.5 261.5t255.5 105.5q147 0 234 -86q39 -39 39 -78q0 -20 -16.5 -37.5t-34 -23.5t-19.5 -2q-61 113 -205 112q-94 0 -163.5 -72.5t-69.5 -176.5q0 -109 69.5 -180.5t171.5 -71.5q150 0 205 122q2 4 19.5 -1t35 -22t17.5 -40q0 -39 -49 -90 q-80 -84 -232 -84q-160 0 -261 102t-101 262z" />
<glyph unicode="&#xaa;" horiz-adv-x="935" d="M104 743q0 125 119 191.5t436 85.5q0 219 -217 219q-152 0 -237 -139q0 -4 -16.5 1t-34 21.5t-17.5 38.5q0 57 85 123t231 66q164 0 247.5 -86t83.5 -240v-471q0 -12 -43 -12q-80 0 -79 114q-92 -127 -263 -127q-139 0 -217 57.5t-78 157.5zM229 750q0 -55 49.5 -87 t137.5 -32q100 0 173 58.5t73 131.5v111q-176 -12 -274.5 -40t-128.5 -60.5t-30 -81.5zM358 70v16q0 84 82 84h17q84 0 84 -84v-16q0 -82 -84 -82h-17q-82 0 -82 82z" />
<glyph unicode="&#xab;" horiz-adv-x="1099" d="M123 498q0 14 65.5 87.5t152.5 144.5t136 71h2q18 0 30.5 -13.5t12.5 -29.5v-2q0 -59 -282 -260q283 -197 282 -258v-2q0 -16 -12 -29.5t-31 -13.5h-2q-70 0 -212 138t-142 167zM524 497.5q0 16.5 72 97.5t169 161t150 80h3q20 0 34.5 -14.5t14.5 -33.5v-4 q0 -63 -320 -288q319 -219 320 -285v-6q0 -18 -14.5 -31.5t-34.5 -13.5h-3q-53 0 -150 78.5t-169 160.5t-72 98.5z" />
<glyph unicode="&#xad;" horiz-adv-x="811" d="M131 434v123h549v-123h-549z" />
<glyph unicode="&#xae;" horiz-adv-x="1611" d="M133 659q0 297 192.5 494t481.5 197q295 0 483.5 -192.5t188.5 -491.5q0 -297 -192.5 -494t-481.5 -197q-295 0 -483.5 192.5t-188.5 491.5zM244 664q0 -254 160.5 -422t404.5 -168q248 0 403.5 163.5t155.5 424.5q0 254 -160.5 421.5t-404.5 167.5q-248 0 -403.5 -163.5 t-155.5 -423.5zM549 375v575q0 33 18.5 51.5t46.5 18.5h217q274 0 275 -219q0 -92 -55.5 -147.5t-157.5 -65.5l199 -228q4 -4 -4.5 -16t-26 -23.5t-37.5 -11.5q-49 0 -84 45l-180 226h-88v-213q0 -57 -53 -58h-17q-53 0 -53 66zM670 682h164q72 0 110.5 30.5t38.5 86.5 q0 117 -156 116h-157v-233z" />
<glyph unicode="&#xaf;" horiz-adv-x="1085" d="M250 1223v10q0 57 80 57h426q80 0 80 -57v-10q0 -59 -80 -60h-426q-80 1 -80 60z" />
<glyph unicode="&#xb0;" horiz-adv-x="897" d="M135 1022v18q0 133 92 224.5t225.5 91.5t221.5 -89t88 -225v-18q0 -133 -92 -224t-225.5 -91t-221.5 89t-88 224zM248 1024q0 -86 59.5 -146.5t143.5 -60.5t141 58.5t57 146.5v18q0 86 -59.5 146.5t-143.5 60.5t-141 -58.5t-57 -146.5v-18z" />
<glyph unicode="&#xb1;" horiz-adv-x="1290" d="M209 299v14q0 55 63 56h744q63 0 63 -56v-14q0 -55 -63 -55h-744q-63 0 -63 55zM229 895v12q0 53 64 54h289v292q0 63 57 64h10q57 0 58 -64v-292h288q63 0 64 -54v-12q0 -53 -64 -53h-288v-316q0 -63 -58 -63h-10q-57 0 -57 63v316h-289q-64 0 -64 53z" />
<glyph unicode="&#xb2;" horiz-adv-x="749" d="M111 653v31q0 104 57 161.5t170 110.5q123 61 149 91q29 31 29 67q0 53 -38 85t-105 32q-137 0 -172 -139q-4 0 -24.5 -2.5t-43 14t-22.5 47.5q0 68 74.5 129t197.5 61q125 0 193.5 -59t68.5 -166q0 -47 -16.5 -84t-52 -65.5t-65.5 -45t-83 -40.5q-59 -27 -78.5 -37 t-58.5 -35t-53.5 -51.5t-16.5 -63.5h373q61 0 61 -51v-6q0 -53 -61 -53h-404q-43 0 -61 16t-18 53z" />
<glyph unicode="&#xb3;" horiz-adv-x="749" d="M78 735q0 31 19.5 48.5t36.5 17.5h22q41 -127 196 -127q78 0 127 34.5t49 90.5q0 59 -45 91t-125 32h-49q-61 0 -61 47v8q0 45 59 45h66q63 0 101 28.5t38 75.5q0 49 -45 80t-115 31q-131 0 -176 -113q-2 -4 -20.5 0t-37 20.5t-18.5 45.5q0 55 72 103t182 48 q131 0 202 -53t71 -149q0 -121 -125 -158q143 -47 143 -188q0 -104 -76.5 -164t-214.5 -60q-125 0 -200.5 53.5t-75.5 112.5z" />
<glyph unicode="&#xb4;" horiz-adv-x="1085" d="M397 1128q-4 6 32 50.5t100.5 107t123.5 105.5q49 37 95 36q25 0 43 -15t18 -40q0 -51 -76 -102q-63 -43 -143 -80t-133.5 -52.5t-59.5 -9.5z" />
<glyph unicode="&#xb6;" horiz-adv-x="1327" d="M98 954q0 182 120 277.5t351 95.5h234q33 0 55.5 -22.5t22.5 -55.5v-1194q0 -63 -60 -63h-18q-61 0 -62 63v539h-161q-236 0 -359 91t-123 269zM999 55v1215q0 63 60 63h18q61 0 62 -63v-1215q0 -63 -62 -63h-18q-60 0 -60 63z" />
<glyph unicode="&#xb7;" horiz-adv-x="514" d="M156 485v21q0 92 90 92h20q92 0 92 -92v-21q0 -90 -92 -90h-20q-90 0 -90 90z" />
<glyph unicode="&#xb8;" horiz-adv-x="1085" d="M356 -428l123 256q14 29 20.5 39t22 20.5t39.5 10.5h10q29 0 50.5 -16.5t21.5 -43.5v-8q0 -20 -53 -84l-166 -207q-9 -10 -25 -10q-10 0 -22 4q-24 7 -24 25q0 6 3 14z" />
<glyph unicode="&#xb9;" horiz-adv-x="749" d="M123 1206q0 18 9 36t18.5 25t11.5 5q31 -35 82 -35q43 0 74.5 26.5t35.5 69.5h47q59 0 60 -63v-576h123q61 0 61 -55v-4q0 -51 -61 -51h-394q-59 0 -59 51v4q0 55 59 55h148v467q-39 -43 -102 -43q-45 0 -79 24.5t-34 63.5z" />
<glyph unicode="&#xba;" horiz-adv-x="1042" d="M121 936q0 172 116.5 293t284.5 121q170 0 285 -118t115 -292t-117 -294t-283 -120q-172 0 -286.5 118t-114.5 292zM244 938q0 -127 81 -214t197 -87q119 0 198 86t79 215q0 127 -80 214t-197 87q-119 0 -198.5 -86t-79.5 -215zM428 70v16q0 84 82 84h16q84 0 84 -84v-16 q0 -82 -84 -82h-16q-82 0 -82 82z" />
<glyph unicode="&#xbb;" horiz-adv-x="1099" d="M133 207v4q0 63 320 289q-319 219 -320 284v7q0 18 14.5 31.5t34.5 13.5h2q53 0 150.5 -79t169 -161t71.5 -98.5t-71.5 -97.5t-168.5 -160.5t-151 -79.5h-2q-20 0 -34.5 14.5t-14.5 32.5zM578 238v2q0 59 282 260q-283 197 -282 258v2q0 16 12 29.5t31 13.5h2 q70 0 212 -138.5t142 -166.5q0 -14 -65.5 -88t-152.5 -144.5t-136 -70.5h-2q-18 0 -30.5 13.5t-12.5 29.5z" />
<glyph unicode="&#xbc;" horiz-adv-x="1683" d="M123 1206q0 18 9 36t18.5 25t11.5 5q31 -35 82 -35q43 0 74.5 26.5t35.5 69.5h47q59 0 60 -63v-576h123q61 0 61 -55v-4q0 -51 -61 -51h-394q-59 0 -59 51v4q0 55 59 55h148v467q-39 -43 -102 -43q-45 0 -79 24.5t-34 63.5zM336 -10q0 45 49 108q16 23 87 107l171 206 l170 207l539 676q5 0 8 1q51 0 51 -46q0 -41 -51 -108l-87 -107l-171 -207l-170 -209l-535 -673q-3 -1 -10 -2q-4 0 -8 1q-14 1 -28.5 13.5t-14.5 32.5zM999 254v27q2 27 35 77l254 334q23 35 44.5 46.5t68.5 11.5q51 0 72.5 -19.5t21.5 -66.5v-365h78q59 0 59 -49v-6 q0 -49 -59 -49h-78v-140q0 -61 -55 -61h-8q-53 0 -54 61v140h-299q-37 0 -58.5 16t-21.5 43zM1114 297h266l-2 350z" />
<glyph unicode="&#xbd;" horiz-adv-x="1683" d="M123 1206q0 18 9 36t18.5 25t11.5 5q31 -35 82 -35q43 0 74.5 26.5t35.5 69.5h47q59 0 60 -63v-576h123q61 0 61 -55v-4q0 -51 -61 -51h-394q-59 0 -59 51v4q0 55 59 55h148v467q-39 -43 -102 -43q-45 0 -79 24.5t-34 63.5zM274 -10q0 45 50 108q16 23 87 107l171 206 l170 207l538 676q5 0 9 1q51 0 51 -46q0 -41 -52 -108l-87 -107l-171 -207l-170 -209l-534 -673q-3 -1 -10 -2q-4 0 -9 1q-14 1 -28.5 13.5t-14.5 32.5zM1044 70v30q0 104 57.5 161.5t170.5 111.5q123 61 149 90q29 31 29 67q0 53 -38 85t-105 32q-137 0 -172 -139 q-4 0 -24.5 -2t-43.5 14.5t-23 46.5q0 68 75 129.5t198 61.5q125 0 193.5 -59.5t68.5 -166.5q0 -47 -16.5 -83.5t-52 -65.5t-65.5 -45t-83 -41q-59 -27 -78.5 -37t-58.5 -34.5t-53.5 -51.5t-16.5 -63h373q61 0 61 -52v-6q0 -53 -61 -53h-404q-43 0 -61.5 16.5t-18.5 53.5z " />
<glyph unicode="&#xbe;" horiz-adv-x="1683" d="M78 735q0 31 19.5 48.5t36.5 17.5h22q41 -127 196 -127q78 0 127 34.5t49 90.5q0 59 -45 91t-125 32h-49q-61 0 -61 47v8q0 45 59 45h66q63 0 101 28.5t38 75.5q0 49 -45 80t-115 31q-131 0 -176 -113q-2 -4 -20.5 0t-37 20.5t-18.5 45.5q0 55 72 103t182 48 q131 0 202 -53t71 -149q0 -121 -125 -158q143 -47 143 -188q0 -104 -76.5 -164t-214.5 -60q-125 0 -200.5 53.5t-75.5 112.5zM336 -10q0 45 49 108q16 23 87 107l171 206l170 208l539 675q5 0 8 1q51 0 51 -46q0 -41 -51 -108l-87 -107l-171 -207l-170 -208l-535 -674 q-3 -1 -10 -2q-4 0 -8 1q-14 1 -28.5 13.5t-14.5 32.5zM999 254v27q2 27 35 77l254 334q23 35 44.5 46.5t68.5 11.5q51 0 72.5 -19.5t21.5 -66.5v-365h78q59 0 59 -49v-6q0 -49 -59 -49h-78v-140q0 -61 -55 -61h-8q-53 0 -54 61v140h-299q-37 0 -58.5 16t-21.5 43zM1114 297 h266l-2 350z" />
<glyph unicode="&#xbf;" horiz-adv-x="1009" d="M92 311q0 78 34 140.5t67.5 91t101.5 75.5q70 49 103.5 77t68.5 91.5t35 141.5q0 35 57 35q29 0 44 -10.5t13 -32.5q-2 -80 -22.5 -142.5t-57 -107.5t-66.5 -71t-79 -58q-57 -39 -83.5 -59.5t-52.5 -63.5t-26 -94q0 -104 70 -165t195 -61q145 0 218.5 80t92.5 199 q2 6 26.5 1t49 -26.5t24.5 -56.5q0 -102 -96 -199q-121 -121 -320 -121q-180 0 -288.5 95.5t-108.5 240.5zM455 1217v40q0 41 17 58.5t60 17.5h41q41 0 58.5 -17.5t17.5 -58.5v-40q0 -43 -16.5 -59.5t-59.5 -16.5h-41q-43 0 -60 17.5t-17 58.5z" />
<glyph unicode="&#xc0;" horiz-adv-x="1308" d="M51 0l498 1286q20 51 104 51t105 -51l497 -1286h-155l-166 432h-567l-166 -432h-150zM326 1720q0 25 18 40.5t43 15.5q45 0 94 -37q59 -43 124 -105.5t100.5 -106.5t31.5 -50q-6 -6 -59 9t-133 52t-144 80q-75 51 -75 102zM412 555h477l-238 625z" />
<glyph unicode="&#xc1;" horiz-adv-x="1308" d="M51 0l498 1286q20 51 104 51t105 -51l497 -1286h-155l-166 432h-567l-166 -432h-150zM412 555h477l-238 625zM548 1478q0 9 33 49q36 44 100 106.5t124 105.5q49 37 94 37q25 0 43.5 -15.5t18.5 -40.5q0 -51 -76 -102q-63 -43 -143 -80t-134 -52q-38 -11 -52 -11 q-8 0 -8 3z" />
<glyph unicode="&#xc2;" horiz-adv-x="1308" d="M51 0l498 1286q20 51 104 51t105 -51l497 -1286h-155l-166 432h-567l-166 -432h-150zM385 1520q0 43 65.5 118.5t130 129t73 53.5t71.5 -53.5t129 -129t66 -118.5q0 -47 -43 -47q-33 0 -82.5 50t-143.5 179q-96 -131 -142 -180t-79 -49q-45 0 -45 47zM412 555h477 l-238 625z" />
<glyph unicode="&#xc3;" horiz-adv-x="1308" d="M51 0l498 1286q20 51 104 51t105 -51l497 -1286h-155l-166 432h-567l-166 -432h-150zM371 1538q0 70 41 127t100 57q51 0 135 -44t168 -119q47 150 94 149q51 0 52 -53q0 -70 -41 -127.5t-101 -57.5q-51 0 -135 44.5t-168 119.5q-47 -150 -94 -149q-51 0 -51 53zM412 555 h477l-238 625z" />
<glyph unicode="&#xc4;" horiz-adv-x="1308" d="M51 0l498 1286q20 51 104 51t105 -51l497 -1286h-155l-166 432h-567l-166 -432h-150zM381 1571q0 47 27.5 73.5t70.5 26.5q47 0 75 -26.5t28 -73.5t-27 -74t-72 -27q-47 0 -74.5 27t-27.5 74zM412 555h477l-238 625zM725 1571q0 47 26.5 73.5t71.5 26.5q47 0 75 -26.5 t28 -73.5t-28 -74t-71 -27q-47 0 -74.5 27t-27.5 74z" />
<glyph unicode="&#xc5;" horiz-adv-x="1308" d="M63 33l476 1229q-125 59 -125 211q0 102 68.5 170.5t170.5 68.5q104 0 171 -67.5t67 -171.5q0 -70 -35 -125.5t-92 -83.5l479 -1231q2 -6 -9 -15.5t-30.5 -17.5t-40.5 -8q-59 0 -84 63l-145 377h-569l-144 -377q-25 -63 -80 -63q-18 0 -38.5 8t-31 17.5t-8.5 15.5z M410 555h479l-240 627zM514 1473q0 -61 40 -104.5t97 -43.5q59 0 98 42t39 105.5t-39.5 106.5t-97 43t-97.5 -43t-40 -106z" />
<glyph unicode="&#xc6;" horiz-adv-x="1789" d="M63 33l478 1231q25 61 88 61h1034v-127h-877l177 -455h555v-127h-504l188 -489h473v-127h-493q-49 0 -74 17.5t-41 60.5l-131 354h-571l-144 -377q-25 -64 -76 -64q-19 0 -41 9q-39 17 -41 33zM412 555h479l-240 625z" />
<glyph unicode="&#xc7;" horiz-adv-x="1413" d="M133 659q0 305 185.5 498t478.5 193q276 0 436 -160q57 -57 57 -103q0 -33 -19.5 -54t-40 -27.5t-22.5 -1.5q-61 106 -175.5 165.5t-239.5 59.5q-227 0 -372 -158t-145 -407q0 -248 147.5 -408t373.5 -160q147 0 265 71t163 189q2 6 23.5 0t44 -27.5t22.5 -54.5 q0 -57 -78 -135q-70 -70 -185.5 -117t-260.5 -47q-291 0 -474.5 190.5t-183.5 493.5zM571 -428l123 256q14 29 20.5 39t22 20.5t39.5 10.5h10q29 0 50.5 -16.5t21.5 -43.5v-8q0 -20 -53 -84l-166 -207q-9 -10 -25 -10q-10 0 -22 4q-24 7 -24 25q0 6 3 14z" />
<glyph unicode="&#xc8;" horiz-adv-x="1241" d="M188 0v1247q0 33 22.5 55.5t55.5 22.5h848v-127h-786v-457h641v-123h-641v-491h798v-127h-938zM389 1720q0 25 18.5 40.5t43.5 15.5q45 0 94 -37q59 -43 123.5 -105.5t100.5 -106.5q32 -40 32 -49q0 -3 -8 -3q-14 0 -52 11q-53 15 -133 52t-143 80q-76 51 -76 102z" />
<glyph unicode="&#xc9;" horiz-adv-x="1241" d="M188 0v1247q0 33 22.5 55.5t55.5 22.5h848v-127h-786v-457h641v-123h-641v-491h798v-127h-938zM495 1478q0 9 32 49q36 44 100.5 106.5t124.5 105.5q49 37 94 37q25 0 43 -15.5t18 -40.5q0 -51 -76 -102q-63 -43 -143 -80t-133 -52q-38 -11 -52 -11q-8 0 -8 3z" />
<glyph unicode="&#xca;" horiz-adv-x="1241" d="M188 0v1247q0 33 22.5 55.5t55.5 22.5h848v-127h-786v-457h641v-123h-641v-491h798v-127h-938zM387 1520q0 43 65.5 118.5t130 129t73 53.5t72 -53.5t129 -129t65.5 -118.5q0 -47 -43 -47q-33 0 -82 50t-144 179q-96 -131 -142 -180t-79 -49q-45 0 -45 47z" />
<glyph unicode="&#xcb;" horiz-adv-x="1241" d="M188 0v1247q0 33 22.5 55.5t55.5 22.5h848v-127h-786v-457h641v-123h-641v-491h798v-127h-938zM383 1571q0 47 27.5 73.5t70.5 26.5q47 0 75 -26.5t28 -73.5t-27 -74t-72 -27q-47 0 -74.5 27t-27.5 74zM727 1571q0 47 26.5 73.5t71.5 26.5q47 0 75 -26.5t28 -73.5 t-28 -74t-71 -27q-47 0 -74.5 27t-27.5 74z" />
<glyph unicode="&#xcc;" horiz-adv-x="557" d="M-29 1720q0 25 18.5 40.5t43.5 15.5q45 0 94 -37q59 -43 123.5 -105.5t100.5 -106.5q32 -40 32 -49q-3 -5 -17 -2.5t-42 10.5q-53 15 -133 52t-144 80q-76 51 -76 102zM209 0v1325h139v-1325h-139z" />
<glyph unicode="&#xcd;" horiz-adv-x="557" d="M174 1478q0 9 32 49q36 44 100.5 106.5t123.5 105.5q49 37 94 37q25 0 43.5 -15.5t18.5 -40.5q0 -51 -76 -102q-63 -43 -143 -80t-134 -52q-28 -8 -42 -10.5t-17 2.5zM209 0v1325h139v-1325h-139z" />
<glyph unicode="&#xce;" horiz-adv-x="557" d="M10 1520q0 43 65.5 118.5t130 129t73 53.5t72 -53.5t129 -129t65.5 -118.5q0 -47 -43 -47q-33 0 -82 50t-144 179q-96 -131 -142 -180t-79 -49q-45 0 -45 47zM209 0v1325h139v-1325h-139z" />
<glyph unicode="&#xcf;" horiz-adv-x="557" d="M6 1571q0 47 27.5 73.5t70.5 26.5q47 0 75 -26.5t28 -73.5t-26.5 -74t-71.5 -27q-47 0 -75 27t-28 74zM209 0v1325h139v-1325h-139zM350 1571q0 47 26.5 73.5t72.5 26.5q47 0 74.5 -26.5t27.5 -73.5t-27.5 -74t-70.5 -27q-47 0 -75 27t-28 74z" />
<glyph unicode="&#xd0;" horiz-adv-x="1529" d="M63 657v13q0 55 64 55h133v522q0 33 22.5 55.5t55.5 22.5h324q340 0 537.5 -176t197.5 -483q0 -309 -201 -487.5t-545 -178.5h-313q-33 0 -55.5 22.5t-22.5 55.5v524h-133q-64 0 -64 55zM399 127h271q283 0 434 139.5t151 395.5q0 252 -153.5 394t-429.5 142h-273v-473 h439q63 0 63 -55v-13q0 -55 -63 -55h-439v-475z" />
<glyph unicode="&#xd1;" horiz-adv-x="1443" d="M188 1239q0 41 20.5 67.5t55.5 26.5h35q35 0 57 -17q22 -16 50 -56l718 -1043v1108h131v-1239q0 -43 -19 -68.5t-52 -25.5h-10q-35 0 -51.5 11t-39.5 42l-764 1104v-1149h-131v1239zM428 1538q0 70 41 127t100 57q51 0 135 -44t168 -119q47 150 95 149q51 0 51 -53 q0 -70 -41 -127.5t-100 -57.5q-51 0 -135.5 44.5t-168.5 119.5q-47 -150 -94 -149q-51 0 -51 53z" />
<glyph unicode="&#xd2;" horiz-adv-x="1585" d="M133 659.5q0 303.5 185.5 497t476 193.5t474 -190.5t183.5 -495.5q0 -303 -184.5 -496t-477 -193t-475 190.5t-182.5 494zM276 663.5q0 -247.5 146.5 -407.5t372 -160t370 158t144.5 405.5t-146.5 408.5t-372 161t-370 -159t-144.5 -406.5zM485 1720q0 25 18.5 40.5 t43.5 15.5q45 0 94 -37q59 -43 123.5 -105.5t100.5 -106.5q32 -40 32 -49q0 -3 -7 -3q-14 0 -52 11q-53 15 -133 52t-144 80q-76 51 -76 102z" />
<glyph unicode="&#xd3;" horiz-adv-x="1585" d="M133 659.5q0 303.5 185.5 497t476 193.5t474 -190.5t183.5 -495.5q0 -303 -184.5 -496t-477 -193t-475 190.5t-182.5 494zM276 663.5q0 -247.5 146.5 -407.5t372 -160t370 158t144.5 405.5t-146.5 408.5t-372 161t-370 -159t-144.5 -406.5zM688 1478q0 9 32 49 q36 44 100.5 106.5t123.5 105.5q49 37 94 37q25 0 43.5 -15.5t18.5 -40.5q0 -51 -76 -102q-63 -43 -143 -80t-133 -52q-38 -11 -53 -11q-7 0 -7 3z" />
<glyph unicode="&#xd4;" horiz-adv-x="1585" d="M133 659.5q0 303.5 185.5 497t476 193.5t474 -190.5t183.5 -495.5q0 -303 -184.5 -496t-477 -193t-475 190.5t-182.5 494zM276 663.5q0 -247.5 146.5 -407.5t372 -160t370 158t144.5 405.5t-146.5 408.5t-372 161t-370 -159t-144.5 -406.5zM524 1520q0 43 65.5 118.5 t130 129t73 53.5t72 -53.5t129 -129t65.5 -118.5q0 -47 -43 -47q-33 0 -82 50t-143 179q-96 -131 -142.5 -180t-79.5 -49q-45 0 -45 47z" />
<glyph unicode="&#xd5;" horiz-adv-x="1585" d="M133 659.5q0 303.5 185.5 497t476 193.5t474 -190.5t183.5 -495.5q0 -303 -184.5 -496t-477 -193t-475 190.5t-182.5 494zM276 663.5q0 -247.5 146.5 -407.5t372 -160t370 158t144.5 405.5t-146.5 408.5t-372 161t-370 -159t-144.5 -406.5zM500 1538q0 70 41 127t100 57 q51 0 135 -44t168 -119q47 150 94 149q51 0 52 -53q0 -70 -41 -127.5t-101 -57.5q-51 0 -135 44.5t-168 119.5q-47 -150 -94 -149q-51 0 -51 53z" />
<glyph unicode="&#xd6;" horiz-adv-x="1585" d="M133 659.5q0 303.5 185.5 497t476 193.5t474 -190.5t183.5 -495.5q0 -303 -184.5 -496t-477 -193t-475 190.5t-182.5 494zM276 663.5q0 -247.5 146.5 -407.5t372 -160t370 158t144.5 405.5t-146.5 408.5t-372 161t-370 -159t-144.5 -406.5zM520 1571q0 47 27.5 73.5 t70.5 26.5q47 0 75 -26.5t28 -73.5t-26.5 -74t-71.5 -27q-47 0 -75 27t-28 74zM864 1571q0 47 26.5 73.5t72.5 26.5q47 0 74.5 -26.5t27.5 -73.5t-27.5 -74t-70.5 -27q-47 0 -75 27t-28 74z" />
<glyph unicode="&#xd7;" horiz-adv-x="1165" d="M242 193q-20 18 -20 37q0 22 24 49l258 266l-258 262q-24 26 -24 48q0 20 20 38l8 8q18 20 38 20q24 0 50 -28l250 -262l250 262q27 28 50 28q20 0 38 -20l8 -8q20 -18 19 -38q0 -22 -23 -48l-258 -262l258 -266q24 -26 23 -49q0 -20 -19 -37l-8 -9q-18 -20 -38 -19 q-24 0 -50 28l-250 264l-250 -264q-27 -28 -50 -28q-20 0 -38 19z" />
<glyph unicode="&#xd8;" horiz-adv-x="1585" d="M125 -12q0 45 49 100l109 121q-150 184 -150 450q0 295 185.5 493t476.5 198q236 0 405 -136l166 185q1 1 4 1q5 0 16 -5q16 -8 32 -27.5t16 -42.5q0 -45 -50 -100l-90 -101q158 -190 158 -460q0 -295 -185.5 -492t-475.5 -197q-246 0 -416 142l-182 -203q-1 -1 -5 -1 q-5 0 -16 5q-16 8 -31.5 27.5t-15.5 42.5zM272 664q0 -209 109 -359l729 811q-133 106 -319 107q-233 0 -376 -157.5t-143 -401.5zM465 215q135 -113 330 -113q233 0 375.5 157t142.5 400q0 217 -117 369z" />
<glyph unicode="&#xd9;" horiz-adv-x="1370" d="M168 522v748q0 63 59 63h19q61 0 61 -63v-738q0 -432 379 -432t379 435v735q0 63 57 63h25q55 0 55 -63v-742q0 -268 -134 -410.5t-386 -142.5q-250 0 -382 140.5t-132 406.5zM395 1700q0 25 18.5 40t43.5 15q45 0 94 -37q59 -43 123.5 -105.5t100.5 -106.5 q32 -40 32 -48q0 -3 -7 -4q-14 0 -52 11q-53 15 -133 52t-144 80q-76 52 -76 103z" />
<glyph unicode="&#xda;" horiz-adv-x="1370" d="M168 522v748q0 63 59 63h19q61 0 61 -63v-738q0 -432 379 -432t379 435v735q0 63 57 63h25q55 0 55 -63v-742q0 -268 -134 -410.5t-386 -142.5q-250 0 -382 140.5t-132 406.5zM577 1458q0 9 32 48q36 44 100.5 106.5t124.5 105.5q49 37 94 37q25 0 43 -15.5t18 -39.5 q0 -51 -76 -103q-63 -43 -143 -79.5t-133 -52.5q-38 -11 -52 -11q-8 1 -8 4z" />
<glyph unicode="&#xdb;" horiz-adv-x="1370" d="M168 522v748q0 63 59 63h19q61 0 61 -63v-738q0 -432 379 -432t379 435v735q0 63 57 63h25q55 0 55 -63v-742q0 -268 -134 -410.5t-386 -142.5q-250 0 -382 140.5t-132 406.5zM414 1520q0 43 65.5 118.5t130 129t72.5 53.5t71.5 -53.5t129 -129t65.5 -118.5 q0 -47 -43 -47q-33 0 -82 50t-143 179q-96 -131 -142 -180t-79 -49q-45 0 -45 47z" />
<glyph unicode="&#xdc;" horiz-adv-x="1370" d="M168 522v748q0 63 59 63h19q61 0 61 -63v-738q0 -432 379 -432t379 435v735q0 63 57 63h25q55 0 55 -63v-742q0 -268 -134 -410.5t-386 -142.5q-250 0 -382 140.5t-132 406.5zM410 1571q0 47 27.5 73.5t70.5 26.5q47 0 74.5 -26.5t27.5 -73.5t-26.5 -74t-71.5 -27 q-47 0 -74.5 27t-27.5 74zM754 1571q0 47 26.5 73.5t71.5 26.5q47 0 74.5 -26.5t27.5 -73.5t-27.5 -74t-70.5 -27q-47 0 -74.5 27t-27.5 74z" />
<glyph unicode="&#xdd;" horiz-adv-x="1185" d="M51 1325h154l389 -647l387 606q29 47 68 48h3q37 0 60 -21q25 -23 21 -37l-471 -723v-551h-140v551zM467 1458q0 9 32 48q36 44 100.5 106.5t123.5 105.5q49 37 94 37q25 0 43.5 -15.5t18.5 -39.5q0 -51 -76 -103q-63 -43 -143 -79.5t-134 -52.5q-38 -11 -52 -11 q-7 1 -7 4z" />
<glyph unicode="&#xde;" horiz-adv-x="1204" d="M188 55v1215q0 63 60 63h18q61 0 62 -63v-197h278q231 0 359.5 -104.5t128.5 -296.5q0 -199 -128 -303.5t-376 -104.5h-262v-209q0 -63 -62 -63h-18q-60 0 -60 63zM328 387h274q348 0 348 280.5t-342 280.5h-280v-561z" />
<glyph unicode="&#xdf;" horiz-adv-x="1138" d="M168 0v958q0 219 111.5 336t306.5 117q172 0 278.5 -89t106.5 -235q0 -285 -332 -309q221 -53 313 -162.5t92 -273.5q0 -152 -109.5 -259.5t-264.5 -107.5q-166 0 -240 74q-33 33 -33 66q0 23 12.5 42t26 28.5t15.5 7.5q90 -100 223 -101q96 0 166.5 74t70.5 176 q0 117 -67.5 201t-245.5 127q-63 16 -89 41.5t-26 68.5q0 61 35 84h13q152 0 229 48q80 50 80 165q0 98 -69 155.5t-187 57.5q-283 0 -283 -334v-956h-133z" />
<glyph unicode="&#xe0;" horiz-adv-x="1095" d="M106 250q0 168 167 245.5t511 86.5h21v34q0 125 -70.5 193t-204.5 68q-215 0 -311 -181q0 -2 -19.5 3.5t-38 23.5t-18.5 51q0 45 54 98q127 127 344 127q186 0 290.5 -101t104.5 -277v-621h-129v150q-123 -172 -365 -173q-158 0 -247 74t-89 199zM242 250q0 -74 57 -118 t156 -44q150 0 250 88t100 211v90h-27q-279 -10 -407.5 -62t-128.5 -165zM281 1372q0 25 18 40t43 15q45 0 94 -36q59 -43 124 -105.5t100 -106.5q32 -40 33 -49q0 -3 -8 -3q-14 0 -52 11q-53 15 -133 52t-144 80q-75 51 -75 102z" />
<glyph unicode="&#xe1;" horiz-adv-x="1095" d="M106 250q0 168 167 245.5t511 86.5h21v34q0 125 -70.5 193t-204.5 68q-215 0 -311 -181q0 -2 -19.5 3.5t-38 23.5t-18.5 51q0 45 54 98q127 127 344 127q186 0 290.5 -101t104.5 -277v-621h-129v150q-123 -172 -365 -173q-158 0 -247 74t-89 199zM242 250q0 -74 57 -118 t156 -44q150 0 250 88t100 211v90h-27q-279 -10 -407.5 -62t-128.5 -165zM401 1130q0 9 32 49q36 44 100.5 106.5t123.5 105.5q49 37 95 36q25 0 43 -15t18 -40q0 -51 -76 -102q-63 -43 -143 -80t-133 -52q-38 -11 -52 -11q-8 0 -8 3z" />
<glyph unicode="&#xe2;" horiz-adv-x="1095" d="M106 250q0 168 167 245.5t511 86.5h21v34q0 125 -70.5 193t-204.5 68q-215 0 -311 -181q0 -2 -19.5 3.5t-38 23.5t-18.5 51q0 45 54 98q127 127 344 127q186 0 290.5 -101t104.5 -277v-621h-129v150q-123 -172 -365 -173q-158 0 -247 74t-89 199zM242 250q0 -74 57 -118 t156 -44q150 0 250 88t100 211v90h-27q-279 -10 -407.5 -62t-128.5 -165zM279 1171q0 43 65.5 119t130 129.5t72.5 53.5t71.5 -53.5t129 -129.5t65.5 -119q0 -47 -43 -47q-33 0 -82 50.5t-143 179.5q-96 -131 -142.5 -180.5t-78.5 -49.5q-45 0 -45 47z" />
<glyph unicode="&#xe3;" horiz-adv-x="1095" d="M106 250q0 168 167 245.5t511 86.5h21v34q0 125 -70.5 193t-204.5 68q-215 0 -311 -181q0 -2 -19.5 3.5t-38 23.5t-18.5 51q0 45 54 98q127 127 344 127q186 0 290.5 -101t104.5 -277v-621h-129v150q-123 -172 -365 -173q-158 0 -247 74t-89 199zM242 250q0 -74 57 -118 t156 -44q150 0 250 88t100 211v90h-27q-279 -10 -407.5 -62t-128.5 -165zM254 1190q0 70 41 127t100 57q51 0 135 -44t168 -120q47 150 95 150q51 0 51 -53q0 -70 -41 -127.5t-101 -57.5q-51 0 -135 44t-168 120q-47 -150 -94 -149q-51 0 -51 53z" />
<glyph unicode="&#xe4;" horiz-adv-x="1095" d="M106 250q0 168 167 245.5t511 86.5h21v34q0 125 -70.5 193t-204.5 68q-215 0 -311 -181q0 -2 -19.5 3.5t-38 23.5t-18.5 51q0 45 54 98q127 127 344 127q186 0 290.5 -101t104.5 -277v-621h-129v150q-123 -172 -365 -173q-158 0 -247 74t-89 199zM242 250q0 -74 57 -118 t156 -44q150 0 250 88t100 211v90h-27q-279 -10 -407.5 -62t-128.5 -165zM274 1223q0 47 28 73.5t71 26.5q47 0 74.5 -26.5t27.5 -73.5t-26.5 -74t-71.5 -27q-47 0 -75 27t-28 74zM618 1223q0 47 27 73.5t72 26.5q47 0 74.5 -26.5t27.5 -73.5t-27.5 -74t-70.5 -27 q-47 0 -75 27t-28 74z" />
<glyph unicode="&#xe5;" horiz-adv-x="1095" d="M106 250q0 168 167 245.5t511 86.5h21v34q0 125 -70.5 193t-204.5 68q-215 0 -311 -181q0 -2 -19.5 3.5t-38 23.5t-18.5 51q0 45 54 98q127 127 344 127q186 0 290.5 -101t104.5 -277v-621h-129v150q-123 -172 -365 -173q-158 0 -247 74t-89 199zM242 250q0 -74 57 -118 t156 -44q150 0 250 88t100 211v90h-27q-279 -10 -407.5 -62t-128.5 -165zM307 1362q0 102 68.5 171t171.5 69q104 0 170.5 -68t66.5 -172q0 -102 -68.5 -171t-170.5 -69q-104 0 -171 68t-67 172zM408 1362q0 -61 39.5 -104.5t97.5 -43.5q59 0 98 42t39 105.5t-40 106.5 t-97.5 43t-97 -43t-39.5 -106z" />
<glyph unicode="&#xe6;" horiz-adv-x="1832" d="M106 250q0 168 167 245.5t511 86.5h21v34q0 125 -70.5 193t-204.5 68q-215 0 -311 -181q0 -2 -19.5 3.5t-38 23.5t-18.5 51q0 66 112 145.5t286 79.5q262 0 348 -217q129 217 389 217q207 0 331 -134t124 -357v-12q0 -27 -12.5 -36t-43.5 -9h-757q8 -158 111.5 -257.5 t258.5 -99.5q225 0 334 174q2 4 21.5 -2t38 -25.5t18.5 -47.5q0 -63 -117 -140.5t-295 -77.5q-154 0 -263 65.5t-165 184.5q-53 -113 -165.5 -180.5t-254.5 -67.5q-158 0 -247 74t-89 199zM242 250q0 -74 57 -118t156 -44q152 0 251 84t99 215v90l-57 -2q-258 -10 -382 -61 t-124 -164zM924 565h667q-10 145 -94 231.5t-219 86.5q-137 0 -234 -88.5t-120 -229.5z" />
<glyph unicode="&#xe7;" horiz-adv-x="1122" d="M102 489.5q0 221.5 143.5 365.5t358.5 144q217 0 348 -131q72 -72 72 -139q0 -27 -21.5 -45t-42 -19t-24.5 1q-90 215 -332 215q-158 0 -262 -111t-104 -281t104 -282.5t262 -112.5q242 0 332 215q4 2 24.5 1t42 -19.5t21.5 -44.5q0 -68 -76 -144q-127 -127 -344 -127 q-215 0 -358.5 146.5t-143.5 368zM408 -428l122 256q14 29 20.5 39t22 20.5t39.5 10.5h11q29 0 50 -16.5t21 -43.5v-8q0 -20 -53 -84l-166 -207q-9 -10 -24 -10q-10 0 -23 4q-24 7 -24 25q1 6 4 14z" />
<glyph unicode="&#xe8;" horiz-adv-x="1148" d="M102 483q0 223 139.5 369.5t352.5 146.5q207 0 331 -134t124 -357v-12q0 -27 -12.5 -36t-43.5 -9h-757q10 -162 112.5 -259.5t257.5 -97.5q225 0 334 174q2 4 21.5 -2t38 -25.5t18.5 -47.5q0 -39 -53 -93q-51 -51 -146.5 -88t-212.5 -37q-223 0 -363.5 141.5 t-140.5 366.5zM242 565h665q-10 145 -94 231.5t-219 86.5t-232 -88.5t-120 -229.5zM297 1372q0 25 18.5 40t42.5 15q45 0 95 -36q59 -43 123.5 -105.5t100.5 -106.5q32 -40 32 -49q0 -3 -8 -3q-14 0 -52 11q-53 15 -133 52t-143 80q-76 51 -76 102z" />
<glyph unicode="&#xe9;" horiz-adv-x="1148" d="M102 483q0 223 139.5 369.5t352.5 146.5q207 0 331 -134t124 -357v-12q0 -27 -12.5 -36t-43.5 -9h-757q10 -162 112.5 -259.5t257.5 -97.5q225 0 334 174q2 4 21.5 -2t38 -25.5t18.5 -47.5q0 -39 -53 -93q-51 -51 -146.5 -88t-212.5 -37q-223 0 -363.5 141.5 t-140.5 366.5zM242 565h665q-10 145 -94 231.5t-219 86.5t-232 -88.5t-120 -229.5zM448 1130q0 9 32 49q36 44 100.5 106.5t124.5 105.5q49 37 94 36q25 0 43 -15t18 -40q0 -51 -76 -102q-63 -43 -143 -80t-133 -52q-38 -11 -52 -11q-8 0 -8 3z" />
<glyph unicode="&#xea;" horiz-adv-x="1148" d="M102 483q0 223 139.5 369.5t352.5 146.5q207 0 331 -134t124 -357v-12q0 -27 -12.5 -36t-43.5 -9h-757q10 -162 112.5 -259.5t257.5 -97.5q225 0 334 174q2 4 21.5 -2t38 -25.5t18.5 -47.5q0 -39 -53 -93q-51 -51 -146.5 -88t-212.5 -37q-223 0 -363.5 141.5 t-140.5 366.5zM242 565h665q-10 145 -94 231.5t-219 86.5t-232 -88.5t-120 -229.5zM326 1171q0 43 65.5 119t130 129.5t72.5 53.5t71.5 -53.5t129 -129.5t65.5 -119q0 -47 -43 -47q-33 0 -82 50.5t-143 179.5q-96 -131 -142.5 -180.5t-78.5 -49.5q-45 0 -45 47z" />
<glyph unicode="&#xeb;" horiz-adv-x="1148" d="M102 483q0 223 139.5 369.5t352.5 146.5q207 0 331 -134t124 -357v-12q0 -27 -12.5 -36t-43.5 -9h-757q10 -162 112.5 -259.5t257.5 -97.5q225 0 334 174q2 4 21.5 -2t38 -25.5t18.5 -47.5q0 -39 -53 -93q-51 -51 -146.5 -88t-212.5 -37q-223 0 -363.5 141.5 t-140.5 366.5zM242 565h665q-10 145 -94 231.5t-219 86.5t-232 -88.5t-120 -229.5zM322 1223q0 47 27.5 73.5t70.5 26.5q47 0 74.5 -26.5t27.5 -73.5t-26.5 -74t-71.5 -27q-47 0 -74.5 27t-27.5 74zM666 1223q0 47 26.5 73.5t71.5 26.5q47 0 74.5 -26.5t27.5 -73.5 t-27.5 -74t-70.5 -27q-47 0 -74.5 27t-27.5 74z" />
<glyph unicode="&#xec;" d="M-53 1372q0 25 18.5 40t42.5 15q45 0 94 -36q59 -43 124 -105.5t101 -106.5q32 -40 32 -49q-3 -5 -17.5 -2.5t-42.5 10.5q-53 15 -133 52t-143 80q-76 51 -76 102zM178 0v920q0 63 60 63h14q59 0 59 -63v-920h-133z" />
<glyph unicode="&#xed;" d="M149 1130q0 9 32 49q36 44 100.5 106.5t124.5 105.5q49 37 94 36q25 0 43 -15t18 -40q0 -51 -76 -102q-63 -43 -143 -80t-133 -52q-28 -8 -42.5 -10.5t-17.5 2.5zM178 0v920q0 63 60 63h14q59 0 59 -63v-920h-133z" />
<glyph unicode="&#xee;" d="M-14 1171q0 43 65.5 119t130 129.5t72.5 53.5t71.5 -53.5t129 -129.5t65.5 -119q0 -47 -43 -47q-33 0 -82 50.5t-143 179.5q-96 -131 -142.5 -180.5t-78.5 -49.5q-45 0 -45 47zM178 0v920q0 63 60 63h14q59 0 59 -63v-920h-133z" />
<glyph unicode="&#xef;" d="M-18 1223q0 47 27.5 73.5t70.5 26.5q47 0 74.5 -26.5t27.5 -73.5t-26.5 -74t-71.5 -27q-47 0 -74.5 27t-27.5 74zM178 0v920q0 63 60 63h14q59 0 59 -63v-920h-133zM326 1223q0 47 26.5 73.5t71.5 26.5q47 0 74.5 -26.5t27.5 -73.5t-27.5 -74t-70.5 -27q-47 0 -74.5 27 t-27.5 74z" />
<glyph unicode="&#xf0;" horiz-adv-x="1218" d="M119 436q0 203 134 327t349 124q111 0 208 -48t148 -116q-41 272 -251 430l-256 -147q-22 -13 -40 -14q-25 0 -40 28l-4 8q-10 15 -10 29q0 27 36 49l207 113q-168 82 -358 81q-2 4 -4 29t26.5 54.5t77.5 29.5q197 0 391 -127l217 125q24 13 42 14q26 0 40 -28l4 -6 q9 -15 9 -28q0 -28 -37 -50l-181 -99q268 -236 269 -653q0 -274 -137.5 -430t-364.5 -156q-215 0 -345 124t-130 337zM254 438q0 -166 92 -256t250 -90q170 0 266 122t96 314v58q-39 72 -138 128t-208 56q-174 0 -266 -86t-92 -246z" />
<glyph unicode="&#xf1;" horiz-adv-x="1177" d="M168 0v969q0 2 6 5t16.5 6t22.5 3q86 0 86 -129v-31q117 176 332 176q188 0 287.5 -115.5t99.5 -314.5v-569h-133v561q0 147 -70 230t-192 83q-111 0 -194 -55t-128 -151v-668h-133zM283 1190q0 70 41 127t100 57q51 0 135 -44t168 -120q47 150 94 150q51 0 51 -53 q0 -70 -40.5 -127.5t-100.5 -57.5q-51 0 -135 44t-168 120q-47 -150 -94 -149q-51 0 -51 53z" />
<glyph unicode="&#xf2;" horiz-adv-x="1212" d="M102 489q0 221 142.5 365.5t361.5 144.5q217 0 359.5 -145t142.5 -369q0 -221 -142.5 -365.5t-359.5 -144.5q-219 0 -361.5 145.5t-142.5 368.5zM238 489q0 -170 105.5 -283.5t263 -113.5t262 111.5t104.5 281.5t-104.5 284t-262 114t-263 -112t-105.5 -282zM305 1372 q0 25 18.5 40t43.5 15q45 0 94 -36q59 -43 123.5 -105.5t100.5 -106.5q32 -40 32 -49q0 -3 -8 -3q-14 0 -52 11q-53 15 -133 52t-143 80q-76 51 -76 102z" />
<glyph unicode="&#xf3;" horiz-adv-x="1212" d="M102 489q0 221 142.5 365.5t361.5 144.5q217 0 359.5 -145t142.5 -369q0 -221 -142.5 -365.5t-359.5 -144.5q-219 0 -361.5 145.5t-142.5 368.5zM238 489q0 -170 105.5 -283.5t263 -113.5t262 111.5t104.5 281.5t-104.5 284t-262 114t-263 -112t-105.5 -282zM507 1130 q0 9 33 49q36 44 100.5 106.5t123.5 105.5q49 37 94 36q25 0 43.5 -15t18.5 -40q0 -51 -76 -102q-63 -43 -143 -80t-134 -52q-38 -11 -52 -11q-8 0 -8 3z" />
<glyph unicode="&#xf4;" horiz-adv-x="1212" d="M102 489q0 221 142.5 365.5t361.5 144.5q217 0 359.5 -145t142.5 -369q0 -221 -142.5 -365.5t-359.5 -144.5q-219 0 -361.5 145.5t-142.5 368.5zM238 489q0 -170 105.5 -283.5t263 -113.5t262 111.5t104.5 281.5t-104.5 284t-262 114t-263 -112t-105.5 -282zM344 1171 q0 43 65.5 119t130 129.5t73 53.5t72 -53.5t129 -129.5t65.5 -119q0 -47 -43 -47q-33 0 -82 50.5t-144 179.5q-96 -131 -142 -180.5t-79 -49.5q-45 0 -45 47z" />
<glyph unicode="&#xf5;" horiz-adv-x="1212" d="M102 489q0 221 142.5 365.5t361.5 144.5q217 0 359.5 -145t142.5 -369q0 -221 -142.5 -365.5t-359.5 -144.5q-219 0 -361.5 145.5t-142.5 368.5zM238 489q0 -170 105.5 -283.5t263 -113.5t262 111.5t104.5 281.5t-104.5 284t-262 114t-263 -112t-105.5 -282zM319 1190 q0 70 41 127t101 57q51 0 135 -44t168 -120q47 150 94 150q51 0 51 -53q0 -70 -41 -127.5t-100 -57.5q-51 0 -135 44t-168 120q-47 -150 -94 -149q-52 0 -52 53z" />
<glyph unicode="&#xf6;" horiz-adv-x="1212" d="M102 489q0 221 142.5 365.5t361.5 144.5q217 0 359.5 -145t142.5 -369q0 -221 -142.5 -365.5t-359.5 -144.5q-219 0 -361.5 145.5t-142.5 368.5zM238 489q0 -170 105.5 -283.5t263 -113.5t262 111.5t104.5 281.5t-104.5 284t-262 114t-263 -112t-105.5 -282zM340 1223 q0 47 27.5 73.5t70.5 26.5q47 0 75 -26.5t28 -73.5t-27 -74t-72 -27q-47 0 -74.5 27t-27.5 74zM684 1223q0 47 26.5 73.5t71.5 26.5q47 0 75 -26.5t28 -73.5t-28 -74t-71 -27q-47 0 -74.5 27t-27.5 74z" />
<glyph unicode="&#xf7;" horiz-adv-x="1290" d="M209 543v14q0 55 63 55h744q63 0 63 -55v-14q0 -55 -63 -56h-744q-63 1 -63 56zM543 211v20q0 92 90 93h20q92 0 92 -93v-20q0 -90 -92 -90h-20q-90 0 -90 90zM543 866v21q0 92 90 92h20q92 0 92 -92v-21q0 -90 -92 -90h-20q-90 0 -90 90z" />
<glyph unicode="&#xf8;" horiz-adv-x="1212" d="M115 -12q0 39 45 90l71 78q-113 143 -112 329q0 215 144.5 364.5t350.5 149.5q166 0 297 -98l131 146q1 1 5 1q5 0 14 -5q14 -7 28.5 -23t14.5 -35q0 -39 -45 -90l-66 -72q115 -143 115 -334q0 -215 -144.5 -364.5t-351.5 -149.5q-168 0 -301 101l-135 -150q-1 -1 -4 -1 q-5 0 -14 4q-14 7 -28.5 24t-14.5 35zM254 487q0 -133 72 -237l501 553q-96 76 -215 76q-156 0 -257 -112t-101 -280zM395 174q96 -78 219 -78q156 0 257.5 111.5t101.5 279.5q0 137 -74 240z" />
<glyph unicode="&#xf9;" horiz-adv-x="1177" d="M160 406v569h133v-561q0 -147 69.5 -230.5t192.5 -83.5q111 0 193.5 55.5t128.5 151.5v668h133v-969q0 -2 -6.5 -5t-16.5 -6t-22 -3q-86 0 -86 129v31q-117 -176 -332 -177q-188 0 -287.5 116t-99.5 315zM281 1372q0 25 18 40t43 15q45 0 94 -36q59 -43 124 -105.5 t100 -106.5q32 -40 33 -49q0 -3 -8 -3q-14 0 -52 11q-53 15 -133 52t-144 80q-75 51 -75 102z" />
<glyph unicode="&#xfa;" horiz-adv-x="1177" d="M160 406v569h133v-561q0 -147 69.5 -230.5t192.5 -83.5q111 0 193.5 55.5t128.5 151.5v668h133v-969q0 -2 -6.5 -5t-16.5 -6t-22 -3q-86 0 -86 129v31q-117 -176 -332 -177q-188 0 -287.5 116t-99.5 315zM503 1130q0 9 33 49q36 44 100 106.5t124 105.5q49 37 94 36 q25 0 43 -15t18 -40q0 -51 -75 -102q-63 -43 -143.5 -80t-133.5 -52q-38 -11 -52 -11q-8 0 -8 3z" />
<glyph unicode="&#xfb;" horiz-adv-x="1177" d="M160 406v569h133v-561q0 -147 69.5 -230.5t192.5 -83.5q111 0 193.5 55.5t128.5 151.5v668h133v-969q0 -2 -6.5 -5t-16.5 -6t-22 -3q-86 0 -86 129v31q-117 -176 -332 -177q-188 0 -287.5 116t-99.5 315zM324 1171q0 43 65.5 119t130 129.5t72.5 53.5t71.5 -53.5 t129 -129.5t65.5 -119q0 -47 -43 -47q-33 0 -82 50.5t-143 179.5q-96 -131 -142.5 -180.5t-78.5 -49.5q-45 0 -45 47z" />
<glyph unicode="&#xfc;" horiz-adv-x="1177" d="M160 406v569h133v-561q0 -147 69.5 -230.5t192.5 -83.5q111 0 193.5 55.5t128.5 151.5v668h133v-969q0 -2 -6.5 -5t-16.5 -6t-22 -3q-86 0 -86 129v31q-117 -176 -332 -177q-188 0 -287.5 116t-99.5 315zM322 1223q0 47 27.5 73.5t70.5 26.5q47 0 74.5 -26.5t27.5 -73.5 t-26.5 -74t-71.5 -27q-47 0 -74.5 27t-27.5 74zM666 1223q0 47 26.5 73.5t71.5 26.5q47 0 74.5 -26.5t27.5 -73.5t-27.5 -74t-70.5 -27q-47 0 -74.5 27t-27.5 74z" />
<glyph unicode="&#xfd;" horiz-adv-x="1028" d="M49 975h139l349 -842l303 842h141l-481 -1290q-33 -88 -94 -88q-16 0 -34 7t-28 15t-8 12l164 418q-35 0 -51.5 10.5t-30.5 40.5zM409 1110q0 9 32 48q36 44 100.5 106.5t124.5 105.5q49 37 94 37q25 0 43 -15.5t18 -39.5q0 -51 -76 -103q-63 -43 -143 -79.5t-133 -52.5 q-38 -11 -52 -11q-8 1 -8 4z" />
<glyph unicode="&#xfe;" horiz-adv-x="1247" d="M168 -340v1720q0 2 6 5.5t16.5 6.5t22.5 3q88 0 88 -129v-451q139 184 363 184q197 0 328.5 -141t131.5 -369q0 -229 -132 -371.5t-337 -142.5q-123 0 -216 54.5t-138 132.5v-502q0 -63 -59 -63h-15q-59 0 -59 63zM301 387q14 -127 113.5 -211t230.5 -84q156 0 250 109.5 t94 285.5q0 172 -96 284t-244 112q-248 0 -348 -228v-268z" />
<glyph unicode="&#xff;" horiz-adv-x="1028" d="M49 975h139l349 -842l303 842h141l-481 -1290q-33 -88 -94 -88q-16 0 -34 7t-28 15t-8 12l164 418q-35 0 -51.5 10.5t-30.5 40.5zM250 1223q0 47 27.5 73.5t70.5 26.5q47 0 75 -26.5t28 -73.5t-27 -74t-72 -27q-47 0 -74.5 27t-27.5 74zM594 1223q0 47 26.5 73.5 t71.5 26.5q47 0 75 -26.5t28 -73.5t-28 -74t-71 -27q-47 0 -74.5 27t-27.5 74z" />
<glyph unicode="&#x152;" horiz-adv-x="2172" d="M133 659.5q0 303.5 185.5 497t476.5 193.5q100 0 192 -25h1059v-127h-819q197 -170 221 -457h453v-123h-451q-16 -313 -225 -491h833v-127h-1079q-102 -25 -188 -25q-293 0 -475.5 190.5t-182.5 494zM276 663.5q0 -247.5 146.5 -407.5t372 -160t370 158t144.5 405.5 t-146.5 408.5t-372 161t-370 -159t-144.5 -406.5z" />
<glyph unicode="&#x153;" horiz-adv-x="2017" d="M102 489q0 221 142.5 365.5t361.5 144.5q145 0 258 -69.5t174 -190.5q59 121 170 190.5t254 69.5q207 0 331 -134t124 -357v-12q0 -27 -12.5 -36t-42.5 -9h-758q8 -158 111.5 -257.5t259.5 -99.5q225 0 333 174q2 4 21.5 -2t38 -25.5t18.5 -47.5q0 -63 -116.5 -140.5 t-294.5 -77.5q-154 0 -268.5 67t-174.5 187q-61 -119 -171.5 -186.5t-254.5 -67.5q-219 0 -361.5 145.5t-142.5 368.5zM238 489q0 -170 105.5 -283.5t263 -113.5t262 111.5t104.5 281.5t-104.5 284t-262 114t-263 -112t-105.5 -282zM1108 565h668q-10 145 -94.5 231.5 t-219.5 86.5q-137 0 -234 -88.5t-120 -229.5z" />
<glyph unicode="&#x178;" horiz-adv-x="1185" d="M51 1325h154l389 -647l387 606q29 47 68 48h3q37 0 60 -21q25 -23 21 -37l-471 -723v-551h-140v551zM319 1571q0 47 28 73.5t71 26.5q47 0 74.5 -26.5t27.5 -73.5t-26.5 -74t-71.5 -27q-47 0 -75 27t-28 74zM664 1571q0 47 26.5 73.5t71.5 26.5q47 0 74.5 -26.5 t27.5 -73.5t-27.5 -74t-70.5 -27q-47 0 -74.5 27t-27.5 74z" />
<glyph unicode="&#x2c6;" horiz-adv-x="1085" d="M274 1171q0 43 66 119t130.5 129.5t72.5 53.5t71.5 -53.5t129 -129.5t65.5 -119q0 -47 -43 -47q-33 0 -82 50.5t-143 179.5q-96 -131 -142.5 -180.5t-79.5 -49.5q-45 0 -45 47z" />
<glyph unicode="&#x2dc;" horiz-adv-x="1085" d="M248 1190q0 70 41 127t100 57q51 0 135 -44t168 -120q47 150 94 150q51 0 52 -53q0 -70 -41 -127.5t-101 -57.5q-51 0 -135 44t-168 120q-47 -150 -94 -149q-51 0 -51 53z" />
<glyph unicode="&#x2013;" horiz-adv-x="1136" d="M123 489v13q0 53 63 53h764q63 0 64 -53v-13q0 -53 -64 -53h-764q-63 0 -63 53z" />
<glyph unicode="&#x2014;" horiz-adv-x="1480" d="M123 489v13q0 53 63 53h1108q63 0 64 -53v-13q0 -53 -64 -53h-1108q-63 0 -63 53z" />
<glyph unicode="&#x2018;" horiz-adv-x="475" d="M117 946v6q0 45 35 101l172 288q7 14 24 14q9 0 21 -3q26 -8 25 -27q0 -7 -3 -14l-121 -365q-10 -29 -18 -41t-23.5 -22.5t-40.5 -10.5h-8q-27 0 -45 19.5t-18 54.5z" />
<glyph unicode="&#x2019;" horiz-adv-x="475" d="M84 915l123 365q10 29 17 42t22.5 22.5t40.5 9.5h10q27 0 44 -19.5t17 -54.5v-6q0 -45 -32 -100l-174 -289q-7 -12 -25 -13q-9 0 -21 4q-26 7 -25 25q0 6 3 14z" />
<glyph unicode="&#x201a;" horiz-adv-x="475" d="M63 -233l123 364q10 29 17.5 42t23 22.5t39.5 9.5h10q27 0 44.5 -19.5t17.5 -54.5v-6q0 -45 -33 -100l-174 -289q-7 -12 -25 -12q-9 0 -20 3q-26 7 -26 25q0 7 3 15z" />
<glyph unicode="&#x201c;" horiz-adv-x="788" d="M117 946v6q0 45 33 101l174 288q8 12 25 13q9 0 20 -3q33 -9 22 -40l-123 -365q-14 -43 -28.5 -58.5t-51.5 -15.5h-10q-27 0 -44 19.5t-17 54.5zM432 946v6q0 45 33 101l174 288q8 12 25 13q9 0 20 -3q25 -7 25 -27q0 -6 -2 -13l-123 -365q-14 -43 -28.5 -58.5 t-51.5 -15.5h-10q-27 0 -44.5 19.5t-17.5 54.5z" />
<glyph unicode="&#x201d;" horiz-adv-x="788" d="M82 915l123 365q10 29 17 42t22.5 22.5t40.5 9.5h10q27 0 44 -19.5t17 -54.5v-6q0 -45 -32 -100l-174 -289q-7 -12 -25 -13q-9 0 -21 4q-26 7 -25 25q0 6 3 14zM397 915l123 365q10 29 17.5 42t22.5 22.5t40 9.5h10q27 0 44.5 -19.5t17.5 -54.5v-6q0 -45 -33 -100 l-174 -289q-7 -12 -25 -13q-9 0 -20 4q-26 7 -26 25q0 6 3 14z" />
<glyph unicode="&#x201e;" horiz-adv-x="788" d="M61 -233l123 364q10 29 17.5 42t23 22.5t39.5 9.5h10q27 0 44.5 -19.5t17.5 -54.5v-6q0 -45 -33 -100l-174 -289q-7 -12 -25 -12q-9 0 -20 3q-26 7 -26 25q0 7 3 15zM377 -233l123 364q10 29 17 42t22.5 22.5t40.5 9.5h10q27 0 44 -19.5t17 -54.5v-6q0 -45 -33 -100 l-174 -289q-7 -12 -24 -12q-9 0 -21 3q-26 7 -25 25q0 7 3 15z" />
<glyph unicode="&#x2022;" horiz-adv-x="724" d="M154 496q0 88 60 150.5t148.5 62.5t148.5 -62.5t60 -150.5t-60 -149.5t-148.5 -61.5t-148.5 61.5t-60 149.5z" />
<glyph unicode="&#x2026;" horiz-adv-x="1345" d="M143 78v20q0 92 90 92h21q92 0 92 -92v-20q0 -90 -92 -90h-21q-90 0 -90 90zM571 78v20q0 92 91 92h20q92 0 92 -92v-20q0 -90 -92 -90h-20q-91 0 -91 90zM999 78v20q0 92 91 92h20q92 0 92 -92v-20q0 -90 -92 -90h-20q-91 0 -91 90z" />
<glyph unicode="&#x2039;" horiz-adv-x="700" d="M123 497.5q0 16.5 72.5 97.5t170 161t150.5 80h2q20 0 34.5 -14.5t14.5 -33.5v-4q0 -63 -319 -288q319 -221 319 -285v-6q0 -18 -14 -31.5t-35 -13.5h-2q-53 0 -150.5 78.5t-170 160.5t-72.5 98.5z" />
<glyph unicode="&#x203a;" horiz-adv-x="700" d="M135 205v6q0 66 320 285q-319 221 -320 288v4q0 18 14.5 33t32.5 15h2q53 0 150.5 -80t170.5 -161t73 -97.5t-73 -98.5t-170 -160.5t-151 -78.5h-2q-18 0 -32.5 14.5t-14.5 30.5z" />
<glyph unicode="&#x20ac;" horiz-adv-x="1343" d="M104 823v13q0 53 64 53h143q41 213 175.5 337t330.5 124q176 0 293 -85t117 -167q0 -29 -19.5 -48.5t-39 -25.5t-21.5 -2q-113 211 -338 211q-135 0 -231.5 -92t-131.5 -252h443q63 0 63 -53v-13q0 -53 -63 -53h-459q-2 -18 -2 -57v-148h461q63 0 63 -53v-12 q0 -53 -63 -54h-445q35 -162 135.5 -257t241.5 -95q227 0 332 230q2 6 22.5 -0.5t40 -27t19.5 -50.5q0 -86 -119 -178.5t-289 -92.5q-209 0 -345 124t-173 347h-141q-63 0 -64 54v12q0 53 64 53h127v146q0 39 2 59h-129q-64 0 -64 53z" />
<glyph unicode="&#x2122;" horiz-adv-x="1447" d="M74 1274v8q0 45 49 45h438q49 0 49 -45v-8q0 -45 -49 -45h-164v-479q0 -51 -49 -52h-14q-45 0 -45 52v479h-166q-49 0 -49 45zM721 750v524q0 59 53 59h51q43 0 62 -45l129 -319l129 319q20 45 61 45h47q53 0 54 -59v-524q0 -51 -45 -52h-15q-43 0 -43 52v436l-133 -330 q-10 -29 -57 -29q-23 0 -34 4.5t-14 8.5t-8 16l-135 328v-434q0 -51 -41 -52h-18q-43 1 -43 52z" />
<glyph unicode="&#xe000;" horiz-adv-x="985" d="M0 985h985v-985h-985v985z" />
<glyph unicode="&#xfb01;" horiz-adv-x="1165" d="M51 856v119h207v90q0 168 72.5 257t214.5 89q115 0 168 -53q27 -27 26 -62q0 -20 -9 -36.5t-18.5 -22.5t-11.5 -4q-59 59 -155 59q-82 0 -120 -56t-38 -177v-84h260v-119h-258v-856h-131v856h-207zM834 1307q0 88 90 88q86 0 86 -88t-90 -88q-86 0 -86 88zM854 0v920 q0 63 59 63h15q59 0 59 -63v-920h-133z" />
<glyph unicode="&#xfb02;" horiz-adv-x="1165" d="M51 856v119h207v90q0 168 72.5 257t214.5 89q115 0 168 -53q27 -27 26 -62q0 -20 -9 -36.5t-18.5 -22.5t-11.5 -4q-59 59 -155 59q-82 0 -120 -56t-38 -177v-84h260v-119h-258v-856h-131v856h-207zM854 0v1380q0 2 6 5.5t16.5 6.5t22.5 3q88 0 88 -129v-1266h-133z" />
<glyph unicode="&#xfb03;" horiz-adv-x="1964" d="M59 856v119h199v90q0 168 72.5 257t214.5 89q115 0 168 -53q27 -27 26 -62q0 -20 -9 -36.5t-18.5 -22.5t-11.5 -4q-59 59 -155 59q-82 0 -120 -56t-38 -177v-84h252v-119h-250v-856h-131v856h-199zM797 856v119h198v90q0 168 73 257t214 89q115 0 168 -53q27 -27 27 -62 q0 -20 -9.5 -36.5t-18.5 -22.5t-11 -4q-59 59 -156 59q-82 0 -120 -56t-38 -177v-84h252v-119h-250v-856h-131v856h-198zM1632 1307q0 88 90 88q86 0 86 -88t-90 -88q-86 0 -86 88zM1653 0v920q0 63 59 63h14q59 0 60 -63v-920h-133z" />
<glyph unicode="&#xfb04;" horiz-adv-x="1964" d="M59 856v119h199v90q0 168 72.5 257t214.5 89q115 0 168 -53q27 -27 26 -62q0 -20 -9 -36.5t-18.5 -22.5t-11.5 -4q-59 59 -155 59q-82 0 -120 -56t-38 -177v-84h252v-119h-250v-856h-131v856h-199zM797 856v119h198v90q0 168 73 257t214 89q115 0 168 -53q27 -27 27 -62 q0 -20 -9.5 -36.5t-18.5 -22.5t-11 -4q-59 59 -156 59q-82 0 -120 -56t-38 -177v-84h252v-119h-250v-856h-131v856h-198zM1653 0v1380q0 2 6 5.5t16.5 6.5t22.5 3q88 0 88 -129v-1266h-133z" />
</font>
</defs>
</svg>
